<svg xmlns="http://www.w3.org/2000/svg" viewBox="0 0 1134 1080"><defs><style>.cls-1{fill:#394a66;}.cls-2{fill:#00d6a0;}.cls-3{fill:#e8e1d6;}.cls-4{fill:#236319;}.cls-5{fill:#64ac45;}.cls-6{fill:#9ebd4d;}.cls-7{fill:#e1c89b;}.cls-8{fill:#8b7d60;}.cls-9{fill:#308d1d;}.cls-10{fill:#c1aa7d;}.cls-11{fill:#0082ac;}.cls-12{fill:#faff6a;}.cls-13{fill:#ffd715;}.cls-14{fill:#ffcc01;}.cls-15{fill:#fcbd11;}.cls-16{fill:#ffdb53;}.cls-17{fill:#e69a24;}.cls-18{fill:#8e96c1;}.cls-18,.cls-20,.cls-26{stroke:#292e2e;}.cls-18,.cls-20,.cls-26,.cls-28,.cls-33,.cls-35,.cls-36,.cls-37,.cls-38,.cls-43,.cls-47{stroke-miterlimit:10;}.cls-18,.cls-20,.cls-47{stroke-width:4px;}.cls-18,.cls-20{opacity:0.5;}.cls-19,.cls-48{font-size:60px;}.cls-19,.cls-27{fill:#292e2e;}.cls-19,.cls-21,.cls-22,.cls-27,.cls-29,.cls-34,.cls-42,.cls-44,.cls-49{font-family:MyriadPro-Regular, Myriad Pro;}.cls-20{fill:#78d1dd;}.cls-21,.cls-22,.cls-42{font-size:21px;}.cls-21,.cls-44,.cls-46{fill:#ff6361;}.cls-22,.cls-40,.cls-48,.cls-49{fill:#293462;}.cls-23{font-size:100px;font-family:MonotypeCorsiva, Monotype Corsiva;}.cls-23,.cls-25,.cls-28,.cls-33,.cls-43,.cls-47{fill:#ededed;}.cls-24{opacity:0.9;}.cls-26,.cls-35,.cls-36,.cls-37,.cls-38,.cls-39{fill:none;}.cls-26{stroke-dasharray:12 12;}.cls-27,.cls-29,.cls-34,.cls-44{font-size:36px;}.cls-28{stroke:#64b2cd;}.cls-28,.cls-33,.cls-36,.cls-37,.cls-38,.cls-43{stroke-width:2px;}.cls-29,.cls-30,.cls-32{fill:#64b2cd;}.cls-30{font-size:10.77px;font-family:Roboto-Black, Roboto Black;letter-spacing:0.06em;}.cls-31{letter-spacing:0.05em;}.cls-33,.cls-35,.cls-36{stroke:#52de97;}.cls-34,.cls-41,.cls-42{fill:#52de97;}.cls-37,.cls-43{stroke:#ff6361;}.cls-38,.cls-47{stroke:#293462;}.cls-45,.cls-49{font-size:24px;}.cls-48{font-family:AdobeArabic-Regular, Adobe Arabic;}</style></defs><title>project structure</title><g id="backgrounds"><rect class="cls-1" width="1134" height="1080"/><circle class="cls-2" cx="1097" cy="1043" r="31"/><circle class="cls-3" cx="1097" cy="1043" r="25.53"/><path class="cls-4" d="M1093.45,1046.46l-6.55,3.81v1.86l13.17,7.6,6.55-3.81v-1.85"/><ellipse class="cls-5" cx="1096.76" cy="1052.17" rx="1.61" ry="2.77" transform="translate(41.48 2145.94) rotate(-89.84)"/><path class="cls-6" d="M1103.73,1053.2a.91.91,0,0,0,0,1.73l-2.18,1.27a3.3,3.3,0,0,0-3,0l-8.78-5.06a.92.92,0,0,0,0-1.74l2.19-1.27a3.3,3.3,0,0,0,3,0Zm-8.93.1a4.32,4.32,0,0,0,3.93,0,1.2,1.2,0,0,0,0-2.27,4.3,4.3,0,0,0-3.92,0,1.2,1.2,0,0,0,0,2.27"/><path class="cls-5" d="M1093.45,1046.46l13.17,7.61-6.55,3.8-13.17-7.6Zm8.11,9.74,2.18-1.27a.91.91,0,0,1,0-1.73l-8.77-5.07a3.31,3.31,0,0,1-3,0l-2.19,1.27a.92.92,0,0,1,0,1.74l8.78,5.06a3.3,3.3,0,0,1,3,0"/><polygon class="cls-7" points="1100.94 1050.78 1094.38 1054.59 1092.38 1053.43 1098.93 1049.62 1100.94 1050.78"/><polygon class="cls-8" points="1094.38 1054.59 1094.37 1056.45 1092.36 1055.29 1092.37 1053.43 1094.38 1054.59"/><polygon class="cls-9" points="1100.07 1057.88 1100.07 1059.73 1106.61 1055.92 1106.61 1054.07 1100.07 1057.88"/><path class="cls-4" d="M1093.61,1044.34l-6.55,3.81V1050l13.17,7.6,6.55-3.81v-1.86"/><ellipse class="cls-5" cx="1096.92" cy="1050.05" rx="1.61" ry="2.77" transform="translate(43.77 2143.99) rotate(-89.84)"/><path class="cls-6" d="M1103.89,1051.08a.91.91,0,0,0,0,1.73l-2.18,1.27a3.3,3.3,0,0,0-3,0L1090,1049a.92.92,0,0,0,0-1.74l2.18-1.27a3.3,3.3,0,0,0,3,0Zm-8.92.1a4.3,4.3,0,0,0,3.92,0,1.2,1.2,0,0,0,0-2.27,4.32,4.32,0,0,0-3.93,0,1.2,1.2,0,0,0,0,2.27"/><path class="cls-5" d="M1093.61,1044.34l13.17,7.6-6.55,3.81-13.17-7.6Zm8.11,9.74,2.18-1.27a.91.91,0,0,1,0-1.73l-8.77-5.07a3.3,3.3,0,0,1-3,0l-2.18,1.27a.92.92,0,0,1,0,1.74l8.77,5.06a3.31,3.31,0,0,1,3,0"/><polygon class="cls-7" points="1101.1 1048.66 1094.55 1052.47 1092.54 1051.31 1099.1 1047.5 1101.1 1048.66"/><polygon class="cls-8" points="1094.54 1052.47 1094.53 1054.33 1092.53 1053.17 1092.54 1051.31 1094.54 1052.47"/><polygon class="cls-9" points="1100.23 1055.75 1100.23 1057.61 1106.77 1053.8 1106.77 1051.94 1100.23 1055.75"/><path class="cls-4" d="M1093.29,1042.3l-6.56,3.81V1048l13.17,7.6,6.56-3.81v-1.85"/><ellipse class="cls-5" cx="1096.59" cy="1048.01" rx="1.61" ry="2.77" transform="matrix(0, -1, 1, 0, 45.48, 2141.63)"/><path class="cls-6" d="M1103.57,1049c-.83.48-.82,1.25,0,1.73l-2.19,1.27a3.3,3.3,0,0,0-3,0l-8.77-5.06a.92.92,0,0,0,0-1.74l2.19-1.27a3.31,3.31,0,0,0,3,0Zm-8.93.1a4.3,4.3,0,0,0,3.92,0,1.2,1.2,0,0,0,0-2.27,4.3,4.3,0,0,0-3.92,0,1.2,1.2,0,0,0,0,2.27"/><path class="cls-5" d="M1093.29,1042.3l13.17,7.61-6.56,3.8-13.17-7.6Zm8.1,9.74,2.19-1.27c-.83-.48-.84-1.25,0-1.73l-8.77-5.07a3.3,3.3,0,0,1-3,0l-2.19,1.27a.92.92,0,0,1,0,1.74l8.77,5.06a3.3,3.3,0,0,1,3,0"/><polygon class="cls-7" points="1100.78 1046.62 1094.22 1050.43 1092.21 1049.27 1098.77 1045.46 1100.78 1046.62"/><polygon class="cls-8" points="1094.21 1050.43 1094.2 1052.29 1092.2 1051.13 1092.21 1049.27 1094.21 1050.43"/><polygon class="cls-9" points="1099.9 1053.71 1099.9 1055.57 1106.45 1051.76 1106.45 1049.9 1099.9 1053.71"/><path class="cls-4" d="M1093.29,1040.34l-6.56,3.81V1046l13.17,7.6,6.56-3.81V1048"/><ellipse class="cls-5" cx="1096.59" cy="1046.05" rx="1.61" ry="2.77" transform="translate(47.44 2139.67) rotate(-89.84)"/><path class="cls-6" d="M1103.57,1047.08a.92.92,0,0,0,0,1.74l-2.19,1.27a3.3,3.3,0,0,0-3,0l-8.77-5.07a.92.92,0,0,0,0-1.74l2.19-1.27a3.31,3.31,0,0,0,3,0Zm-8.93.11a4.36,4.36,0,0,0,3.92,0,1.21,1.21,0,0,0,0-2.28,4.36,4.36,0,0,0-3.92,0,1.21,1.21,0,0,0,0,2.28"/><path class="cls-5" d="M1093.29,1040.34l13.17,7.61-6.56,3.81-13.17-7.61Zm8.1,9.75,2.19-1.27a.92.92,0,0,1,0-1.74l-8.77-5.07a3.3,3.3,0,0,1-3,0l-2.19,1.27a.92.92,0,0,1,0,1.74l8.77,5.07a3.3,3.3,0,0,1,3,0"/><polygon class="cls-7" points="1100.78 1044.66 1094.22 1048.47 1092.21 1047.31 1098.77 1043.51 1100.78 1044.66"/><polygon class="cls-8" points="1094.21 1048.47 1094.2 1050.33 1092.2 1049.17 1092.21 1047.32 1094.21 1048.47"/><polygon class="cls-9" points="1099.9 1051.76 1099.9 1053.61 1106.45 1049.8 1106.45 1047.95 1099.9 1051.76"/><path class="cls-4" d="M1093.61,1038.06l-6.55,3.81v1.85l13.17,7.61,6.55-3.81v-1.86"/><ellipse class="cls-5" cx="1096.92" cy="1043.77" rx="1.61" ry="2.77" transform="translate(50.05 2137.72) rotate(-89.84)"/><path class="cls-6" d="M1103.89,1044.79a.92.92,0,0,0,0,1.74l-2.18,1.27a3.31,3.31,0,0,0-3,0l-8.77-5.06a.92.92,0,0,0,0-1.74l2.18-1.27a3.3,3.3,0,0,0,3,0Zm-8.92.11a4.3,4.3,0,0,0,3.92,0,1.2,1.2,0,0,0,0-2.27,4.32,4.32,0,0,0-3.93,0c-1.08.63-1.07,1.64,0,2.27"/><path class="cls-5" d="M1093.61,1038.06l13.17,7.6-6.55,3.81-13.17-7.6Zm8.11,9.74,2.18-1.27a.92.92,0,0,1,0-1.74l-8.77-5.06a3.3,3.3,0,0,1-3,0l-2.18,1.27a.92.92,0,0,1,0,1.74l8.77,5.06a3.3,3.3,0,0,1,3,0"/><polygon class="cls-7" points="1101.1 1042.38 1094.55 1046.19 1092.54 1045.03 1099.1 1041.22 1101.1 1042.38"/><polygon class="cls-8" points="1094.54 1046.19 1094.53 1048.05 1092.53 1046.89 1092.54 1045.03 1094.54 1046.19"/><polygon class="cls-9" points="1100.23 1049.47 1100.23 1051.33 1106.77 1047.52 1106.77 1045.66 1100.23 1049.47"/><path class="cls-4" d="M1093.94,1036l-6.56,3.81v1.86l13.17,7.6,6.55-3.81v-1.85"/><ellipse class="cls-5" cx="1097.25" cy="1041.7" rx="1.61" ry="2.77" transform="translate(52.44 2135.99) rotate(-89.84)"/><path class="cls-6" d="M1104.22,1042.73a.92.92,0,0,0,0,1.74l-2.18,1.27a3.3,3.3,0,0,0-3,0l-8.78-5.07a.92.92,0,0,0,0-1.74l2.19-1.27a3.3,3.3,0,0,0,3,0Zm-8.93.11a4.36,4.36,0,0,0,3.92,0,1.21,1.21,0,0,0,0-2.28,4.36,4.36,0,0,0-3.92,0,1.21,1.21,0,0,0,0,2.28"/><path class="cls-5" d="M1093.94,1036l13.17,7.61-6.55,3.81-13.18-7.61Zm8.11,9.75,2.18-1.27a.92.92,0,0,1,0-1.74l-8.77-5.07a3.31,3.31,0,0,1-3,0l-2.19,1.27a.92.92,0,0,1,0,1.74l8.78,5.07a3.3,3.3,0,0,1,3,0"/><polygon class="cls-7" points="1101.43 1040.31 1094.87 1044.12 1092.87 1042.96 1099.42 1039.15 1101.43 1040.31"/><polygon class="cls-8" points="1094.87 1044.12 1094.86 1045.98 1092.85 1044.82 1092.86 1042.97 1094.87 1044.12"/><polygon class="cls-9" points="1100.56 1047.41 1100.56 1049.26 1107.1 1045.45 1107.1 1043.6 1100.56 1047.41"/><path class="cls-4" d="M1093.29,1033.93l-6.56,3.81v1.85l13.17,7.61,6.56-3.81v-1.86"/><ellipse class="cls-5" cx="1096.59" cy="1039.63" rx="1.61" ry="2.77" transform="translate(53.86 2133.28) rotate(-89.84)"/><path class="cls-6" d="M1103.57,1040.66a.92.92,0,0,0,0,1.74l-2.19,1.27a3.3,3.3,0,0,0-3,0l-8.77-5.07c.83-.48.82-1.25,0-1.73l2.19-1.27a3.31,3.31,0,0,0,3,0Zm-8.93.11a4.3,4.3,0,0,0,3.92,0,1.2,1.2,0,0,0,0-2.27,4.3,4.3,0,0,0-3.92,0,1.2,1.2,0,0,0,0,2.27"/><path class="cls-5" d="M1093.29,1033.93l13.17,7.6-6.56,3.81-13.17-7.6Zm8.1,9.74,2.19-1.27a.92.92,0,0,1,0-1.74l-8.77-5.06a3.3,3.3,0,0,1-3,0l-2.19,1.27c.83.48.84,1.25,0,1.73l8.77,5.07a3.3,3.3,0,0,1,3,0"/><polygon class="cls-7" points="1100.78 1038.25 1094.22 1042.06 1092.21 1040.9 1098.77 1037.09 1100.78 1038.25"/><polygon class="cls-8" points="1094.21 1042.06 1094.2 1043.91 1092.2 1042.76 1092.21 1040.9 1094.21 1042.06"/><polygon class="cls-9" points="1099.9 1045.34 1099.9 1047.2 1106.45 1043.39 1106.45 1041.53 1099.9 1045.34"/><path class="cls-4" d="M1084.83,1051.4l-6.55,3.81v1.85l13.17,7.61,6.56-3.81V1059"/><ellipse class="cls-5" cx="1088.14" cy="1057.1" rx="1.61" ry="2.77" transform="translate(27.96 2142.24) rotate(-89.84)"/><path class="cls-6" d="M1095.12,1058.13a.92.92,0,0,0,0,1.74l-2.19,1.27a3.31,3.31,0,0,0-3,0l-8.77-5.06a.92.92,0,0,0,0-1.74l2.18-1.27a3.3,3.3,0,0,0,3,0Zm-8.93.11a4.3,4.3,0,0,0,3.92,0,1.2,1.2,0,0,0,0-2.27,4.3,4.3,0,0,0-3.92,0,1.2,1.2,0,0,0,0,2.27"/><path class="cls-5" d="M1084.83,1051.4,1098,1059l-6.56,3.81-13.17-7.6Zm8.11,9.74,2.19-1.27a.92.92,0,0,1,0-1.74l-8.78-5.06a3.3,3.3,0,0,1-3,0l-2.18,1.27a.92.92,0,0,1,0,1.74l8.77,5.06a3.3,3.3,0,0,1,3,0"/><polygon class="cls-7" points="1092.32 1055.72 1085.77 1059.53 1083.76 1058.37 1090.32 1054.56 1092.32 1055.72"/><polygon class="cls-8" points="1085.76 1059.53 1085.75 1061.38 1083.75 1060.23 1083.76 1058.37 1085.76 1059.53"/><polygon class="cls-9" points="1091.45 1062.81 1091.45 1064.67 1098 1060.86 1098 1059 1091.45 1062.81"/><path class="cls-4" d="M1084.67,1049.36l-6.55,3.81V1055l13.17,7.61,6.55-3.81V1057"/><ellipse class="cls-5" cx="1087.98" cy="1055.06" rx="1.61" ry="2.77" transform="translate(29.83 2140.05) rotate(-89.84)"/><path class="cls-6" d="M1095,1056.09a.92.92,0,0,0,0,1.74l-2.18,1.27a3.3,3.3,0,0,0-3,0L1081,1054a.92.92,0,0,0,0-1.74l2.18-1.27a3.3,3.3,0,0,0,3,0Zm-8.93.11a4.32,4.32,0,0,0,3.93,0c1.08-.63,1.07-1.64,0-2.27a4.3,4.3,0,0,0-3.92,0,1.2,1.2,0,0,0,0,2.27"/><path class="cls-5" d="M1084.67,1049.36l13.17,7.6-6.55,3.81-13.17-7.6Zm8.11,9.74,2.18-1.27a.92.92,0,0,1,0-1.74l-8.77-5.06a3.3,3.3,0,0,1-3,0l-2.18,1.27a.92.92,0,0,1,0,1.74l8.77,5.06a3.3,3.3,0,0,1,3,0"/><polygon class="cls-7" points="1092.16 1053.68 1085.61 1057.49 1083.6 1056.33 1090.15 1052.52 1092.16 1053.68"/><polygon class="cls-8" points="1085.6 1057.49 1085.59 1059.35 1083.58 1058.19 1083.59 1056.33 1085.6 1057.49"/><polygon class="cls-9" points="1091.29 1060.77 1091.29 1062.63 1097.83 1058.82 1097.83 1056.96 1091.29 1060.77"/><path class="cls-4" d="M1084.67,1047.24l-6.55,3.81v1.85l13.17,7.61,6.55-3.81v-1.86"/><ellipse class="cls-5" cx="1087.98" cy="1052.94" rx="1.61" ry="2.77" transform="translate(31.96 2137.93) rotate(-89.84)"/><path class="cls-6" d="M1095,1054a.92.92,0,0,0,0,1.74l-2.18,1.27a3.3,3.3,0,0,0-3,0l-8.77-5.07a.91.91,0,0,0,0-1.73l2.18-1.27a3.3,3.3,0,0,0,3,0Zm-8.93.11a4.32,4.32,0,0,0,3.93,0,1.2,1.2,0,0,0,0-2.27,4.3,4.3,0,0,0-3.92,0,1.2,1.2,0,0,0,0,2.27"/><path class="cls-5" d="M1084.67,1047.24l13.17,7.6-6.55,3.81-13.17-7.6Zm8.11,9.74,2.18-1.27a.92.92,0,0,1,0-1.74l-8.77-5.06a3.3,3.3,0,0,1-3,0l-2.18,1.27a.91.91,0,0,1,0,1.73l8.77,5.07a3.3,3.3,0,0,1,3,0"/><polygon class="cls-7" points="1092.16 1051.56 1085.61 1055.37 1083.6 1054.21 1090.15 1050.4 1092.16 1051.56"/><polygon class="cls-8" points="1085.6 1055.37 1085.59 1057.22 1083.58 1056.07 1083.59 1054.21 1085.6 1055.37"/><polygon class="cls-9" points="1091.29 1058.65 1091.29 1060.51 1097.83 1056.7 1097.83 1054.84 1091.29 1058.65"/><path class="cls-4" d="M1085.24,1045l-6.55,3.81v1.86l13.17,7.6,6.55-3.81v-1.85"/><ellipse class="cls-5" cx="1088.55" cy="1050.74" rx="1.61" ry="2.77" transform="translate(34.73 2136.31) rotate(-89.84)"/><path class="cls-6" d="M1095.52,1051.77a.92.92,0,0,0,0,1.74l-2.18,1.27a3.3,3.3,0,0,0-3,0l-8.77-5.07a.92.92,0,0,0,0-1.74l2.18-1.27a3.3,3.3,0,0,0,3,0Zm-8.92.11a4.36,4.36,0,0,0,3.92,0,1.21,1.21,0,0,0,0-2.28,4.38,4.38,0,0,0-3.93,0,1.21,1.21,0,0,0,0,2.28"/><path class="cls-5" d="M1085.24,1045l13.17,7.61-6.55,3.81-13.17-7.61Zm8.11,9.75,2.18-1.27a.92.92,0,0,1,0-1.74l-8.77-5.07a3.3,3.3,0,0,1-3,0l-2.18,1.27a.92.92,0,0,1,0,1.74l8.77,5.07a3.31,3.31,0,0,1,3,0"/><polygon class="cls-7" points="1092.73 1049.35 1086.18 1053.16 1084.17 1052.01 1090.72 1048.2 1092.73 1049.35"/><polygon class="cls-8" points="1086.17 1053.16 1086.16 1055.02 1084.15 1053.86 1084.16 1052.01 1086.17 1053.16"/><polygon class="cls-9" points="1091.86 1056.45 1091.86 1058.3 1098.4 1054.49 1098.4 1052.64 1091.86 1056.45"/><path class="cls-4" d="M1085,1043l-6.56,3.81v1.86l13.17,7.6,6.56-3.8v-1.86"/><ellipse class="cls-5" cx="1088.31" cy="1048.7" rx="1.61" ry="2.77" transform="translate(36.52 2134.03) rotate(-89.84)"/><path class="cls-6" d="M1095.28,1049.73a.92.92,0,0,0,0,1.74l-2.19,1.27a3.28,3.28,0,0,0-3,0l-8.78-5.07a.92.92,0,0,0,0-1.74l2.19-1.26a3.34,3.34,0,0,0,3,0Zm-8.93.11a4.36,4.36,0,0,0,3.92,0,1.2,1.2,0,0,0,0-2.27,4.3,4.3,0,0,0-3.92,0,1.2,1.2,0,0,0,0,2.27"/><path class="cls-5" d="M1085,1043l13.17,7.61-6.56,3.81-13.17-7.61Zm8.1,9.75,2.19-1.27a.92.92,0,0,1,0-1.74l-8.77-5.06a3.34,3.34,0,0,1-3,0l-2.19,1.26a.92.92,0,0,1,0,1.74l8.78,5.07a3.28,3.28,0,0,1,3,0"/><polygon class="cls-7" points="1092.49 1047.32 1085.93 1051.12 1083.93 1049.97 1090.48 1046.16 1092.49 1047.32"/><polygon class="cls-8" points="1085.93 1051.13 1085.92 1052.98 1083.91 1051.82 1083.92 1049.97 1085.93 1051.13"/><polygon class="cls-9" points="1091.61 1054.41 1091.61 1056.26 1098.16 1052.45 1098.16 1050.6 1091.61 1054.41"/><path class="cls-9" d="M1095.87,1061.05v1.86l6.55,3.81,13.17-7.61v-1.85l-6.55-3.81"/><ellipse class="cls-5" cx="1105.73" cy="1059.15" rx="2.77" ry="1.61" transform="translate(-3 3.14) rotate(-0.16)"/><path class="cls-6" d="M1107.53,1055.12a3.31,3.31,0,0,0,3,0l2.19,1.27c-.84.48-.84,1.25,0,1.73l-8.78,5.07a3.3,3.3,0,0,0-3,0l-2.18-1.27a.92.92,0,0,0,0-1.74Zm.16,5.17a1.2,1.2,0,0,0,0-2.27,4.3,4.3,0,0,0-3.92,0,1.2,1.2,0,0,0,0,2.27,4.32,4.32,0,0,0,3.93,0"/><path class="cls-5" d="M1115.59,1057.26l-13.17,7.6-6.55-3.81,13.17-7.6Zm-14.66,5.93a3.3,3.3,0,0,1,3,0l8.78-5.07c-.83-.48-.83-1.25,0-1.73l-2.19-1.27a3.3,3.3,0,0,1-3,0l-8.77,5.06a.92.92,0,0,1,0,1.74l2.18,1.27"/><polygon class="cls-7" points="1101.55 1057.77 1108.11 1061.58 1110.11 1060.42 1103.56 1056.61 1101.55 1057.77"/><polygon class="cls-10" points="1108.11 1061.58 1108.12 1063.43 1110.13 1062.28 1110.12 1060.42 1108.11 1061.58"/><polygon class="cls-4" points="1102.42 1064.86 1102.42 1066.72 1095.88 1062.91 1095.88 1061.05 1102.42 1064.86"/><path class="cls-9" d="M1096.16,1058.87v1.86l6.55,3.81,13.17-7.61v-1.85l-6.55-3.81"/><ellipse class="cls-5" cx="1106.02" cy="1056.97" rx="2.77" ry="1.61" transform="translate(-2.99 3.14) rotate(-0.16)"/><path class="cls-6" d="M1107.82,1052.94a3.3,3.3,0,0,0,3,0l2.18,1.27a.92.92,0,0,0,0,1.74l-8.77,5.06a3.3,3.3,0,0,0-3,0l-2.18-1.27a.92.92,0,0,0,0-1.74Zm.16,5.17a1.2,1.2,0,0,0,0-2.27,4.3,4.3,0,0,0-3.92,0c-1.09.63-1.1,1.64,0,2.27a4.32,4.32,0,0,0,3.93,0"/><path class="cls-5" d="M1115.88,1055.08l-13.17,7.6-6.55-3.81,13.17-7.6Zm-14.66,5.93a3.3,3.3,0,0,1,3,0L1113,1056a.92.92,0,0,1,0-1.74l-2.18-1.27a3.3,3.3,0,0,1-3,0l-8.77,5.06a.92.92,0,0,1,0,1.74l2.18,1.27"/><polygon class="cls-7" points="1101.84 1055.59 1108.39 1059.4 1110.4 1058.24 1103.85 1054.43 1101.84 1055.59"/><polygon class="cls-10" points="1108.4 1059.4 1108.41 1061.26 1110.42 1060.1 1110.41 1058.24 1108.4 1059.4"/><polygon class="cls-4" points="1102.71 1062.68 1102.71 1064.54 1096.17 1060.73 1096.17 1058.87 1102.71 1062.68"/><path class="cls-9" d="M1095.87,1056.73v1.85l6.55,3.81,13.17-7.6v-1.86l-6.55-3.81"/><ellipse class="cls-5" cx="1105.73" cy="1054.83" rx="2.77" ry="1.61" transform="translate(-2.99 3.14) rotate(-0.16)"/><path class="cls-6" d="M1107.53,1050.79a3.31,3.31,0,0,0,3,0l2.19,1.27a.92.92,0,0,0,0,1.74l-8.78,5.07a3.3,3.3,0,0,0-3,0l-2.18-1.27a.92.92,0,0,0,0-1.74Zm.16,5.18a1.21,1.21,0,0,0,0-2.28,4.36,4.36,0,0,0-3.92,0,1.21,1.21,0,0,0,0,2.28,4.38,4.38,0,0,0,3.93,0"/><path class="cls-5" d="M1115.59,1052.93l-13.17,7.61-6.55-3.81,13.17-7.61Zm-14.66,5.94a3.3,3.3,0,0,1,3,0l8.78-5.07a.92.92,0,0,1,0-1.74l-2.19-1.27a3.3,3.3,0,0,1-3,0l-8.77,5.07a.92.92,0,0,1,0,1.74l2.18,1.27"/><polygon class="cls-7" points="1101.55 1053.44 1108.11 1057.25 1110.11 1056.09 1103.56 1052.29 1101.55 1053.44"/><polygon class="cls-10" points="1108.11 1057.25 1108.12 1059.11 1110.13 1057.95 1110.12 1056.1 1108.11 1057.25"/><polygon class="cls-4" points="1102.42 1060.54 1102.42 1062.39 1095.88 1058.58 1095.88 1056.73 1102.42 1060.54"/><path class="cls-11" d="M1088.13,1030.57l-3.45-4a13.77,13.77,0,0,1,1.11,2.25,6.28,6.28,0,0,1,.45,1.88,2.8,2.8,0,0,1-.18,1.23,1.94,1.94,0,0,1-.56.74.76.76,0,0,1-.4.16.32.32,0,0,1-.27-.13.29.29,0,0,1,0-.24.32.32,0,0,1,.15-.24,1.31,1.31,0,0,1,.3-.16,1.5,1.5,0,0,0,.29-.16.82.82,0,0,0,.28-.42,2.69,2.69,0,0,0,0-1.17,7.93,7.93,0,0,0-.57-1.85,13.5,13.5,0,0,0-1.09-2,2.85,2.85,0,0,0-1.1,1.51,1.28,1.28,0,0,0,.15,1.11,1,1,0,0,0,.55.3.51.51,0,0,1,.29.15.3.3,0,0,1,.06.22.27.27,0,0,1-.1.18.43.43,0,0,1-.39,0,1.18,1.18,0,0,1-.57-.43,1.73,1.73,0,0,1-.34-1.07,2.28,2.28,0,0,1,.35-1.23,4.07,4.07,0,0,1,1.07-1.14,2.64,2.64,0,0,0,.56-.53l.27.38a1.07,1.07,0,0,0,.13.15l2.45,2.79a23,23,0,0,1-.19-4.08,5.42,5.42,0,0,1,.34-1.84c.19.62.49,1.42.89,2.37l.92,2.22c0,.13.13.3.24.54l.22.48a3,3,0,0,0,.59-.33,3.32,3.32,0,0,0,.39-.37l.12.26a3.13,3.13,0,0,1-.28.27c-.11.08-.27.18-.49.31a5.39,5.39,0,0,0-.46.29,2.39,2.39,0,0,0-.39.43,17.22,17.22,0,0,0-.69-1.84l-.59-1.41a7.75,7.75,0,0,1-.47-1.3c0,.39,0,1.06,0,2,0,.76.13,1.7.28,2.8Z"/><path class="cls-11" d="M1090.82,1025.64l-.25-.09a4,4,0,0,1,.59-1,1.47,1.47,0,0,1,.57-.43.36.36,0,0,1,.25,0,.2.2,0,0,1,.13.14,9.29,9.29,0,0,1,.09,1.24,12.38,12.38,0,0,0,.2,2.13.13.13,0,0,0,.07.09.07.07,0,0,0,.08,0c.1,0,.28-.31.56-.82l.23.11a6.56,6.56,0,0,1-.65,1.07,1.1,1.1,0,0,1-.42.33.36.36,0,0,1-.29,0,.45.45,0,0,1-.19-.25,15.23,15.23,0,0,1-.28-3,.56.56,0,0,0,0-.2.09.09,0,0,0-.11-.07.59.59,0,0,0-.19.15A5.44,5.44,0,0,0,1090.82,1025.64Zm.76-3.66a.36.36,0,0,1,.27,0,.33.33,0,0,1,.17.21.55.55,0,0,1,0,.4.45.45,0,0,1-.27.27.33.33,0,0,1-.26,0,.4.4,0,0,1-.18-.22.55.55,0,0,1,0-.4A.4.4,0,0,1,1091.58,1022Z"/><path class="cls-11" d="M1095.47,1026.34l.2.14a5.29,5.29,0,0,1-.73.94,1.81,1.81,0,0,1-.77.51.37.37,0,0,1-.27-.07.53.53,0,0,1-.15-.29,8.9,8.9,0,0,1,0-1.64l.1-2.19a8.6,8.6,0,0,1,.18-1.61,2.27,2.27,0,0,1,.65-1.07,2.21,2.21,0,0,1,1.08-.54.47.47,0,0,1,.34,0,.28.28,0,0,1,.16.22.32.32,0,0,1-.06.27.51.51,0,0,1-.31.16,2.26,2.26,0,0,1-.42,0,2.82,2.82,0,0,0-.43,0,.39.39,0,0,0-.27.14,1,1,0,0,0-.16.52c0,.26,0,.77-.08,1.52l-.09,2.09c0,1,0,1.59,0,1.63s.07.15.14.13a.58.58,0,0,0,.28-.18A4.42,4.42,0,0,0,1095.47,1026.34Z"/><path class="cls-11" d="M1095.88,1024.65l-.2-.2a3.6,3.6,0,0,1,.85-.77,1.68,1.68,0,0,1,.72-.31.28.28,0,0,1,.18.06.23.23,0,0,1,.08.16,4,4,0,0,1-.12.7l-.65,3.1a5.47,5.47,0,0,1-.81,2.17,1.63,1.63,0,0,1-1.16.62.9.9,0,0,1-.53-.1.38.38,0,0,1-.2-.28.31.31,0,0,1,.07-.21.27.27,0,0,1,.2-.09,1,1,0,0,1,.4.1,1,1,0,0,0,.45.12.49.49,0,0,0,.41-.27,6.61,6.61,0,0,0,.39-1.56c.17-.89.31-1.62.43-2.18l.27-1.24a1.71,1.71,0,0,0,.08-.37.08.08,0,0,0,0-.07l-.06,0C1096.51,1024,1096.26,1024.23,1095.88,1024.65Zm1.74-3.37a.36.36,0,0,1,.37.34.58.58,0,0,1-.13.38.4.4,0,0,1-.32.18.32.32,0,0,1-.25-.08.37.37,0,0,1-.11-.27.49.49,0,0,1,.12-.37A.44.44,0,0,1,1097.62,1021.28Z"/><path class="cls-11" d="M1100.66,1023.75a1,1,0,0,1,.74.47,1.63,1.63,0,0,1,.18,1.09,2.84,2.84,0,0,1-1,1.82,2.14,2.14,0,0,1-1.7.65,1.07,1.07,0,0,1-.78-.44,1.31,1.31,0,0,1-.21-1,3.31,3.31,0,0,1,.82-1.79A2.15,2.15,0,0,1,1100.66,1023.75Zm-.46.31c-.27,0-.56.13-.86.49a3,3,0,0,0-.59,1.56,1.8,1.8,0,0,0,.12,1,.51.51,0,0,0,.43.32.91.91,0,0,0,.8-.41,2.94,2.94,0,0,0,.62-1.56,2,2,0,0,0-.07-1A.56.56,0,0,0,1100.2,1024.06Z"/><path class="cls-11" d="M1102.52,1025.38l-.1-.21a5,5,0,0,1,1.21-.38,1.47,1.47,0,0,1,.66,0,.32.32,0,0,1,.14.1.13.13,0,0,1,0,.12.55.55,0,0,1-.08.13l-.56.83a5.85,5.85,0,0,1,1.53-.5,1.33,1.33,0,0,1,.7,0,.36.36,0,0,1,.23.22.51.51,0,0,1,0,.36,1.94,1.94,0,0,1-.17.31c-.12.17-.42.55-.88,1.13a5.72,5.72,0,0,0-.77,1.11.49.49,0,0,0,0,.15.11.11,0,0,0,.06.07.78.78,0,0,0,.51-.09l.53-.18,0,.21a4.39,4.39,0,0,1-1.15.4,1,1,0,0,1-.54,0,.32.32,0,0,1-.22-.22.78.78,0,0,1,.06-.45,11.4,11.4,0,0,1,1.29-1.8,5.71,5.71,0,0,0,.42-.61c0-.09,0-.16-.12-.2a.9.9,0,0,0-.54,0,2.8,2.8,0,0,0-1,.38,2.09,2.09,0,0,0-.61.66l-1,1.43-.67-.26q.45-.6.84-1.17l1.07-1.56a1,1,0,0,0,.09-.14c0-.08,0-.14,0-.16a.5.5,0,0,0-.24,0A3.66,3.66,0,0,0,1102.52,1025.38Z"/><path class="cls-11" d="M1110.24,1028.35l.3.13-1,.78c-.4.31-.84.69-1.32,1.13a3.49,3.49,0,0,0-.48.47c-.06.09-.06.15,0,.2a.54.54,0,0,0,.26.06,3.62,3.62,0,0,0,.73,0v.24c-.5.06-.81.08-.93.08a3.2,3.2,0,0,1-.67-.09,1.26,1.26,0,0,1-.33-.16.25.25,0,0,1-.12-.16.24.24,0,0,1,0-.17.69.69,0,0,1,.15-.14l.55-.42a4.11,4.11,0,0,1-1.31.11,1.32,1.32,0,0,1-.66-.2.51.51,0,0,1-.23-.42,1.07,1.07,0,0,1,.24-.68,3.05,3.05,0,0,1,.9-.77,4.35,4.35,0,0,1,1.27-.49,3,3,0,0,1,1.23,0,2.32,2.32,0,0,1,.92.44,1.64,1.64,0,0,1,.25.21Zm-.92.25a2.26,2.26,0,0,0-.33-.31,1.23,1.23,0,0,0-.75-.25,2.19,2.19,0,0,0-1,.34,3,3,0,0,0-1,.84.82.82,0,0,0-.19.45.33.33,0,0,0,.15.29,1,1,0,0,0,.79.13,2.06,2.06,0,0,0,1.07-.51Zm.72-2.14a.46.46,0,0,1,.17.29.39.39,0,0,1-.08.34.43.43,0,0,1-.29.18.45.45,0,0,1-.34-.08.39.39,0,0,1-.17-.3.43.43,0,0,1,.07-.33.47.47,0,0,1,.3-.18A.46.46,0,0,1,1110,1026.46Zm1.12.83a.43.43,0,0,1,.19.3.43.43,0,0,1-.08.33.45.45,0,0,1-.3.18.4.4,0,0,1-.33-.09.43.43,0,0,1-.18-.29.43.43,0,0,1,.08-.33.43.43,0,0,1,.29-.18A.43.43,0,0,1,1111.16,1027.29Z"/><path class="cls-11" d="M1108.69,1032.86l-.48-.54,1.2-.62c.58-.3,1.13-.6,1.64-.9l.23-.14a.11.11,0,0,0,0-.16.45.45,0,0,0-.23-.1,4.38,4.38,0,0,0-.73-.08l0-.22a3.69,3.69,0,0,1,1.18.19,1.74,1.74,0,0,1,.66.36.22.22,0,0,1,.06.13.14.14,0,0,1,0,.11,1.78,1.78,0,0,1-.3.18l-.79.42a6.35,6.35,0,0,1,1.73-.06.85.85,0,0,1,.53.2.36.36,0,0,1,.09.24.29.29,0,0,1-.1.22.27.27,0,0,1-.23.08,1.37,1.37,0,0,1-.48-.21,2.34,2.34,0,0,0-.6-.24,3.25,3.25,0,0,0-.72,0,2.82,2.82,0,0,0-.71.13,11,11,0,0,0-1.11.56Z"/><path class="cls-12" d="M1086.9,1018.43l-.61-1.22c-.13-.25-.21-.42-.24-.5a2.31,2.31,0,0,1-.17-.7,2.6,2.6,0,0,1,.1-.78,1.65,1.65,0,0,0-.57.4,1.27,1.27,0,0,0-.32.53.69.69,0,0,0,0,.45.38.38,0,0,0,.13.16.53.53,0,0,1,.15.17.14.14,0,0,1,0,.11.11.11,0,0,1-.08.07.17.17,0,0,1-.18,0,.52.52,0,0,1-.19-.26,1.07,1.07,0,0,1,0-.71,1.55,1.55,0,0,1,.48-.71,3.66,3.66,0,0,1,.74-.44l.27-.15a3.74,3.74,0,0,0-.11,1.06,3.84,3.84,0,0,0,.28,1,7.74,7.74,0,0,0,.39.81l.28-.74.25-.61a6.57,6.57,0,0,0,.44-1.42,1.11,1.11,0,0,0,0-.59,1.06,1.06,0,0,0-.18-.27.45.45,0,0,1-.1-.13.2.2,0,0,1,0-.15.18.18,0,0,1,.11-.1.21.21,0,0,1,.21,0,.61.61,0,0,1,.19.29,1.47,1.47,0,0,1,.1.49,2.54,2.54,0,0,1-.13.75,13,13,0,0,1-.48,1.34C1087.37,1017.16,1087.13,1017.78,1086.9,1018.43Z"/><path class="cls-12" d="M1090.23,1016.44l.12.09c-.32.55-.63.88-.95,1a.37.37,0,0,1-.33,0,.72.72,0,0,1-.23-.39,2.35,2.35,0,0,1,0-1.26,1.19,1.19,0,0,1,.76-.93.39.39,0,0,1,.32,0,.33.33,0,0,1,.18.23.56.56,0,0,1,0,.38,1.61,1.61,0,0,1-.33.49l-.58.52a1.36,1.36,0,0,0,.06.29.48.48,0,0,0,.14.25.23.23,0,0,0,.2,0,.78.78,0,0,0,.23-.13A4.78,4.78,0,0,0,1090.23,1016.44Zm-1.07-.11a2.25,2.25,0,0,0,.54-.62.5.5,0,0,0,0-.35.27.27,0,0,0-.11-.17.19.19,0,0,0-.18,0,.32.32,0,0,0-.18.13.85.85,0,0,0-.12.37A3.64,3.64,0,0,0,1089.16,1016.33Z"/><path class="cls-12" d="M1090.57,1015.3l-.11-.1a2.5,2.5,0,0,1,.45-.5.8.8,0,0,1,.37-.2s.07,0,.09,0a.07.07,0,0,1,0,.06.76.76,0,0,1,0,.22,3,3,0,0,0,0,.39c.36-.54.65-.83.89-.87a.24.24,0,0,1,.15,0,.26.26,0,0,1,.07.15,1.52,1.52,0,0,1,0,.42,2.83,2.83,0,0,1,.47-.58.71.71,0,0,1,.33-.2.22.22,0,0,1,.2,0,.31.31,0,0,1,.1.19,1.34,1.34,0,0,1,0,.21c0,.08,0,.32-.07.73a4.59,4.59,0,0,0-.06.9c0,.06,0,.09.09.08a.19.19,0,0,0,.1,0,2.53,2.53,0,0,0,.28-.35l.11.08-.18.23a2.18,2.18,0,0,1-.26.31.69.69,0,0,1-.25.15.2.2,0,0,1-.17-.06.38.38,0,0,1-.1-.21,1.08,1.08,0,0,1,0-.32c0-.13,0-.41.08-.85a4,4,0,0,0,0-.6c0-.06,0-.09-.1-.07a.28.28,0,0,0-.17.1,1.38,1.38,0,0,0-.34.43,1.55,1.55,0,0,0-.11.49c0,.48-.06.87-.06,1.18l-.4.07.1-1.78v-.22a.09.09,0,0,0,0-.06.08.08,0,0,0-.07,0,.47.47,0,0,0-.21.16,1.64,1.64,0,0,0-.33.45,2.07,2.07,0,0,0-.1.61l0,1-.4.07.07-1.38a6.34,6.34,0,0,0,0-.66s0-.06-.06-.05S1090.75,1015.05,1090.57,1015.3Z"/><path class="cls-12" d="M1096.64,1013.93a.63.63,0,0,1,.39.08.32.32,0,0,1,.15.22.2.2,0,0,1-.06.14.16.16,0,0,1-.13.06l-.1,0a1.29,1.29,0,0,1-.12-.12.36.36,0,0,0-.28-.17.3.3,0,0,0-.2.1.29.29,0,0,0-.08.22.44.44,0,0,0,.07.22,1.5,1.5,0,0,0,.3.34,1,1,0,0,1,.33.62.7.7,0,0,1-.23.54,1,1,0,0,1-.65.25.73.73,0,0,1-.5-.12.46.46,0,0,1-.18-.33.25.25,0,0,1,.06-.17.21.21,0,0,1,.15-.07.19.19,0,0,1,.13,0,.19.19,0,0,1,.07.12v.07a.16.16,0,0,0,0,.07.19.19,0,0,0,.08.15.33.33,0,0,0,.21.06.77.77,0,0,0,.27-.07.37.37,0,0,0,.17-.16.42.42,0,0,0,.06-.21.48.48,0,0,0-.07-.2,2.05,2.05,0,0,0-.29-.33,1,1,0,0,1-.32-.62.64.64,0,0,1,.21-.49A.82.82,0,0,1,1096.64,1013.93Z"/><path class="cls-12" d="M1097.71,1016.33l-.42,0,.43-1.53c.21-.75.35-1.22.41-1.39a1.56,1.56,0,0,1,.22-.43,1.07,1.07,0,0,1,.3-.3,1.4,1.4,0,0,1,.39-.19.87.87,0,0,1,.37-.06.29.29,0,0,1,.21.06.19.19,0,0,1,.07.16.19.19,0,0,1-.07.13.23.23,0,0,1-.17,0,1.8,1.8,0,0,1-.37-.06l-.14,0a.27.27,0,0,0-.17.06.54.54,0,0,0-.15.21c0,.11-.11.33-.2.66l-.23.89a2.17,2.17,0,0,1,.58-.45.88.88,0,0,1,.42-.11.35.35,0,0,1,.32.39.65.65,0,0,1-.33.53,1.65,1.65,0,0,1-1,.21,1.34,1.34,0,0,1,.34.23,1.57,1.57,0,0,1,.24.33,4.22,4.22,0,0,1,.3.69,2.49,2.49,0,0,0,.4.77.64.64,0,0,0,.43.2.41.41,0,0,0,.23-.05c.07,0,.1-.08.1-.12a.3.3,0,0,0,0-.11.74.74,0,0,1,0-.12.17.17,0,0,1,0-.12.15.15,0,0,1,.12,0,.16.16,0,0,1,.14.07.29.29,0,0,1,0,.17.48.48,0,0,1-.2.35.74.74,0,0,1-.5.14,1,1,0,0,1-.54-.18,1.56,1.56,0,0,1-.44-.52,9.56,9.56,0,0,1-.38-.92,4.26,4.26,0,0,0-.24-.51,1.07,1.07,0,0,0-.23-.26Zm.36-1.33a2.17,2.17,0,0,0,.61,0,.68.68,0,0,0,.35-.19.46.46,0,0,0,.11-.27.35.35,0,0,0-.05-.18.21.21,0,0,0-.14-.07c-.18,0-.46.18-.84.56Z"/><path class="cls-12" d="M1102,1014.3l.19,0-.3.68c-.12.27-.25.59-.37.95a2.26,2.26,0,0,0-.11.38c0,.05,0,.09.06.09s.08,0,.15,0a1.74,1.74,0,0,0,.37-.21l.07.12a5.28,5.28,0,0,1-.45.3,1.72,1.72,0,0,1-.37.14.76.76,0,0,1-.21,0,.16.16,0,0,1-.11-.05.12.12,0,0,1,0-.1.19.19,0,0,1,0-.11l.16-.37a2.53,2.53,0,0,1-.64.42.76.76,0,0,1-.39.08.29.29,0,0,1-.24-.15.63.63,0,0,1-.06-.42,1.54,1.54,0,0,1,.24-.64,2.46,2.46,0,0,1,.51-.6,1.85,1.85,0,0,1,.62-.37,1.44,1.44,0,0,1,.6,0l.18,0Zm-.4.38a1,1,0,0,0-.25-.06.66.66,0,0,0-.46.08,1.15,1.15,0,0,0-.42.45,1.74,1.74,0,0,0-.25.7.41.41,0,0,0,0,.28.19.19,0,0,0,.15.11.71.71,0,0,0,.45-.16,1.23,1.23,0,0,0,.4-.56Z"/><path class="cls-12" d="M1104.58,1015.47a1.47,1.47,0,0,1,.54-.24.82.82,0,0,1,.41,0,.37.37,0,0,1,.26.23.75.75,0,0,1,0,.49,2,2,0,0,1-.45.82,1.76,1.76,0,0,1-.69.51,1.07,1.07,0,0,1-.67.07.59.59,0,0,1-.36-.26.56.56,0,0,1,0-.42,3.1,3.1,0,0,1,.22-.51l.71-1.35a2.6,2.6,0,0,1,.51-.73,1.48,1.48,0,0,1,.59-.32,1.08,1.08,0,0,1,.59,0,.35.35,0,0,1,.22.11.16.16,0,0,1,0,.16.15.15,0,0,1-.1.12.27.27,0,0,1-.2,0l-.3-.13-.17-.07a.28.28,0,0,0-.26.09,2.67,2.67,0,0,0-.33.54Zm.59,0a.61.61,0,0,0-.36.08,1.52,1.52,0,0,0-.51.47,2.36,2.36,0,0,0-.38.76.41.41,0,0,0,0,.27.29.29,0,0,0,.19.16c.21.06.43,0,.67-.33a2.21,2.21,0,0,0,.5-.89.61.61,0,0,0,0-.38A.2.2,0,0,0,1105.17,1015.44Z"/><path class="cls-12" d="M1106.87,1017.47l.06.12a2.6,2.6,0,0,1-.64.26.86.86,0,0,1-.54,0,.17.17,0,0,1-.11-.11.25.25,0,0,1,0-.19,5.68,5.68,0,0,1,.47-.83l.7-1.07a5.07,5.07,0,0,1,.56-.76,1.3,1.3,0,0,1,1.34-.31.37.37,0,0,1,.17.12.22.22,0,0,1,0,.16.19.19,0,0,1-.12.11.24.24,0,0,1-.2,0,.8.8,0,0,1-.22-.1,1.46,1.46,0,0,0-.23-.1.3.3,0,0,0-.18,0,.65.65,0,0,0-.23.22l-.49.74-.65,1c-.33.52-.49.79-.5.81s0,.09,0,.11a.43.43,0,0,0,.19,0A3,3,0,0,0,1106.87,1017.47Z"/><path class="cls-12" d="M1107.52,1016.62l-.07-.13a2.11,2.11,0,0,1,.64-.22.91.91,0,0,1,.42,0,.24.24,0,0,1,.11.08.13.13,0,0,1,0,.12,4.34,4.34,0,0,1-.43.58,8.55,8.55,0,0,0-.73,1,.09.09,0,0,0,0,.07s0,0,0,0a1.48,1.48,0,0,0,.56-.15l.06.14a3.57,3.57,0,0,1-.7.22.76.76,0,0,1-.31,0,.23.23,0,0,1-.12-.12.23.23,0,0,1,0-.18,9.14,9.14,0,0,1,1-1.45.27.27,0,0,0,.06-.1,0,0,0,0,0,0-.07h-.14A2.37,2.37,0,0,0,1107.52,1016.62Zm1.74-1.32a.2.2,0,0,1,.11.11.18.18,0,0,1,0,.16.3.3,0,0,1-.16.17.26.26,0,0,1-.21,0,.23.23,0,0,1-.11-.11.25.25,0,0,1,0-.17.38.38,0,0,1,.16-.17A.28.28,0,0,1,1109.26,1015.3Z"/><circle class="cls-13" cx="1068.71" cy="1043" r="2.1"/><circle class="cls-14" cx="1068.71" cy="1043" r="1.78"/><path class="cls-15" d="M1069.65,1041.48a1.86,1.86,0,0,1,.28,1,1.79,1.79,0,0,1-1.79,1.78,1.74,1.74,0,0,1-.93-.26,1.78,1.78,0,1,0,2.44-2.48Z"/><path class="cls-16" d="M1067.24,1043.16a1.58,1.58,0,0,1,2.82-1,1.57,1.57,0,0,0-2.94.79,1.61,1.61,0,0,0,.33,1A1.6,1.6,0,0,1,1067.24,1043.16Z"/><path class="cls-17" d="M1068.86,1041.85v.23a.37.37,0,0,1,.22.09.54.54,0,0,1,.17.21l-.23.12a.29.29,0,0,0-.26-.18.24.24,0,0,0-.17.06.18.18,0,0,0-.07.15.24.24,0,0,0,0,.14l.22.12.23.12a.57.57,0,0,1,.14.11.47.47,0,0,1,.13.34.55.55,0,0,1-.12.35.54.54,0,0,1-.31.2v.24h-.2v-.23a.67.67,0,0,1-.35-.16.75.75,0,0,1-.18-.37l.26-.05a.53.53,0,0,0,.13.25.28.28,0,0,0,.21.07.28.28,0,0,0,.21-.08.25.25,0,0,0,.08-.21.21.21,0,0,0-.07-.18.44.44,0,0,0-.1-.08l-.18-.09a.91.91,0,0,1-.3-.19.44.44,0,0,1-.11-.3.37.37,0,0,1,0-.15.27.27,0,0,1,.07-.13.69.69,0,0,1,.13-.11.67.67,0,0,1,.17-.06v-.23Z"/><circle class="cls-13" cx="1125.33" cy="1043" r="2.1"/><circle class="cls-14" cx="1125.33" cy="1043" r="1.78"/><path class="cls-15" d="M1126.26,1041.48a1.78,1.78,0,0,1-1.5,2.74,1.74,1.74,0,0,1-.93-.26,1.78,1.78,0,1,0,2.43-2.48Z"/><path class="cls-16" d="M1123.86,1043.16a1.57,1.57,0,0,1,1.57-1.57,1.58,1.58,0,0,1,1.25.61,1.57,1.57,0,0,0-2.94.79,1.55,1.55,0,0,0,.33,1A1.51,1.51,0,0,1,1123.86,1043.16Z"/><path class="cls-17" d="M1125.48,1041.85v.23a.4.4,0,0,1,.22.09.53.53,0,0,1,.16.21l-.22.12a.31.31,0,0,0-.27-.18.25.25,0,0,0-.17.06.2.2,0,0,0-.06.15.19.19,0,0,0,0,.14l.22.12.23.12.14.11a.51.51,0,0,1,.13.34.55.55,0,0,1-.12.35.54.54,0,0,1-.31.2v.24h-.21v-.23a.64.64,0,0,1-.34-.16.75.75,0,0,1-.18-.37l.25-.05a.64.64,0,0,0,.13.25.28.28,0,0,0,.21.07.28.28,0,0,0,.3-.29.21.21,0,0,0-.07-.18.35.35,0,0,0-.11-.08l-.18-.09a.84.84,0,0,1-.29-.19.4.4,0,0,1-.11-.3.68.68,0,0,1,0-.15.41.41,0,0,1,.08-.13.63.63,0,0,1,.12-.11.85.85,0,0,1,.17-.06v-.23Z"/><path class="cls-12" d="M1084.93,1070.22l.44-1.26.19-.51a2.22,2.22,0,0,1,.38-.59,2.7,2.7,0,0,1,.62-.46,1.6,1.6,0,0,0-.67-.13,1.39,1.39,0,0,0-.59.13.71.71,0,0,0-.31.31.36.36,0,0,0,0,.21.44.44,0,0,1,0,.21.15.15,0,0,1-.08.08.14.14,0,0,1-.11,0,.21.21,0,0,1-.1-.15.51.51,0,0,1,0-.31,1,1,0,0,1,.49-.49,1.51,1.51,0,0,1,.83-.14,3.72,3.72,0,0,1,.81.21l.28.1a3.5,3.5,0,0,0-.81.64,3.41,3.41,0,0,0-.51.86,8,8,0,0,0-.31.83l.72-.31.6-.24a6.75,6.75,0,0,0,1.3-.64,1.2,1.2,0,0,0,.39-.44.75.75,0,0,0,.06-.31,1.16,1.16,0,0,1,0-.16.18.18,0,0,1,.11-.1.14.14,0,0,1,.14,0c.07,0,.1.08.12.17a.67.67,0,0,1-.07.33,1.27,1.27,0,0,1-.28.4,2.58,2.58,0,0,1-.62.43c-.29.15-.71.34-1.27.56S1085.54,1069.94,1084.93,1070.22Z"/><path class="cls-12" d="M1089,1070.85l0,.15a1.87,1.87,0,0,1-1.31.24.35.35,0,0,1-.25-.22.79.79,0,0,1,0-.44,2.21,2.21,0,0,1,.72-1,1.13,1.13,0,0,1,1.12-.33.45.45,0,0,1,.26.19.36.36,0,0,1,0,.29.64.64,0,0,1-.23.3,1.49,1.49,0,0,1-.54.2l-.75.09a1.59,1.59,0,0,0-.12.27.4.4,0,0,0,0,.28.23.23,0,0,0,.14.13.71.71,0,0,0,.26,0A3.55,3.55,0,0,0,1089,1070.85Zm-.8-.68a2.32,2.32,0,0,0,.78-.2.44.44,0,0,0,.24-.25.23.23,0,0,0,0-.2.2.2,0,0,0-.13-.12.31.31,0,0,0-.21,0,.77.77,0,0,0-.31.22A3.23,3.23,0,0,0,1088.15,1070.17Z"/><path class="cls-12" d="M1089.84,1070.07l-.06-.13a2.26,2.26,0,0,1,.6-.28.87.87,0,0,1,.4,0s.07,0,.08,0a.1.1,0,0,1,0,.07,1,1,0,0,1-.09.2l-.17.34a1.87,1.87,0,0,1,1.14-.44.15.15,0,0,1,.12.08.17.17,0,0,1,0,.16,1.38,1.38,0,0,1-.16.37,2.41,2.41,0,0,1,.63-.33.78.78,0,0,1,.39-.06.26.26,0,0,1,.16.1.32.32,0,0,1,0,.22,1.08,1.08,0,0,1-.07.18l-.35.64a4.93,4.93,0,0,0-.4.79c0,.06,0,.09.06.1a.14.14,0,0,0,.11,0,2.54,2.54,0,0,0,.39-.21l.06.12-.25.14a2.32,2.32,0,0,1-.35.18.52.52,0,0,1-.29,0,.16.16,0,0,1-.12-.11.35.35,0,0,1,0-.23,1.6,1.6,0,0,1,.11-.3c0-.11.18-.35.39-.73a3.16,3.16,0,0,0,.26-.52c0-.07,0-.1-.06-.11a.34.34,0,0,0-.19,0,1.43,1.43,0,0,0-.47.26,1.35,1.35,0,0,0-.29.41c-.22.41-.39.76-.51,1l-.38-.09.76-1.56a1,1,0,0,0,.09-.2.08.08,0,0,0,0-.07.09.09,0,0,0-.06,0,.44.44,0,0,0-.25.07,1.66,1.66,0,0,0-.47.28,2,2,0,0,0-.32.51l-.41.87-.39-.09.59-1.22.27-.58s0-.07,0-.07S1090.1,1069.91,1089.84,1070.07Z"/><path class="cls-12" d="M1095.79,1070.33a.66.66,0,0,1,.38.12.31.31,0,0,1,.12.23.24.24,0,0,1-.07.13.18.18,0,0,1-.14,0,.12.12,0,0,1-.09,0s-.06-.06-.1-.12a.37.37,0,0,0-.26-.2.26.26,0,0,0-.2.07.27.27,0,0,0-.11.21.54.54,0,0,0,0,.22,1.7,1.7,0,0,0,.26.37,1,1,0,0,1,.26.64.67.67,0,0,1-.29.49.92.92,0,0,1-.66.17.71.71,0,0,1-.48-.17.4.4,0,0,1-.13-.34.21.21,0,0,1,.07-.15.22.22,0,0,1,.15-.06.23.23,0,0,1,.13.06.17.17,0,0,1,0,.13.2.2,0,0,1,0,.07.13.13,0,0,1,0,.06.2.2,0,0,0,.07.16.31.31,0,0,0,.2.08.53.53,0,0,0,.26,0,.45.45,0,0,0,.19-.14.37.37,0,0,0,.08-.2.39.39,0,0,0,0-.21,2.94,2.94,0,0,0-.25-.34,1,1,0,0,1-.24-.64.65.65,0,0,1,.25-.46A.8.8,0,0,1,1095.79,1070.33Z"/><path class="cls-12" d="M1096.83,1072.68h-.41l.35-1.51c.18-.75.29-1.21.34-1.39a1.72,1.72,0,0,1,.2-.43,1.32,1.32,0,0,1,.28-.3,1.41,1.41,0,0,1,.38-.21,1,1,0,0,1,.35-.07.38.38,0,0,1,.21,0,.18.18,0,0,1,.07.15.16.16,0,0,1-.06.13.21.21,0,0,1-.16.06,2.21,2.21,0,0,1-.37,0l-.14,0a.21.21,0,0,0-.16.07.51.51,0,0,0-.13.21,5.65,5.65,0,0,0-.17.66l-.19.88a2.15,2.15,0,0,1,.55-.47.83.83,0,0,1,.41-.12.29.29,0,0,1,.23.1.35.35,0,0,1,.1.26.66.66,0,0,1-.3.53,1.67,1.67,0,0,1-.94.26,1.33,1.33,0,0,1,.34.2,1.35,1.35,0,0,1,.25.31,4.08,4.08,0,0,1,.32.66,2.17,2.17,0,0,0,.44.74.59.59,0,0,0,.42.18.41.41,0,0,0,.23-.06.14.14,0,0,0,.08-.12.65.65,0,0,0,0-.11.3.3,0,0,1,0-.12.12.12,0,0,1,0-.11.16.16,0,0,1,.12,0,.16.16,0,0,1,.13.06.21.21,0,0,1,.06.16.47.47,0,0,1-.18.36.73.73,0,0,1-.48.16,1,1,0,0,1-.54-.15,1.55,1.55,0,0,1-.45-.49,8.7,8.7,0,0,1-.42-.88,2.42,2.42,0,0,0-.25-.49,1.07,1.07,0,0,0-.23-.25Zm.29-1.32a2,2,0,0,0,.6-.07.64.64,0,0,0,.33-.2.44.44,0,0,0,.1-.28.25.25,0,0,0-.06-.17.18.18,0,0,0-.14-.06c-.17,0-.44.2-.79.59Z"/><path class="cls-12" d="M1100.76,1070.06l.17,0-.14.72c0,.28-.1.61-.14,1a2,2,0,0,0,0,.38c0,.06,0,.09.07.08a.25.25,0,0,0,.14-.07,1.58,1.58,0,0,0,.3-.28l.1.09a3.88,3.88,0,0,1-.37.39,1.46,1.46,0,0,1-.32.21.76.76,0,0,1-.2.06.18.18,0,0,1-.11,0,.13.13,0,0,1,0-.1.23.23,0,0,1,0-.11l.07-.39a2.26,2.26,0,0,1-.52.55.73.73,0,0,1-.35.16.29.29,0,0,1-.26-.09.6.6,0,0,1-.15-.39,1.63,1.63,0,0,1,.09-.66,2.27,2.27,0,0,1,.36-.69,1.57,1.57,0,0,1,.51-.49,1.55,1.55,0,0,1,.56-.16h.18Zm-.31.46h-.25a.73.73,0,0,0-.42.18,1.37,1.37,0,0,0-.3.52,1.86,1.86,0,0,0-.09.73.42.42,0,0,0,.09.26.24.24,0,0,0,.18.07.68.68,0,0,0,.38-.25,1.22,1.22,0,0,0,.27-.62Z"/><path class="cls-12" d="M1103.39,1070.08a1.9,1.9,0,0,1,.35-.45.91.91,0,0,1,.35-.2.38.38,0,0,1,.34.08.83.83,0,0,1,.22.43,2,2,0,0,1,0,.92,1.68,1.68,0,0,1-.36.76,1,1,0,0,1-.55.36.52.52,0,0,1-.67-.4,2.42,2.42,0,0,1,0-.53l0-1.5a2.56,2.56,0,0,1,.11-.87,1.23,1.23,0,0,1,.36-.54,1.13,1.13,0,0,1,.5-.29.47.47,0,0,1,.24,0,.18.18,0,0,1,.11.13.17.17,0,0,1,0,.15.3.3,0,0,1-.17.09,1.12,1.12,0,0,1-.32,0l-.17,0a.28.28,0,0,0-.19.2,3.67,3.67,0,0,0,0,.61Zm.5-.29a.59.59,0,0,0-.28.24,1.4,1.4,0,0,0-.21.64,2.1,2.1,0,0,0,0,.83.32.32,0,0,0,.15.22.3.3,0,0,0,.24,0q.3-.07.42-.6a2.12,2.12,0,0,0,0-1,.58.58,0,0,0-.17-.32A.23.23,0,0,0,1103.89,1069.79Z"/><path class="cls-12" d="M1106.36,1070.47l.12.06a2.77,2.77,0,0,1-.36.58.93.93,0,0,1-.41.33.16.16,0,0,1-.15,0,.25.25,0,0,1-.11-.15,4.82,4.82,0,0,1-.1-.93l-.07-1.25a5.48,5.48,0,0,1,0-.93,1.33,1.33,0,0,1,.31-.64,1.36,1.36,0,0,1,.58-.38.34.34,0,0,1,.2,0,.17.17,0,0,1,.1.12.18.18,0,0,1,0,.16.32.32,0,0,1-.17.11l-.23,0-.24,0a.27.27,0,0,0-.15.09.58.58,0,0,0-.06.31c0,.15,0,.44.05.87l.07,1.19c0,.59.06.9.07.93s0,.08.09.06a.35.35,0,0,0,.15-.12A4,4,0,0,0,1106.36,1070.47Z"/><path class="cls-12" d="M1106.36,1069.37l-.14,0a2.35,2.35,0,0,1,.32-.58.87.87,0,0,1,.33-.25.23.23,0,0,1,.14,0,.15.15,0,0,1,.08.08s0,.29.06.71a8.06,8.06,0,0,0,.12,1.21l0,.06h0c.06,0,.16-.18.31-.48l.14.06a3.48,3.48,0,0,1-.37.62.62.62,0,0,1-.23.19.2.2,0,0,1-.17,0,.27.27,0,0,1-.11-.14,8.66,8.66,0,0,1-.18-1.73.36.36,0,0,0,0-.11s0,0-.06,0a.29.29,0,0,0-.11.09A3.68,3.68,0,0,0,1106.36,1069.37Zm.4-2.09a.22.22,0,0,1,.16,0,.2.2,0,0,1,.1.12.31.31,0,0,1,0,.23.22.22,0,0,1-.15.15.16.16,0,0,1-.15,0,.2.2,0,0,1-.1-.12.31.31,0,0,1,0-.23A.23.23,0,0,1,1106.76,1067.28Z"/></g><g id="sections"><g id="server-side"><rect class="cls-18" x="48.73" y="168" width="1036.54" height="552" rx="12" ry="12"/><text class="cls-19" transform="translate(65.33 224.88)">Server-side</text></g><g id="client-side"><rect class="cls-20" x="49" y="743" width="1036" height="232.5" rx="12" ry="12"/><text class="cls-19" transform="translate(57.41 963.86)">Client-side</text></g><text class="cls-21" transform="translate(519.24 314.14)">sending/receiving data</text><text class="cls-22" transform="translate(523.11 373.14)">sending/fetching data</text><text class="cls-23" transform="translate(275.11 96.8)">Project structure</text></g><g id="front-end"><g class="cls-24"><rect class="cls-25" x="225" y="588.59" width="690" height="283.82" rx="16.3" ry="16.3"/><rect class="cls-26" x="225" y="588.59" width="690" height="283.82" rx="16.3" ry="16.3"/></g><text class="cls-27" transform="translate(756.32 743.06)">Front-end</text><rect class="cls-28" x="417" y="596.85" width="306" height="112.29"/><text class="cls-29" transform="translate(509.9 683.57)">Website</text><text class="cls-30" transform="translate(571.7 621.72)">ww<tspan class="cls-31" x="17.2" y="0">w</tspan></text><path class="cls-32" d="M596.18,610.76H566a16.22,16.22,0,0,0-29.33,2.61.88.88,0,0,0,0,.15,16.26,16.26,0,0,0,0,10.67l0,.15A16.22,16.22,0,0,0,566,627h30.18a8.1,8.1,0,1,0,0-16.19Zm-30.88,12H558c.11-1.26.16-2.56.16-3.86s0-2.59-.16-3.85h7.33a13.79,13.79,0,0,1,0,7.71Zm-.91-10H557.7a22.12,22.12,0,0,0-2.12-7.23A13.91,13.91,0,0,1,564.39,612.67Zm-8.59,6.18c0,1.33,0,2.62-.17,3.86h-7.37c-.11-1.24-.17-2.53-.17-3.86s.06-2.61.17-3.85h7.37C555.75,616.24,555.8,617.53,555.8,618.85Zm-6.3-10.28c.83-2.5,1.83-3.62,2.45-3.62s1.61,1.12,2.44,3.62a24.26,24.26,0,0,1,1,4.1h-6.81A25.26,25.26,0,0,1,549.5,608.57Zm-1.19-3.13a22.62,22.62,0,0,0-2.12,7.23H539.5A13.91,13.91,0,0,1,548.31,605.44ZM538,618.85a13.62,13.62,0,0,1,.55-3.85h7.33c-.1,1.26-.16,2.56-.16,3.85s.06,2.6.16,3.86h-7.33A13.64,13.64,0,0,1,538,618.85ZM539.5,625h6.69a22.62,22.62,0,0,0,2.12,7.23A13.91,13.91,0,0,1,539.5,625Zm14.89,4.1c-.83,2.5-1.83,3.62-2.44,3.62s-1.62-1.12-2.45-3.62a26.35,26.35,0,0,1-1-4.1h6.81A24.26,24.26,0,0,1,554.39,629.14Zm1.19,3.13A22.12,22.12,0,0,0,557.7,625h6.69A13.91,13.91,0,0,1,555.58,632.27Zm40.6-7.22H566.94c.1-.23.19-.47.28-.71a.88.88,0,0,0,0-.15,16.26,16.26,0,0,0,0-10.67.88.88,0,0,0,0-.15c-.09-.24-.18-.48-.28-.71h29.24a6.2,6.2,0,1,1,0,12.39Z"/><polygon class="cls-32" points="589.4 635.37 574.86 629.24 580.44 644 582.89 639.62 587.07 643.95 589.11 641.99 584.93 637.65 589.4 635.37"/><rect class="cls-33" x="417" y="750.85" width="306" height="112.29"/><text class="cls-34" transform="translate(447.69 832.33)">Java-application</text><g id="_Group_" data-name="&lt;Group&gt;"><g id="_Group_2" data-name="&lt;Group&gt;"><path id="_Compound_Path_" data-name="&lt;Compound Path&gt;" class="cls-35" d="M591.4,785.32h-43a.18.18,0,0,1-.17-.17V760a.18.18,0,0,1,.17-.17h43a.17.17,0,0,1,.17.17v25.14A.17.17,0,0,1,591.4,785.32ZM548.55,785h42.69v-24.8H548.55Z"/></g><g id="_Group_3" data-name="&lt;Group&gt;"><path id="_Compound_Path_2" data-name="&lt;Compound Path&gt;" class="cls-35" d="M593.83,796.14h-8.49a.17.17,0,0,1-.17-.17v-1.48a1.43,1.43,0,0,1,.62-1.12,2.1,2.1,0,0,1,1.24-.45h5.11a2.1,2.1,0,0,1,1.24.45,1.43,1.43,0,0,1,.62,1.12V796A.18.18,0,0,1,593.83,796.14Zm-8.33-.34h8.16v-1.31c0-.67-.83-1.23-1.52-1.23H587c-.69,0-1.53.56-1.53,1.23Z"/></g><g id="_Group_4" data-name="&lt;Group&gt;"><path id="_Compound_Path_3" data-name="&lt;Compound Path&gt;" class="cls-35" d="M593.1,789.29H546.69a.69.69,0,0,1-.69-.69V758.37a.69.69,0,0,1,.69-.69H593.1a.68.68,0,0,1,.68.69V788.6A.68.68,0,0,1,593.1,789.29ZM546.69,758a.35.35,0,0,0-.35.35V788.6a.35.35,0,0,0,.35.36H593.1a.36.36,0,0,0,.35-.36V758.37a.35.35,0,0,0-.35-.35Z"/></g><g id="_Group_5" data-name="&lt;Group&gt;"><path id="_Compound_Path_4" data-name="&lt;Compound Path&gt;" class="cls-35" d="M575.49,792.62h-11.2a.17.17,0,0,1-.17-.17v-3.33a.17.17,0,0,1,.17-.16h11.2a.16.16,0,0,1,.17.16v3.33A.16.16,0,0,1,575.49,792.62Zm-11-.34h10.87v-3H564.46Z"/></g><g id="_Group_6" data-name="&lt;Group&gt;"><path id="_Compound_Path_5" data-name="&lt;Compound Path&gt;" class="cls-35" d="M577.84,796.14h-15.9a.78.78,0,0,1-.77-.78v-.15a.77.77,0,0,1,.77-.77h15.9a.76.76,0,0,1,.77.77v.15A.77.77,0,0,1,577.84,796.14Zm-15.9-1.37a.44.44,0,0,0-.43.44v.15a.43.43,0,0,0,.43.44h15.9a.44.44,0,0,0,.44-.44v-.15a.44.44,0,0,0-.44-.44Z"/></g><g id="_Group_7" data-name="&lt;Group&gt;"><path id="_Path_" data-name="&lt;Path&gt;" class="cls-35" d="M589.58,793.15a.16.16,0,0,1-.16-.16,1.77,1.77,0,0,0-1.77-1.77h-4.74a2.1,2.1,0,0,1-2.1-2.1.17.17,0,0,1,.34,0,1.76,1.76,0,0,0,1.76,1.77h4.74a2.1,2.1,0,0,1,2.1,2.1A.16.16,0,0,1,589.58,793.15Z"/></g><g id="_Group_8" data-name="&lt;Group&gt;"><path id="_Compound_Path_6" data-name="&lt;Compound Path&gt;" class="cls-35" d="M577.84,794.77h-15.9a.16.16,0,0,1-.15-.1.17.17,0,0,1,0-.19l2.35-2.15a.16.16,0,0,1,.11-.05h11.2a.17.17,0,0,1,.12.05l2.33,2.14a.17.17,0,0,1,.07.13A.17.17,0,0,1,577.84,794.77Zm-15.46-.33h15l-2-1.82H564.36Z"/></g><g id="_Group_9" data-name="&lt;Group&gt;"><path id="_Compound_Path_7" data-name="&lt;Compound Path&gt;" class="cls-35" d="M571.35,787.73h-2.91a.63.63,0,1,1,0-1.25h2.91a.63.63,0,0,1,0,1.25Zm-2.91-.91a.29.29,0,1,0,0,.58h2.91a.29.29,0,0,0,0-.58Z"/></g></g></g><g id="relations"><polyline class="cls-36" points="417 797 325 797 325 481"/><polyline class="cls-36" points="723 812.33 954 812.33 954 481 883 481 883 389"/><line class="cls-37" x1="771.99" y1="326.62" x2="429" y2="326.62"/><line class="cls-38" x1="771.99" y1="345.62" x2="429" y2="345.62"/><line class="cls-25" x1="549.19" y1="596.85" x2="411" y2="479"/><rect class="cls-32" x="479.1" y="447.12" width="2" height="181.62" transform="translate(-240.73 554.17) rotate(-49.54)"/><line class="cls-39" x1="522.02" y1="595.85" x2="385" y2="479"/><polygon class="cls-40" points="523.56 595.85 520.48 595.85 384.35 479.76 385.65 478.24 523.56 595.85"/><polyline class="cls-38" points="298.34 479.37 298.34 822 416 822"/><path class="cls-41" d="M931.15,695.88c-1.66.46-3.52,1.27-3.52,3.48a2.71,2.71,0,0,0,2.79,2.9c1.82,0,2.69-1.21,3.73-3.36s2.3-4.55,5.13-4.55,5,2.36,5,5.94a8.09,8.09,0,0,1-.42,2.64,7.37,7.37,0,0,1-.55,1.3,38.21,38.21,0,0,1-4.09.72l-.23-.79c1.63-.44,4.32-1.72,4.32-4.41a2.8,2.8,0,0,0-3-3c-1.86,0-2.74,1.4-3.8,3.41-.91,1.83-2.19,4.34-5,4.34-2.57,0-4.7-2.08-4.7-5.5a11.07,11.07,0,0,1,.62-3.41c.91-.11,2-.23,3.65-.46Z"/><path class="cls-41" d="M941.55,682.56a6,6,0,0,1,2.59,4.41c0,3.22-2.59,5.11-5.45,5.11a6.41,6.41,0,0,1-4.4-1.67,5.49,5.49,0,0,1-2-3.93v0a4.07,4.07,0,0,1,4-4c.49,0,.72.14.82.62s.34,3.74.44,6.76c3.33-.05,4.73-2,4.73-3.81a4.33,4.33,0,0,0-1.28-3Zm-8.26,4.53c0,1.13,1,2.25,3.15,2.62,0-1.39,0-2.78-.06-4.24,0-.45-.15-.61-.49-.61a2.38,2.38,0,0,0-2.6,2.21Z"/><path class="cls-41" d="M943.84,673.5h-.69c-.16-1.49-.37-1.67-2.18-1.67h-4.18c-1.79,0-2.87.72-2.87,2.32a4.66,4.66,0,0,0,1.27,2.75h5.94c1.76,0,1.86-.14,2-1.66h.69V681h-.69c-.21-1.74-.33-1.88-2.06-1.88h-5.16c-1.67,0-1.78.18-2,1.55h-.66a17.3,17.3,0,0,0-1-3.81h2.07c-.39-.53-.79-1.09-1.23-1.76a3.86,3.86,0,0,1-.76-2.16c0-2.08,1.46-3.4,4-3.4h4.8c1.76,0,1.83-.15,2-1.67h.69Z"/><path class="cls-41" d="M943.17,653.66a34.46,34.46,0,0,0,1,4.25h-1.66l.92,1.55a4.61,4.61,0,0,1,.74,2,5.23,5.23,0,0,1-5.47,5c-3.57,0-6.35-3.2-6.35-6.84a5.88,5.88,0,0,1,.28-1.69H929c-1.67,0-1.74.18-1.86,2h-.67a26.38,26.38,0,0,0-.89-4.29H940.8c1.4,0,1.53-.19,1.63-1.24l.07-.74Zm-8.53,4.25a3.23,3.23,0,0,0-1.33,2.66c0,1.1.93,3.28,4.66,3.28,3.07,0,4.48-2,4.48-3.56a4.52,4.52,0,0,0-.81-2.38Z"/><path class="cls-41" d="M943.84,652.57h-.69c-.16-1.64-.32-1.83-2.11-1.83h-5.17c-1.61,0-1.74.09-2,1.64h-.62a18.8,18.8,0,0,0-1-3.91H941c1.78,0,1.92-.17,2.11-1.84h.69Zm-15.09-1.37a1.44,1.44,0,0,1-1.44-1.44,1.42,1.42,0,0,1,2.83,0A1.44,1.44,0,0,1,928.75,651.2Z"/><path class="cls-41" d="M943.84,637.91h-.69c-.16-1.5-.37-1.67-2.18-1.67h-4.18c-1.79,0-2.87.72-2.87,2.32a4.66,4.66,0,0,0,1.27,2.74h5.94c1.76,0,1.86-.14,2-1.65h.69v5.8h-.69c-.21-1.74-.33-1.88-2.06-1.88h-5.16c-1.67,0-1.78.17-2,1.55h-.66a17.39,17.39,0,0,0-1-3.82h2.07c-.39-.53-.79-1.09-1.23-1.76a3.86,3.86,0,0,1-.76-2.16c0-2.07,1.46-3.39,4-3.39h4.8c1.76,0,1.83-.16,2-1.67h.69Z"/><path class="cls-41" d="M932.83,619.49a3.44,3.44,0,0,1,1.32,1.17l-.07,1.48a3.61,3.61,0,0,1,2.25-.74c2.74,0,4.1,2.38,4.1,4.68a9.52,9.52,0,0,1-.13,1.37,1.47,1.47,0,0,0,1,.67c.49,0,1-.48,1-1.66,0-.91,0-1.81,0-2.7,0-1.58.49-3.82,3.08-3.82s5.16,3.13,5.16,6.63c0,3-1.68,4.55-3.14,4.59a1.92,1.92,0,0,1-1.48-.69c-.54-.58-1.21-1.49-1.7-2.11a3.32,3.32,0,0,1-1.41,1.95,1.71,1.71,0,0,1-1.14.3,5.76,5.76,0,0,0-1.55-2.32,3.71,3.71,0,0,1-3.45,2.31c-3,0-4.27-2.69-4.27-4.77v0a5.53,5.53,0,0,1,.65-2.53c-.07-1.34-.22-2.69-.35-3.66Zm11.39,6.11a3.31,3.31,0,0,0,.53,2.25,2.7,2.7,0,0,0,1.9,1.11c1.35,0,2.5-1.44,2.5-3.46,0-2.36-1.23-3.64-2.8-3.64a1.84,1.84,0,0,0-1.83,1.21,7.43,7.43,0,0,0-.3,2.5Zm-11.09.48c0,1,1,2.07,3,2.07s3.41-.93,3.41-2.35c0-1.13-1-2.09-3-2.09s-3.41.89-3.41,2.35Z"/><path class="cls-41" d="M943.17,598.73a34.46,34.46,0,0,0,1,4.25h-1.66l.92,1.55a4.57,4.57,0,0,1,.74,2,5.23,5.23,0,0,1-5.47,5c-3.57,0-6.35-3.2-6.35-6.84a5.88,5.88,0,0,1,.28-1.69H929c-1.67,0-1.74.18-1.86,2h-.67a26.38,26.38,0,0,0-.89-4.29H940.8c1.4,0,1.53-.19,1.63-1.25l.07-.73ZM934.64,603a3.23,3.23,0,0,0-1.33,2.65c0,1.11.93,3.29,4.66,3.29,3.07,0,4.48-1.95,4.48-3.57a4.52,4.52,0,0,0-.81-2.37Z"/><path class="cls-41" d="M944.14,589.18a2.1,2.1,0,0,1-.51,1.34,2.35,2.35,0,0,1-1.09.63c.66,1.06,1.6,2.29,1.6,3a3.18,3.18,0,0,1-3.17,3.24c-1.28,0-2.05-.7-2.51-2.13a16.8,16.8,0,0,0-1.67-4h-.46c-1.84,0-2.83.84-2.83,2.09a1.51,1.51,0,0,0,.46,1.11,4,4,0,0,0,1.74.79.81.81,0,0,1,.63.84,1.3,1.3,0,0,1-1.14,1.2c-.39,0-.7-.34-1.06-.85a12.07,12.07,0,0,1-1.81-4,3.58,3.58,0,0,1,.65-2.18,3.89,3.89,0,0,1,3.26-1.24h4.62c1.14,0,1.53-.46,1.53-.94a2.17,2.17,0,0,0-.28-.93l.68-.26Zm-6.46,2.06c.27.53.76,1.58,1,2.13.44,1,.95,1.58,1.89,1.58a1.84,1.84,0,0,0,2-1.8,3.12,3.12,0,0,0-.85-1.91Z"/><path class="cls-41" d="M943.78,581.08a2.42,2.42,0,0,1,.36,1.11c0,1.74-1,2.7-3.06,2.7h-7.39v1.78l-.29.12-.78-.72v-1.18h-1.86L929,583l.07-.35h3.58v-2.92a.75.75,0,0,1,1.07.17v2.75h6.49c2.07,0,2.43-.9,2.43-1.55a3.65,3.65,0,0,0-.44-1.58l.7-.23Z"/><path class="cls-41" d="M944.14,569.76a2.07,2.07,0,0,1-.51,1.33,2.37,2.37,0,0,1-1.09.64c.66,1,1.6,2.28,1.6,3A3.18,3.18,0,0,1,941,578c-1.28,0-2.05-.7-2.51-2.12a17.1,17.1,0,0,0-1.67-4.05h-.46c-1.84,0-2.83.85-2.83,2.1A1.49,1.49,0,0,0,934,575a3.82,3.82,0,0,0,1.74.79.82.82,0,0,1,.63.85,1.29,1.29,0,0,1-1.14,1.19c-.39,0-.7-.33-1.06-.84a12.17,12.17,0,0,1-1.81-4,3.56,3.56,0,0,1,.65-2.18,3.86,3.86,0,0,1,3.26-1.25h4.62c1.14,0,1.53-.45,1.53-.93a2.13,2.13,0,0,0-.28-.93l.68-.26Zm-6.46,2c.27.53.76,1.59,1,2.13.44,1,.95,1.58,1.89,1.58a1.84,1.84,0,0,0,2-1.79,3.14,3.14,0,0,0-.85-1.92Z"/><path class="cls-41" d="M960.54,666.21a4.72,4.72,0,0,0,2.92.9,4.89,4.89,0,0,0,2.91-.9v.49a4.63,4.63,0,0,1-2.91.94,4.72,4.72,0,0,1-2.92-.94Z"/><path class="cls-41" d="M961.07,664.84a.37.37,0,0,1,.38.4.37.37,0,0,1-.38.38.39.39,0,0,1-.4-.39A.38.38,0,0,1,961.07,664.84Zm4.43.7H962v-.63h3.46Z"/><path class="cls-41" d="M963,663.86c-.36,0-.65,0-.94,0v-.55l.57,0h0a1.29,1.29,0,0,1-.65-1.15c0-.48.29-1.22,1.47-1.22h2.07v.63h-2c-.56,0-1,.2-1,.8a.9.9,0,0,0,.65.84.84.84,0,0,0,.29,0h2.08v.62Z"/><path class="cls-41" d="M964.86,660a1.7,1.7,0,0,0,.25-.83c0-.46-.23-.68-.52-.68s-.46.18-.63.65-.57.91-1,.91a1.07,1.07,0,0,1-1-1.19,1.77,1.77,0,0,1,.21-.85l.46.15a1.43,1.43,0,0,0-.2.71c0,.38.22.58.48.58s.41-.2.58-.66.53-.9,1-.9,1,.47,1,1.29a2.05,2.05,0,0,1-.24,1Z"/><path class="cls-41" d="M963.89,656.71a1.11,1.11,0,0,0,1.2-1.19,2.26,2.26,0,0,0-.18-1l.45-.11a2.78,2.78,0,0,1,.22,1.15,1.62,1.62,0,0,1-1.75,1.71,1.68,1.68,0,0,1-1.87-1.63,1.47,1.47,0,0,1,1.63-1.43l.3,0Zm-.46-1.85a.89.89,0,0,0-1,.87,1,1,0,0,0,1,1Z"/><path class="cls-41" d="M963.12,653.47c-.41,0-.76,0-1.08,0V653l.68,0v0a1,1,0,0,1-.76-1,1,1,0,0,1,0-.18h.6a.66.66,0,0,0,0,.21.89.89,0,0,0,.81.85,2.53,2.53,0,0,0,.3,0h1.84v.62Z"/><path class="cls-41" d="M961,650.2h1v-.9h.48v.9h1.87c.43,0,.67-.12.67-.47a1.52,1.52,0,0,0,0-.37l.47,0a1.55,1.55,0,0,1,.09.56.89.89,0,0,1-.27.68,1.28,1.28,0,0,1-.9.24h-1.89v.54H962v-.54h-.83Z"/><path class="cls-41" d="M961.07,647.89a.37.37,0,0,1,.38.4.37.37,0,0,1-.38.38.39.39,0,0,1-.4-.4A.37.37,0,0,1,961.07,647.89Zm4.43.7H962V648h3.46Z"/><path class="cls-41" d="M963,646.91c-.36,0-.65,0-.94,0v-.56l.57,0v0a1.26,1.26,0,0,1-.65-1.14c0-.48.29-1.23,1.47-1.23h2.07v.63h-2c-.56,0-1,.21-1,.81a.9.9,0,0,0,.65.84.85.85,0,0,0,.29,0h2.08v.63Z"/><path class="cls-41" d="M962,640c.25,0,.53,0,1,0h2a2,2,0,0,1,1.58.5,1.8,1.8,0,0,1,.42,1.26,2.21,2.21,0,0,1-.29,1.15l-.48-.16a1.87,1.87,0,0,0,.28-1c0-.65-.34-1.12-1.21-1.12h-.39a1.26,1.26,0,0,1,.58,1.11,1.55,1.55,0,0,1-1.69,1.47,1.67,1.67,0,0,1-1.84-1.56,1.16,1.16,0,0,1,.6-1.08v0l-.52,0Zm1.37.66a.89.89,0,0,0-.29,0,.91.91,0,0,0-.67.88c0,.6.51,1,1.31,1s1.25-.34,1.25-1a.91.91,0,0,0-.64-.87,1,1,0,0,0-.34,0Z"/><path class="cls-41" d="M960.42,637.42v-.63h2.16a1.15,1.15,0,0,1-.44-.46,1.23,1.23,0,0,1-.18-.64c0-.46.29-1.21,1.48-1.21h2.06v.63h-2c-.55,0-1,.21-1,.8a.92.92,0,0,0,.63.85.91.91,0,0,0,.3,0h2.09v.63Z"/><path class="cls-41" d="M961.07,632.75a.37.37,0,0,1,.38.4.37.37,0,0,1-.38.38.39.39,0,0,1-.4-.4A.37.37,0,0,1,961.07,632.75Zm4.43.7H962v-.63h3.46Z"/><path class="cls-41" d="M962,628.79c.25,0,.53,0,1,0h2a2,2,0,0,1,1.58.49,1.82,1.82,0,0,1,.42,1.26,2.21,2.21,0,0,1-.29,1.15l-.48-.16a1.84,1.84,0,0,0,.28-1c0-.65-.34-1.12-1.21-1.12h-.39v0a1.23,1.23,0,0,1,.58,1.1A1.54,1.54,0,0,1,963.8,632a1.66,1.66,0,0,1-1.84-1.56,1.16,1.16,0,0,1,.6-1.08h0l-.52,0Zm1.37.65a1.29,1.29,0,0,0-.29,0,.92.92,0,0,0-.67.88c0,.61.51,1,1.31,1s1.25-.35,1.25-1a.91.91,0,0,0-.64-.87,1,1,0,0,0-.34,0Z"/><path class="cls-41" d="M960.42,627.77v-.63h2.16a1.15,1.15,0,0,1-.44-.46A1.23,1.23,0,0,1,962,626c0-.46.29-1.21,1.48-1.21h2.06v.63h-2c-.55,0-1,.21-1,.8a.92.92,0,0,0,.63.85.91.91,0,0,0,.3,0h2.09v.63Z"/><path class="cls-41" d="M963.33,622.34h.47v1.76h-.47Z"/><path class="cls-41" d="M964.86,621.69a1.7,1.7,0,0,0,.25-.84c0-.45-.23-.67-.52-.67s-.46.18-.63.65-.57.91-1,.91a1.07,1.07,0,0,1-1-1.19,1.84,1.84,0,0,1,.21-.86l.46.16a1.43,1.43,0,0,0-.2.71c0,.37.22.58.48.58s.41-.21.58-.66c.23-.6.53-.91,1-.91s1,.48,1,1.3a2,2,0,0,1-.24,1Z"/><path class="cls-41" d="M965.37,616.29a2.26,2.26,0,0,1,.21,1,1.65,1.65,0,0,1-1.77,1.72,1.76,1.76,0,0,1-1.84-1.86,2,2,0,0,1,.18-.87l.48.14a1.55,1.55,0,0,0-.16.73,1.2,1.2,0,0,0,1.31,1.23,1.19,1.19,0,0,0,1.29-1.21,1.79,1.79,0,0,0-.17-.77Z"/><path class="cls-41" d="M963.74,612.46a1.7,1.7,0,0,1,1.84,1.73,1.64,1.64,0,0,1-1.78,1.66,1.69,1.69,0,0,1-1.84-1.72A1.64,1.64,0,0,1,963.74,612.46Zm0,2.75c.76,0,1.33-.43,1.33-1.05s-.57-1-1.35-1c-.58,0-1.33.29-1.33,1S963.12,615.21,963.78,615.21Z"/><path class="cls-41" d="M963.12,611.67c-.41,0-.76,0-1.08,0v-.55l.68,0v0a1,1,0,0,1-.76-1,1,1,0,0,1,0-.18h.6a.66.66,0,0,0,0,.21.89.89,0,0,0,.81.85,2.53,2.53,0,0,0,.3,0h1.84v.62Z"/><path class="cls-41" d="M963.89,609.05a1.11,1.11,0,0,0,1.2-1.19,2.3,2.3,0,0,0-.18-1l.45-.11a2.87,2.87,0,0,1,.22,1.16,1.61,1.61,0,0,1-1.75,1.7A1.68,1.68,0,0,1,962,608a1.47,1.47,0,0,1,1.63-1.44,1.87,1.87,0,0,1,.3,0Zm-.46-1.85a.9.9,0,0,0-1,.88,1,1,0,0,0,1,1Z"/><path class="cls-41" d="M966.37,606.19a4.84,4.84,0,0,0-2.93-.9,4.74,4.74,0,0,0-2.9.9v-.48a4.52,4.52,0,0,1,2.91-.94,4.64,4.64,0,0,1,2.92.94Z"/><path class="cls-32" d="M467.21,487.7a25.73,25.73,0,0,1,3.81,2.74c2,1.7,2.94,3.15,3.15,4.72a4.75,4.75,0,0,1-1.2,3.69,5,5,0,0,1-5.84,1.35l-.05.07c.78,1.32.57,2.91-.37,4.69a30.57,30.57,0,0,0-2.26,4.89l-1.91-1.64a24.6,24.6,0,0,1,2-4.25c1.27-2.34,1.14-3.74-.49-5.24l-1.75-1.49L457,503.44l-1.85-1.58Zm-3.74,8.12,1.9,1.62c2,1.69,4.16,1.68,5.56,0,1.59-1.85.94-3.81-1-5.5a10.35,10.35,0,0,0-2-1.39Z"/><path class="cls-32" d="M471.74,507.75c-2.13,2.56-1.4,5,.47,6.59a9,9,0,0,0,3.31,1.91l-.83,1.61a11.09,11.09,0,0,1-4-2.29c-3.17-2.71-3.28-6.42-.63-9.52s6.58-4,9.58-1.43c3.37,2.88,1.73,6.6.11,8.49a7,7,0,0,1-.81.82Zm6.63,3.35c1-1.18,2.12-3.46,0-5.27-1.9-1.61-4.22-.58-5.48.59Z"/><path class="cls-32" d="M485.63,525.19l0,0a4.83,4.83,0,0,1-4.93-1c-2.4-2.05-2.58-5.81.1-8.94,3.29-3.85,7.24-3.43,9.41-1.57a4.47,4.47,0,0,1,1.64,4.5l0,0,1.39-1.49,1.77,1.51c-.79.83-1.57,1.71-2.48,2.77l-10,11.69-1.87-1.6Zm3.88-4.54a4.11,4.11,0,0,0,.59-.86,3.6,3.6,0,0,0-.87-4.42c-1.93-1.66-4.5-1-6.49,1.3-1.74,2.05-2.29,4.67-.23,6.44a3.67,3.67,0,0,0,4.43.24,3.88,3.88,0,0,0,.91-.76Z"/><path class="cls-32" d="M500.25,535.58c-.91,1.06-1.69,2-2.32,2.88L496.27,537l1.33-1.77,0,0a5.1,5.1,0,0,1-5-1c-1.62-1.39-2.79-3.93.3-7.55l5.15-6,1.87,1.6L495,528c-1.68,2-2.21,3.79-.51,5.24a3.58,3.58,0,0,0,3.93.41,3.71,3.71,0,0,0,1-.81l5.4-6.33,1.87,1.61Z"/><path class="cls-32" d="M506.11,537.13c-2.12,2.56-1.39,5,.48,6.59a9,9,0,0,0,3.31,1.91l-.83,1.61a11,11,0,0,1-4-2.29c-3.18-2.71-3.29-6.42-.63-9.52s6.58-4,9.58-1.43c3.36,2.88,1.73,6.6.11,8.49a9,9,0,0,1-.81.82Zm6.64,3.35c1-1.18,2.11-3.46,0-5.27-1.89-1.61-4.21-.58-5.47.59Z"/><path class="cls-32" d="M513,548a6.54,6.54,0,0,0,1.83,2.86c1.37,1.16,2.59,1,3.32.18s.65-1.84-.3-3.53c-1.29-2.25-1.29-4-.23-5.25,1.42-1.66,3.92-1.88,6.13,0a6.67,6.67,0,0,1,2,2.8l-1.63,1a5.31,5.31,0,0,0-1.6-2.4c-1.11-.94-2.27-.83-2.92-.06s-.44,1.76.46,3.41c1.21,2.21,1.36,3.89.05,5.42-1.55,1.81-4,1.89-6.49-.2a7.77,7.77,0,0,1-2.29-3.18Z"/><path class="cls-32" d="M533.64,546l-2.53,3,2.68,2.29-1.22,1.43-2.68-2.3L525.14,556c-1.09,1.28-1.34,2.31-.3,3.2a5.54,5.54,0,0,0,1.19.8l-1.11,1.48a6.12,6.12,0,0,1-1.88-1.16,3.44,3.44,0,0,1-1.35-2.52,5,5,0,0,1,1.57-3.3l4.8-5.62-1.6-1.36,1.22-1.43,1.6,1.36,2.11-2.47Z"/><path class="cls-32" d="M528.48,561.25a6.39,6.39,0,0,0,1.83,2.85c1.36,1.17,2.58,1,3.31.18s.65-1.84-.3-3.53c-1.29-2.24-1.28-4-.23-5.24,1.42-1.66,3.92-1.88,6.14,0a6.86,6.86,0,0,1,2,2.8l-1.64,1a5.23,5.23,0,0,0-1.6-2.4c-1.1-.95-2.27-.84-2.92-.07s-.44,1.76.47,3.42c1.2,2.21,1.35,3.89,0,5.42-1.54,1.81-4,1.88-6.49-.21a7.74,7.74,0,0,1-2.29-3.18Z"/><path class="cls-40" d="M384.61,493.1a25.91,25.91,0,0,1,3.79,2.76c2,1.7,2.93,3.16,3.13,4.74a4.71,4.71,0,0,1-1.22,3.68,5,5,0,0,1-5.84,1.32l-.06.06c.77,1.34.55,2.92-.39,4.7a30.06,30.06,0,0,0-2.28,4.87l-1.91-1.65a24.24,24.24,0,0,1,2-4.23c1.28-2.34,1.16-3.74-.46-5.25l-1.74-1.5-5.34,6.19-1.85-1.6Zm-3.78,8.1,1.89,1.63c2,1.7,4.15,1.7,5.56.07,1.59-1.85,1-3.8-1-5.51a9.81,9.81,0,0,0-2-1.4Z"/><path class="cls-40" d="M389,513.17c-2.14,2.55-1.42,5,.44,6.59a8.9,8.9,0,0,0,3.3,1.93l-.84,1.61a11.11,11.11,0,0,1-4-2.31c-3.15-2.73-3.25-6.44-.57-9.53s6.6-4,9.58-1.38c3.35,2.9,1.7,6.61.07,8.5a8.47,8.47,0,0,1-.82.81Zm6.62,3.38c1.05-1.16,2.13-3.45,0-5.26-1.88-1.63-4.21-.6-5.48.56Z"/><path class="cls-40" d="M395.86,524.1a6.51,6.51,0,0,0,1.82,2.87c1.36,1.17,2.58,1,3.31.19s.66-1.83-.28-3.53c-1.27-2.25-1.26-4-.2-5.25,1.43-1.65,3.93-1.85,6.14,0a6.87,6.87,0,0,1,2,2.81l-1.64,1a5.26,5.26,0,0,0-1.58-2.41c-1.11-.95-2.27-.85-2.93-.08s-.45,1.76.45,3.42c1.19,2.21,1.34,3.89,0,5.42-1.56,1.8-4.05,1.86-6.49-.24a7.86,7.86,0,0,1-2.28-3.19Z"/><path class="cls-40" d="M408.83,526.57c1.13-1.32,2-2.41,2.81-3.42l1.67,1.44-1.43,1.83,0,0a5.31,5.31,0,0,1,5.36,1.16c2.48,2.14,2.53,5.85-.16,9-3.18,3.69-7,3.57-9.42,1.49a4.76,4.76,0,0,1-1.76-4.34l-.05,0-4.81,5.57-1.84-1.59Zm-.52,4.32a5.67,5.67,0,0,0-.57.84,3.79,3.79,0,0,0,.91,4.6c2,1.7,4.5,1.08,6.54-1.27,1.77-2.06,2.21-4.75.24-6.45a3.94,3.94,0,0,0-4.81-.13,3.8,3.8,0,0,0-.79.66Z"/><path class="cls-40" d="M428.7,546.69c-3.27,3.8-7.33,3.18-9.81,1-2.77-2.4-3.16-6.28-.36-9.52,3-3.44,7-3.51,9.79-1.06S431.41,543.56,428.7,546.69Zm-8.23-6.92c-1.94,2.25-2.11,5.06-.29,6.63s4.56,1,6.56-1.29c1.5-1.74,2.54-4.69.33-6.59S422.16,537.82,420.47,539.77Z"/><path class="cls-40" d="M433,546.46c.92-1.06,1.65-2,2.31-2.85L437,545l-1.36,1.78,0,0a5,5,0,0,1,5.06,1c1.42,1.23,2.89,4-.15,7.5l-5.29,6.12-1.86-1.61,5.1-5.91c1.43-1.66,2-3.56.25-5.08a3.51,3.51,0,0,0-4.15-.26,3.76,3.76,0,0,0-.88.76l-5.32,6.17-1.87-1.61Z"/><path class="cls-40" d="M439.7,562a6.51,6.51,0,0,0,1.82,2.87c1.36,1.17,2.58,1,3.31.19s.66-1.83-.28-3.53c-1.27-2.25-1.26-4-.2-5.25,1.43-1.65,3.93-1.85,6.14,0a6.87,6.87,0,0,1,2,2.81l-1.64,1a5.21,5.21,0,0,0-1.58-2.41c-1.11-.95-2.27-.85-2.93-.08s-.45,1.76.45,3.42c1.19,2.21,1.34,3.89,0,5.42-1.56,1.8-4,1.86-6.49-.24A7.86,7.86,0,0,1,438,563Z"/><path class="cls-40" d="M451.88,567.45c-2.14,2.56-1.43,5,.44,6.6a8.77,8.77,0,0,0,3.3,1.92l-.84,1.61a11,11,0,0,1-4-2.31c-3.16-2.72-3.25-6.43-.58-9.52s6.6-4,9.59-1.38c3.35,2.89,1.69,6.61.06,8.49a9,9,0,0,1-.81.82Zm6.62,3.39c1-1.17,2.13-3.45,0-5.26-1.89-1.63-4.21-.61-5.48.56Z"/><path class="cls-40" d="M458.71,578.39a6.48,6.48,0,0,0,1.82,2.86c1.35,1.17,2.58,1,3.31.2s.66-1.84-.28-3.54c-1.28-2.24-1.27-4-.21-5.24,1.43-1.65,3.94-1.86,6.14.05a6.62,6.62,0,0,1,2,2.81l-1.63,1a5.28,5.28,0,0,0-1.59-2.4c-1.1-1-2.26-.85-2.92-.09s-.45,1.76.45,3.43c1.19,2.21,1.33,3.89,0,5.41-1.55,1.81-4,1.87-6.48-.24a7.65,7.65,0,0,1-2.28-3.18Z"/><text class="cls-22" transform="translate(197.89 541.5)">Responses</text><text class="cls-42" transform="translate(329.22 790.62)">Requests</text></g><g id="back-end"><rect class="cls-43" x="771.99" y="290" width="222" height="99"/><text class="cls-44" transform="translate(812.7 344.34)">Database<tspan class="cls-45"><tspan x="33.7" y="28.8">(mysql)</tspan></tspan></text><g id="_Group_10" data-name="&lt;Group&gt;"><path class="cls-46" d="M887.73,312.07l-.41-.91c1.07-.49,1.68-1.07,1.68-1.61a.85.85,0,0,0-.06-.31l-.34-.8.86.11a16,16,0,0,0,2.3.11l.4,0h.21l.46,0,.29,0,.19,0a11.43,11.43,0,0,0,1.38-.26l.31-.09.55-.18.23-.1.12-.05.12-.06a2.36,2.36,0,0,0,.39-.22l.28-.19.28.19a1.69,1.69,0,0,1,0,3.11l-.41.24-.09.08-.27.08-.22.1a5.58,5.58,0,0,1-.69.23,2.75,2.75,0,0,1-.34.1,12.21,12.21,0,0,1-1.41.27l-.28,0-.23,0-.53,0-.26,0h-.88a15.23,15.23,0,0,1-2.87-.26Q888.12,311.89,887.73,312.07Zm1.77-1.24a15.72,15.72,0,0,0,1.85.11l1,0,.46,0,.48-.06a10.72,10.72,0,0,0,1.38-.26l.3-.08a5.22,5.22,0,0,0,.56-.19l.24-.1.34-.16.29-.17c.37-.24.57-.5.57-.72a.81.81,0,0,0-.33-.53l-.2.1-.23.11-.11.05-.21.08-.63.21-.34.1a12.83,12.83,0,0,1-1.42.27l-.3,0-.29,0-.47,0h-.25l-.44,0c-.54,0-1.18,0-1.77-.05A2,2,0,0,1,889.5,310.83Z"/><path class="cls-46" d="M891.35,307.39a15.88,15.88,0,0,1-2-.12l-.62-.08.22-.59a.75.75,0,0,0,0-.26,1.41,1.41,0,0,0-.64-1l-.21.11-.46-.89a4,4,0,0,0,.77-.51l.46-.41.18.33a14.71,14.71,0,0,0,2.25.16l.82,0c.33,0,.66,0,1-.08l.24,0a10.4,10.4,0,0,0,1.93-.44l.25-.09.24-.1a3.54,3.54,0,0,0,.39-.19l.13-.07.37.36-.26-.43.28-.19.28.19a1.86,1.86,0,0,1,1,1.54,1.89,1.89,0,0,1-1,1.55,4.68,4.68,0,0,1-.5.28l-.19.09-.11.05-.27.11-.62.21-.34.09a12,12,0,0,1-1.42.27,2.27,2.27,0,0,1-.3,0l-.2,0c-.25,0-.41,0-.58,0l-.23,0Zm.33-1,.17.49v-.5h.53l.46,0,.27,0,.21,0a13,13,0,0,0,1.38-.27l.31-.08c.19-.06.38-.12.55-.19a1.33,1.33,0,0,0,.24-.1l.23-.1.39-.22c.22-.15.58-.43.58-.72a.76.76,0,0,0-.31-.52h0a3.08,3.08,0,0,1-.48.23l-.24.1-.3.11a11.2,11.2,0,0,1-2.12.49l-.29,0c-.31,0-.66.07-1,.09h-.87a16.12,16.12,0,0,1-1.87-.1,2,2,0,0,1,.52,1.29q.64.06,1.35.06Z"/><path class="cls-46" d="M873.17,310.75l-.92-.14c-2.63-.4-4.26-1.4-4.26-2.63a1.93,1.93,0,0,1,1-1.55l.13-.08h.31l.25.15a3.77,3.77,0,0,0,.73.35l.32.11.16.06a12.57,12.57,0,0,0,2.43.44l.67.54-.43.38c-.57.37-.88.79-.88,1.17a.87.87,0,0,0,.09.36Zm-3.85-3.3a.81.81,0,0,0-.33.53c0,.49.94,1.14,2.7,1.52a2,2,0,0,1,.46-1.18,11.61,11.61,0,0,1-1.53-.34l-.22-.07-.14-.05-.19-.07A5.7,5.7,0,0,1,869.32,307.45Z"/><path class="cls-46" d="M872.7,306.09h-.27a11.62,11.62,0,0,1-1.35-.26l-.3-.08a2,2,0,0,1-.32-.1l0-.51-.16.47-.35-.13a4.58,4.58,0,0,1-.59-.27A2.77,2.77,0,0,1,869,305a1.88,1.88,0,0,1-1-1.55,1.91,1.91,0,0,1,1-1.56l.28-.18.27.18a4.68,4.68,0,0,0,.5.28,5.2,5.2,0,0,0,.79.29l.3.09.34.09.11,0,.68.14h.45l0,.44a1.5,1.5,0,0,0,.63.91h0l.25.18.12.08-.29.49.18.27a2.5,2.5,0,0,0-.74.69Zm-3.38-3.19a.83.83,0,0,0-.33.54c0,.22.2.47.58.72a2.48,2.48,0,0,0,.29.17,4.49,4.49,0,0,0,.49.22l.3.11.14,0,.25.08.29.07a7.88,7.88,0,0,0,.87.19,2.91,2.91,0,0,1,.3-.31,2.37,2.37,0,0,1-.72-1l-.4-.08v-.51l-.11.48-.39-.09-.36-.11a6.81,6.81,0,0,1-.89-.34A3.18,3.18,0,0,1,869.32,302.9Z"/><path class="cls-46" d="M874.1,301.78l-1.43-.18-.47-.07-.45-.07c-.3-.06-.58-.13-.85-.2a6,6,0,0,1-.68-.21l-.1,0-.33-.14-.33-.15-.26-.14c-1-.61-1.21-1.24-1.21-1.67,0-1.82,3.42-2.81,6.64-2.81a21.45,21.45,0,0,1,3.28.37l1.74.69-1.85.27c-3.36.49-5.11,1.64-5.11,2.54a1.12,1.12,0,0,0,.39.77Zm-3.67-1.72.06,0c.2.08.43.15.67.22l.59.14a1.82,1.82,0,0,1-.06-.46c0-1.16,1.14-2.18,3.11-2.86h-.17c-3.44,0-5.64,1.07-5.64,1.81,0,.24.25.52.68.78l-.16.49.25-.44-.13.5.23-.44.32.15Z"/><path class="cls-46" d="M888.48,310.66a14.25,14.25,0,0,0,2.87.28l1,0,.46,0,.48-.06a10.72,10.72,0,0,0,1.38-.26l.3-.08a5.22,5.22,0,0,0,.56-.19l.23-.1.12-.05.12-.06.11-.05a2.61,2.61,0,0,0,.28-.17l.28-.18.28.18a1.9,1.9,0,0,1,1,1.56c0,1.82-3.42,2.8-6.64,2.8a15.58,15.58,0,0,1-2.19-.15l-.82-.11.48-.67a.91.91,0,0,0,.18-.53c0-.49-.49-.91-.9-1.18m1.86,1.58c.45,0,.92.06,1.39.06,3.44,0,5.64-1.07,5.64-1.8a.81.81,0,0,0-.33-.54l-.11.06-.17.08-.18.09-.08,0-.22.08a4.08,4.08,0,0,1-.62.21,2.75,2.75,0,0,1-.34.1,12.21,12.21,0,0,1-1.41.27l-.28,0-.32,0-.44,0-.26,0h-.88c-.54,0-1.07,0-1.58-.08a1.89,1.89,0,0,1,.23.89A1.75,1.75,0,0,1,890,313.15Z"/><path class="cls-46" d="M891.35,309.67a16.55,16.55,0,0,1-2-.13l-.3,0-.11-.28a2.09,2.09,0,0,0-.83-.87l-.63-.42.63-.41a2,2,0,0,0,.85-.92l.14-.38.4,0a15.77,15.77,0,0,0,1.86.11h.33l.46,0h.23l.46,0,.29,0,.19,0a13,13,0,0,0,1.38-.27l.31-.08c.19-.06.38-.12.55-.19a1.33,1.33,0,0,0,.24-.1l.11,0,.12-.06.39-.22.28-.19.28.18a1.91,1.91,0,0,1,1,1.56,1.88,1.88,0,0,1-1,1.55,4,4,0,0,1-.51.29l-.28.13-.27.11-.63.21-.34.1a12.83,12.83,0,0,1-1.42.27l-.3,0-.19,0h-.1l-.47,0h-.25l-.43,0Zm-1.63-1.09a15.4,15.4,0,0,0,2,.08l.4,0h.21l.46,0,.27,0,.21,0a11.43,11.43,0,0,0,1.38-.26l.31-.09.55-.18.24-.1.23-.11a2.36,2.36,0,0,0,.39-.22c.22-.14.58-.42.58-.72a.79.79,0,0,0-.33-.54l-.19.1-.26.12-.1,0-.21.08-.62.21-.34.09a12,12,0,0,1-1.42.27,2.27,2.27,0,0,1-.3,0l-.29,0a3.89,3.89,0,0,1-.49,0l-.23,0h-.86c-.56,0-1.11,0-1.62-.08a3.39,3.39,0,0,1-.53.64A2.72,2.72,0,0,1,889.72,308.58Z"/><path class="cls-46" d="M891.35,305.14a16,16,0,0,1-2.65-.21l-.23,0-.32-.57.31-.27a1.31,1.31,0,0,0,.54-.91c0-.47-.48-.9-.88-1.17l-.61-.42.62-.41a1.75,1.75,0,0,0,.87-1.06l0-.39.38,0a15.35,15.35,0,0,1,1.92-.12c3.22,0,6.64,1,6.64,2.81a1.86,1.86,0,0,1-1,1.54l-.16.1-.16.09a3.08,3.08,0,0,1-.48.23l-.28.12-.26.09a11.2,11.2,0,0,1-2.12.49l-.29,0c-.31,0-.66.07-1,.09Zm-1.6-1.08a13.82,13.82,0,0,0,1.6.08l.82,0c.33,0,.66,0,1-.08l.24,0a10.4,10.4,0,0,0,1.93-.44l.25-.09.23-.09.4-.2.14-.08.36.37-.26-.43c.36-.24.56-.5.56-.71,0-.74-2.2-1.81-5.64-1.81-.49,0-1,0-1.46.07a2.5,2.5,0,0,1-.68,1,2.15,2.15,0,0,1,.79,1.58A1.79,1.79,0,0,1,889.75,304.06Z"/><path class="cls-46" d="M873.5,308.46h-.2a12.88,12.88,0,0,1-2.68-.48l-.22-.07-.14-.05-.19-.07a7,7,0,0,1-.87-.41l-.06,0h0l-.13-.09a1.69,1.69,0,0,1,0-3.1l.28-.18.27.18.3.17a4.49,4.49,0,0,0,.49.22l.3.11.14,0,.25.08.29.07a9.33,9.33,0,0,0,1.17.23l.76.11-.41.66a.86.86,0,0,0-.16.48c0,.49.49.92.9,1.19l.68.44Zm-4.06-2.11h0l.26.17a4.24,4.24,0,0,0,.71.33l.32.11.16.06a9.33,9.33,0,0,0,1,.25,1.94,1.94,0,0,1-.25-.93,1.47,1.47,0,0,1,0-.36c-.23-.05-.44-.09-.65-.15l-.3-.08a2,2,0,0,1-.32-.1l-.09,0-.4-.14a5.14,5.14,0,0,1-.58-.27l-.07,0a.83.83,0,0,0-.33.54C869,305.91,869.15,306.13,869.44,306.35Z"/><path class="cls-46" d="M872.76,303.8l-.65,0-.72-.14-.12,0-.36-.09-.31-.09a7.27,7.27,0,0,1-1-.36,5.08,5.08,0,0,1-.62-.34,1.68,1.68,0,0,1,0-3.09l.29-.2.28.2.1.07.1.06.14.07.26.12.23.1.1,0a5.13,5.13,0,0,0,.66.21,6.51,6.51,0,0,0,.79.19c.13,0,.26,0,.4.06l.45.07H873l.09.16.2.18.87.61-.6.41c-.4.27-.88.7-.88,1.17Zm-3.46-3.16a.82.82,0,0,0-.31.52c0,.22.21.48.58.73a5.4,5.4,0,0,0,.49.27c.24.1.5.2.79.29l.31.09.25.07.1,0,.24.05a2.41,2.41,0,0,1,.71-1.11l-.27,0a4.14,4.14,0,0,1-.45-.07c-.29-.06-.58-.12-.85-.2a5.65,5.65,0,0,1-.73-.23h0a2.39,2.39,0,0,1-.37-.15,2.22,2.22,0,0,1-.32-.15Z"/><path class="cls-46" d="M887.78,308.84l-.4-.91.31-.16.47.88-.24-.44.24.45h0C888,308.72,887.91,308.79,887.78,308.84Z"/><path class="cls-46" d="M887.4,309l-.36-.93.16-.07.42.9Z"/><path class="cls-46" d="M887,309.17l-.3-1,.14,0h0l.36.93-.09-.24.1.24Z"/><path class="cls-46" d="M884.33,306.62l-.15-1,.47-.08.19,1Z"/><path class="cls-46" d="M884.33,309.82l-.15-1,.46-.08.2,1A4.17,4.17,0,0,1,884.33,309.82Z"/><path class="cls-46" d="M884.33,313l-.15-1,.46-.08.2,1Z"/><path class="cls-46" d="M884.34,303.45l-.15-1,.45-.07.19,1Z"/><path class="cls-46" d="M883.89,303.52l-.14-1,.44-.07.17,1Z"/><path class="cls-46" d="M883.79,309.9l-.12-1,.47-.07.16,1-.51.07Z"/><path class="cls-46" d="M883.79,306.7l-.13-1,.45-.07.16,1Z"/><path class="cls-46" d="M883.22,306.77l-.1-1,.53-.06.14,1Z"/><path class="cls-46" d="M883.22,310l-.1-1c.18,0,.36,0,.53-.06l.14,1Z"/><path class="cls-46" d="M883.3,303.59l-.1-1,.39-.05.13,1Z"/><path class="cls-46" d="M883.21,313.17l-.09-1,.4-.05.13,1Z"/><path class="cls-46" d="M882.65,306.82l-.08-1,.48,0h.07l0,.5v.14l.05.36v-.13l0,.13Z"/><path class="cls-46" d="M882.65,310l-.08-1,.54,0h0l.1,1,0-.39.05.39Z"/><path class="cls-46" d="M882.83,313.21l-.08-1,.37,0,.11,1Z"/><path class="cls-46" d="M882.66,303.65l-.08-1h0l.5,0,.11,1-.53,0Z"/><path class="cls-46" d="M882.2,306.85l-.07-1,.43,0,.1,1-.33,0Z"/><polygon class="cls-46" points="882.2 310.05 882.13 309.06 882.56 309.02 882.66 310.02 882.2 310.05"/><path class="cls-46" d="M880.84,303.72l-.9,0h-.37l-.55,0-.53,0a5.11,5.11,0,0,1-.58-.07l0-.5-.07.49-.47-.07-.48-.09a6,6,0,0,1-.61-.12l-1-.27,0-.51-.16.48-.26-.09-.31-.11-.59-.24-.17-.08h-.07l-.1-.09-.2-.11a3.6,3.6,0,0,1-.37-.22l-.13-.09-.24-.18-.15-.12h0l-.16-.15a2.11,2.11,0,0,1-.68-1.48c0-1.65,2.28-3,6-3.53a21.89,21.89,0,0,1,3.19-.22c4.44,0,9.16,1.31,9.16,3.75a1.62,1.62,0,0,1,0,.22,2.61,2.61,0,0,1-1.31,1.77,3.5,3.5,0,0,1-.43.26l-.19.11-.11.05-.16.08,0,0L887,302l.35.66-.22.08-.31.11-.33.11c-.32.1-.67.19-1,.28l-.62.13-.49.08-.45.07-.17,0-.42,0-.16-.48.06.49-.54,0-.48,0h-.44Zm2.75-1.17.23.48-.07-.5.44-.07.45-.07.58-.12c.35-.08.67-.17,1-.27l.31-.1.24-.09h0l.32-.12.25-.1.31-.16.13-.07.37-.22a1.75,1.75,0,0,0,.87-1.06V300c0-1.3-3.35-2.75-8.16-2.75a21.14,21.14,0,0,0-3,.21c-3.36.49-5.11,1.64-5.11,2.54a1.07,1.07,0,0,0,.33.71l.07.06.22.21.14.1.14.1.31.19.13.07h0l.11.06h0l0,0,.18.08.53.22,1.57.47.56.11.47.08.44.07.12,0,.43.05h.11l.51,0,.47,0H880a16.83,16.83,0,0,0,1.74,0h.39l.48,0,.51,0Z"/><polygon class="cls-46" points="879.49 306.85 879.03 306.82 879.13 305.82 879.56 305.85 879.49 306.85"/><polygon class="cls-46" points="879.49 310.05 879.03 310.02 879.13 309.02 879.56 309.06 879.49 310.05"/><path class="cls-46" d="M879,306.82l-.58-.05.1-1,.56.05Z"/><path class="cls-46" d="M879,310l-.58,0,.11-1,.55,0Z"/><path class="cls-46" d="M879,303.65h0l-.54,0,.11-1,.49,0h0Z"/><path class="cls-46" d="M878.79,313.2h0l-.31,0,.09-1,.29,0Z"/><path class="cls-46" d="M878.47,306.77l-.57-.07.14-1,.53.06Z"/><path class="cls-46" d="M878.47,310l-.57-.07.14-1c.17,0,.35,0,.53.06Z"/><path class="cls-46" d="M878.48,313.17l-.43-.05h0l.13-1h0l.39.05Z"/><path class="cls-46" d="M878.4,303.59a3.86,3.86,0,0,1-.49-.06l.15-1,.43.05Z"/><path class="cls-46" d="M877.91,306.7l-.49-.07.16-1,.14,0,.31,0Z"/><path class="cls-46" d="M877.9,309.9l-.5-.07.15-1,.48.07Z"/><path class="cls-46" d="M877.8,303.52l-.47-.07.17-1,.43.07h0Z"/><path class="cls-46" d="M877.35,306.62l-.52-.09.19-1a4.37,4.37,0,0,0,.5.09Z"/><path class="cls-46" d="M877.35,309.82l-.52-.09.19-1,.5.09Z"/><path class="cls-46" d="M877.36,313l-.52-.1h0l.19-1,.5.09Z"/><path class="cls-46" d="M877.34,303.45l-.49-.09.18-1,.47.08Z"/><path class="cls-46" d="M875.61,309.45l-.28-.08.32-.95.13,0h0l.06,0Z"/><path class="cls-46" d="M880.84,316.5c-4.43,0-9.15-1.31-9.15-3.75a2.46,2.46,0,0,1,1.35-2l.29-.19.57.38.47.24a8.32,8.32,0,0,0,.8.31l.36.12.26.07.27.08c.35.09.65.15,1,.21l.5.09.65.09.4.05.29,0c.24,0,.49,0,.73.06l.38,0a23.19,23.19,0,0,0,2.77-.07l.38,0,.4-.05.65-.09.47-.08.64-.14c.33-.07.63-.15.92-.24l.32-.11a6.82,6.82,0,0,0,.79-.31,6.07,6.07,0,0,0,.8-.43l.27-.18.27.18a2.46,2.46,0,0,1,1.35,2,1.93,1.93,0,0,1-.36,1.11C888.55,315.44,885,316.5,880.84,316.5Zm-7.5-4.75a1.4,1.4,0,0,0-.65,1c0,1.3,3.35,2.75,8.15,2.75,4.24,0,7.22-1.11,8-2.22a.86.86,0,0,0,.19-.53,1.41,1.41,0,0,0-.64-1,6.19,6.19,0,0,1-.63.32,6.75,6.75,0,0,1-.9.35l-.34.11c-.3.1-.64.19-1,.27l-.67.14-.5.09c-.22,0-.46.07-.69.09l-.41.05-.4,0a25.41,25.41,0,0,1-2.89.07l-.37,0-.79-.06-.27,0-.47-.06-.68-.09-.53-.1c-.32-.06-.64-.13-1-.21l-.36-.09-.3-.09-.37-.12c-.31-.11-.62-.23-.89-.35l-.54-.27Z"/><path class="cls-46" d="M874.71,309.16a3.94,3.94,0,0,1-.63-.25l.4-.91.55.22Z"/><path class="cls-46" d="M874.12,308.93l-.24-.1.45-.9.11.05h0Z"/><path class="cls-46" d="M873.91,308.84a3.54,3.54,0,0,1-.39-.19l.48-.88.32.16Z"/><path class="cls-46" d="M873.56,308.67a1.71,1.71,0,0,1-.23-.13l.53-.85.14.08Z"/><path class="cls-46" d="M880.84,310.09l-.9,0L879,310l-.5,0-.63-.07-.5-.07-.13,0-.44-.07c-.43-.08-.85-.18-1.24-.29l-.23-.06c-.23-.07-.46-.14-.67-.22l-.6-.24-.21-.09-.34-.17-.18-.1a2.39,2.39,0,0,1-.34-.21,2.43,2.43,0,0,1-1.33-2,1.87,1.87,0,0,1,.31-1l.17-.23a3.49,3.49,0,0,1,.87-.76l.29-.19.68.43.3.15.31.14a10.85,10.85,0,0,0,1.18.4l.25.07c.36.09.66.16,1,.21a4.37,4.37,0,0,0,.5.09l.51.08.54.06.55.05.85.05c.73,0,1.46,0,2.17,0l.42,0,.56-.05.53-.06.46-.07.54-.09.63-.13.6-.16a8.11,8.11,0,0,0,1.18-.4l.26-.11.37-.18.41-.24.28-.18.27.18a2.44,2.44,0,0,1,1.35,2,1.77,1.77,0,0,1-.1.61,2.93,2.93,0,0,1-1.25,1.41,3.3,3.3,0,0,1-.5.3l-.35.17-.2.09-.2.09-.21.08-.21.08a13.17,13.17,0,0,1-2.15.56,3.71,3.71,0,0,1-.5.09c-.2,0-.36.06-.54.08l-.57.07-.57,0-.45,0C881.75,310.08,881.3,310.09,880.84,310.09Zm-8-4.16a.93.93,0,0,0-.11.41c0,.49.49.92.9,1.19l.26.16.15.08.32.16.12.05c.22.1.4.17.59.24a6.17,6.17,0,0,0,.61.19l.14,0c.44.12.83.21,1.24.29l.5.09.51.07.54.06,1.4.1c.73,0,1.47,0,2.17,0l.42,0,.55,0,.54-.07.49-.07.5-.09a12.12,12.12,0,0,0,2-.53l.16-.06.19-.07.19-.08.16-.07.33-.17.41-.24a2,2,0,0,0,.85-.92.65.65,0,0,0,0-.27,1.41,1.41,0,0,0-.64-1l-.21.11a4.09,4.09,0,0,1-.42.2l-.29.13a11.94,11.94,0,0,1-1.28.43l-.65.17-.68.14-.5.09-.54.08-.57.07-.57.05-.45,0c-.75,0-1.52,0-2.26,0l-.91-.05-.57-.05-.56-.07-.48-.07-.59-.1c-.32-.06-.64-.13-1-.21l-.36-.1a9.62,9.62,0,0,1-1.28-.44l-.29-.12-.42-.21.14-.49-.1.17,0,0-.06,0-.1.2-.09-.06a2.1,2.1,0,0,0-.49.51Z"/><path class="cls-46" d="M880.84,306.89l-.9,0-1.47-.1-.57-.07-.33-.05-.14,0-.6-.1c-.32-.06-.64-.13-1-.21l-.35-.1a9.29,9.29,0,0,1-1.29-.44l-.27-.11c-.16-.07-.31-.15-.44-.22l.14-.49-.24.44-.33-.2a3,3,0,0,1-1.29-1.42h-.11v-.5a.45.45,0,0,1,0-.14,2.48,2.48,0,0,1,1.31-2l.29-.19.28.19.33.21.13.07h0l.11.06h0l.18.09.53.21.28.1.16.06.18.06.27.07.33.09.34.08a5.78,5.78,0,0,0,.57.12l.47.08.44.07.12,0,.43.05h.11l.49,0,.49,0H880a16.83,16.83,0,0,0,1.74,0h.39l.48,0,.51,0,.5-.06.23.48-.07-.5.44-.07.45-.07.58-.12c.34-.08.67-.17,1-.27l.29-.09.28-.1.21-.08.09,0,.25-.1.31-.16.13-.07.37-.22.28-.19.27.19a2.47,2.47,0,0,1,1.32,2,2.21,2.21,0,0,1-.89,1.67,4.63,4.63,0,0,1-1,.64l-.42.21-.3.13a11.94,11.94,0,0,1-1.28.43l-.65.17-.68.14-.5.09-.53.08-.58.07-.57.05-.32,0h-.13C881.75,306.87,881.3,306.89,880.84,306.89Zm-6.94-2.37.11.05c.11.07.24.12.36.18l.25.11a10.85,10.85,0,0,0,1.18.4l.27.07a9.68,9.68,0,0,0,.95.21,4.37,4.37,0,0,0,.5.09l.2,0,.31,0,.54.06,1.4.1c.73,0,1.46,0,2.17,0l.91-.07.6-.07.46-.07.54-.09.63-.13.6-.16a8.11,8.11,0,0,0,1.18-.4l.26-.11.38-.18a4.18,4.18,0,0,0,.76-.51,1.36,1.36,0,0,0,.54-.92,1.42,1.42,0,0,0-.62-1l-.13.07-.19.11-.11.05-.16.08-.32.14h0a3.21,3.21,0,0,1-.33.12l-.31.12-.33.1c-.31.1-.67.2-1,.28l-.61.13-.48.08-.46.07-.17,0-.42,0-.16-.48.06.49-.54,0-.48,0h-.44c-.58,0-1.21,0-1.8,0h-.37l-.55,0-.53,0a5.11,5.11,0,0,1-.58-.07l0-.5-.07.49-.47-.07-.48-.09a6,6,0,0,1-.61-.12l-.37-.09-.31-.08-.37-.11-.16,0-.18-.07a2,2,0,0,1-.32-.11l-.57-.23-.17-.08h-.07l-.1-.09-.2-.11-.11-.06a1.42,1.42,0,0,0-.62,1v.09c0,.38.39.79,1,1.17Z"/><path class="cls-46" d="M880.84,313.29h-.9l-.37,0-.79-.06-.3,0-.44-.05-.68-.09-.52-.1q-.5-.09-1-.21l-.35-.09-.3-.09-.38-.12c-.32-.11-.62-.23-.89-.35l-.54-.27-.31-.19a3.2,3.2,0,0,1-1.24-1.28,1.85,1.85,0,0,1-.18-.78,2.41,2.41,0,0,1,1.29-2l.18-.11.19-.11.26.19.24.15.13.07.33.16.14.07.58.23a6.17,6.17,0,0,0,.61.19l.2.07c.38.1.77.19,1.18.27l.5.09.51.07.54.06a4.89,4.89,0,0,0,.55,0l.85.05c.73,0,1.47,0,2.17,0l.42,0a5.07,5.07,0,0,0,.56,0c.18,0,.36,0,.53-.06l.49-.07.5-.09a12.12,12.12,0,0,0,2-.53l.18-.07.17-.06.19-.08.16-.07.32-.16.42-.25.28-.19.28.19a3,3,0,0,1,1.2,1.33,1.81,1.81,0,0,1,.14.69c0,.68-.39,1.67-2.27,2.52-.27.12-.58.24-.9.35l-.34.11c-.3.1-.64.19-1,.27l-.67.14-.5.09c-.22,0-.46.07-.69.09l-.43.05-.38,0C882.18,313.27,881.51,313.29,880.84,313.29Zm-7-2.41.06,0,.47.24c.25.11.52.21.81.31l.91.27c.32.09.62.15.93.21l.49.09.66.09.39.05.3,0c.24,0,.49,0,.73.06l.38,0a23.19,23.19,0,0,0,2.77-.07l.38,0,.4-.05.65-.09.47-.08.64-.14c.32-.07.63-.15.92-.24l.32-.11a8.32,8.32,0,0,0,.8-.31c1.07-.49,1.68-1.07,1.68-1.61a.85.85,0,0,0-.06-.31,1.8,1.8,0,0,0-.58-.69l-.21.11c-.12.06-.24.13-.37.18l-.18.08-.2.09-.21.08-.21.08a13.17,13.17,0,0,1-2.15.56,3.71,3.71,0,0,1-.5.09c-.2,0-.37.06-.54.08l-.57.07-.57,0-.45,0c-.75,0-1.52.05-2.26,0L879,310l-.57,0-.56-.07-.5-.07-.13,0-.44-.07c-.43-.08-.85-.18-1.24-.29a1.45,1.45,0,0,1-.26-.07c-.2-.06-.43-.13-.64-.21a4.6,4.6,0,0,1-.61-.25l-.2-.08a4,4,0,0,1-.36-.18l-.18-.11a1.44,1.44,0,0,0-.65,1,.87.87,0,0,0,.09.36,2.33,2.33,0,0,0,.91.88Z"/><path class="cls-46" d="M873,302l-.16-.12.61-.79-.29.41.31-.39h0l.1.07Z"/><path class="cls-46" d="M872.9,301.89l-.23-.17.66-.75.12.09Z"/><path class="cls-46" d="M872.71,301.75a2.67,2.67,0,0,1-.35-.31l.73-.69.22.21Z"/><path class="cls-46" d="M880.84,316.5c-4.43,0-9.15-1.31-9.15-3.75a2.46,2.46,0,0,1,1.35-2l.29-.19.28.21-.23.5.21.32c-.41.27-.9.7-.9,1.18,0,1.3,3.35,2.75,8.15,2.75,4.24,0,7.22-1.11,8-2.22a.86.86,0,0,0,.19-.53,1.41,1.41,0,0,0-.64-1,6.19,6.19,0,0,1-.63.32,6.75,6.75,0,0,1-.9.35l-.32-.94a8.33,8.33,0,0,0,.8-.32,6.07,6.07,0,0,0,.8-.43l.27-.18.27.18a2.46,2.46,0,0,1,1.35,2,1.93,1.93,0,0,1-.36,1.11C888.55,315.44,885,316.5,880.84,316.5Z"/><path class="cls-46" d="M885.5,312.8l-.22-1c.33-.07.63-.15.92-.24l.3.95C886.19,312.63,885.85,312.72,885.5,312.8Z"/><path class="cls-46" d="M880,313.28l-.38,0,0-1h0l.34,0Z"/><path class="cls-46" d="M875.88,312.72l-.36-.09-.3-.09.3-1,.27.07.27.08-.06.5Z"/><path class="cls-46" d="M874.86,312.42c-.32-.11-.63-.23-.9-.35l-.54-.27-.17-.1.46-.89.19.11.47.24a8.32,8.32,0,0,0,.8.31Z"/><polygon class="cls-46" points="879.95 310.07 879.57 310.06 879.6 309.06 879.97 309.07 879.95 310.07"/><polygon class="cls-46" points="873.56 308.38 873.36 308.02 872.94 307.61 873.07 307.51 873.31 307.94 873.65 308.31 873.36 308.02 873.56 308.38"/><path class="cls-46" d="M880.84,313.29h-.9l-.37,0-.79-.06-.27,0-.47-.06-.68-.09-.53-.1c-.32-.06-.64-.13-1-.21l-.35-.09-.3-.09-.38-.12c-.32-.11-.62-.23-.89-.35l-.54-.27-.31-.19a3.2,3.2,0,0,1-1.24-1.28,1.85,1.85,0,0,1-.18-.78,2.46,2.46,0,0,1,1.33-2l.55.84c-.57.37-.88.79-.88,1.17a.87.87,0,0,0,.09.36,2.33,2.33,0,0,0,.91.88l.21.13.47.24c.25.11.52.21.81.31l.91.27c.32.09.62.15.93.21l.5.09.65.09.4.05.29,0c.24,0,.49,0,.73.06l.38,0a23.19,23.19,0,0,0,2.77-.07l.38,0,.4-.05.65-.09.47-.08.64-.14c.32-.07.63-.15.92-.24l.32-.11a8.32,8.32,0,0,0,.8-.31c1.07-.49,1.68-1.07,1.68-1.61a.85.85,0,0,0-.06-.31,2.14,2.14,0,0,0-.84-.88l.56-.83a3,3,0,0,1,1.2,1.33,1.81,1.81,0,0,1,.14.69c0,.68-.39,1.67-2.27,2.52-.27.12-.58.24-.9.35l-.34.11c-.3.1-.64.19-1,.27l-.67.14-.5.09c-.22,0-.46.07-.69.09l-.41.05-.4,0C882.18,313.27,881.51,313.29,880.84,313.29Z"/><path class="cls-46" d="M880.84,310.09l-.9,0L879,310l-.57,0-.56-.07-.5-.07-.13,0-.44-.07c-.43-.08-.85-.18-1.24-.29a1.45,1.45,0,0,1-.26-.07c-.2-.06-.43-.13-.64-.21a4.6,4.6,0,0,1-.61-.25l-.2-.08a4,4,0,0,1-.36-.18l-.19-.11a1.86,1.86,0,0,1-.31-.19,2.43,2.43,0,0,1-1.33-2,1.87,1.87,0,0,1,.31-1l.85.54a.86.86,0,0,0-.16.48c0,.49.49.92.9,1.19l.26.16.13.07.33.16.14.07.58.23a6.17,6.17,0,0,0,.61.19l.2.07c.38.1.77.19,1.18.27l.5.09.51.07.54.06a4.89,4.89,0,0,0,.55,0l.85.05c.73,0,1.47,0,2.17,0l.42,0a5.07,5.07,0,0,0,.56,0c.18,0,.36,0,.53-.06l.49-.07.5-.09a12.12,12.12,0,0,0,2-.53l.18-.07.17-.06.19-.08.16-.07.32-.16.42-.25a2,2,0,0,0,.85-.92.65.65,0,0,0,0-.27,1.41,1.41,0,0,0-.64-1l-.21.11a4.09,4.09,0,0,1-.42.2l-.29.13-.37-.93.25-.11.37-.18.41-.24.28-.18.27.18a2.44,2.44,0,0,1,1.35,2,1.77,1.77,0,0,1-.1.61,2.93,2.93,0,0,1-1.25,1.41,3.3,3.3,0,0,1-.5.3c-.12.06-.24.13-.37.18l-.18.08-.2.09-.21.08-.21.08a13.17,13.17,0,0,1-2.15.56,3.71,3.71,0,0,1-.5.09c-.2,0-.37.06-.54.08l-.57.07-.57,0-.45,0C881.75,310.08,881.3,310.09,880.84,310.09Z"/><path class="cls-46" d="M885.51,306.39l-.23-1,.6-.16.28,1Z"/><polygon class="cls-46" points="879.95 306.87 879.57 306.86 879.6 305.86 879.97 305.87 879.95 306.87"/><path class="cls-46" d="M875.88,306.32l-.36-.1.29-1,.24.07,0,.5Z"/><path class="cls-46" d="M874.24,305.78l-.29-.12-.42-.21.48-.88.3.15.31.14Z"/><polygon class="cls-46" points="873.43 305.4 873.27 305.31 873.7 304.4 873.91 304.52 873.43 305.4"/><path class="cls-46" d="M872.85,305.85l-.85-.53a3.55,3.55,0,0,1,1-1l.29-.19.28.2-.23.5.21.32A2.5,2.5,0,0,0,872.85,305.85Z"/><path class="cls-46" d="M888.06,302.34l-.43-.91.13-.07.52.85Z"/><polygon class="cls-46" points="887.78 302.47 887.31 301.59 887.5 301.5 887.95 302.39 887.78 302.47"/><path class="cls-46" d="M885.44,303.24l-.22-1a9.34,9.34,0,0,0,1-.26l.29-.09.28-.1.28-.11.2.45.33.38-.13.09a3.21,3.21,0,0,1-.33.12l-.31.12-.33.1C886.17,303.06,885.81,303.16,885.44,303.24Z"/><polygon class="cls-46" points="881.74 303.7 881.72 302.7 882.1 302.69 882.13 303.69 881.74 303.7"/><path class="cls-46" d="M880,303.7h-.38l0-1H880Z"/><path class="cls-46" d="M876.25,303.24l-.38-.09-.31-.08.28-1,.28.07.34.08Z"/><path class="cls-46" d="M875.54,303.06l-.35-.1.3-1,.3.09Z"/><path class="cls-46" d="M875.1,302.93l-.25-.09a2,2,0,0,1-.32-.11l.39-.92.26.09.16.06-.08.5Z"/><path class="cls-46" d="M874,302.5l-.28-.14.47-.88.22.11Z"/><path class="cls-46" d="M873.68,302.36l-.26-.14.5-.86.21.11Z"/><path class="cls-46" d="M871.7,303.28h0a.45.45,0,0,1,0-.14,2.48,2.48,0,0,1,1.31-2l.57.83c-.4.27-.88.7-.88,1.17v.14Z"/><path class="cls-46" d="M880.84,306.89l-.9,0-.91-.05-.57-.05-.56-.07-.48-.07-.59-.1c-.32-.06-.64-.13-1-.21l-.35-.1a9.29,9.29,0,0,1-1.29-.44l-.27-.11c-.16-.07-.31-.15-.44-.22l.14-.49-.24.44-.33-.2a2.63,2.63,0,0,1-1.4-1.87l1-.1c0,.38.39.79,1,1.17l.31.17c.11.07.24.12.36.18l.25.11a10.85,10.85,0,0,0,1.18.4l.27.07a9.68,9.68,0,0,0,.95.21,4.37,4.37,0,0,0,.5.09l.51.08.54.06.55.05.85.05c.73,0,1.46,0,2.17,0l.42,0,.56-.05.53-.06.46-.07.54-.09.63-.13.6-.16a8.11,8.11,0,0,0,1.18-.4l.26-.11.38-.18a4.18,4.18,0,0,0,.76-.51,1.36,1.36,0,0,0,.54-.92c0-.47-.48-.9-.88-1.17l.56-.83a2.47,2.47,0,0,1,1.32,2,2.21,2.21,0,0,1-.89,1.67,4.63,4.63,0,0,1-1,.64l-.42.21-.3.13a11.94,11.94,0,0,1-1.28.43l-.65.17-.68.14-.5.09-.54.08-.57.07-.57.05-.45,0C881.75,306.87,881.3,306.89,880.84,306.89Z"/><path class="cls-46" d="M879.84,303.72l-.9,0h-.37l-.55,0-.53,0a5.11,5.11,0,0,1-.58-.07l0-.5-.07.49-.47-.07-.48-.09a6,6,0,0,1-.61-.12l-1-.27,0-.51-.16.48-.26-.09-.31-.11-.59-.24-.17-.08h-.07l-.1-.09-.2-.11a3.6,3.6,0,0,1-.37-.22l.55-.83.3.18.13.07h0l.11.06h0l0,0,.18.08.53.22,1.57.47.56.11.47.08.44.07.12,0,.43.05h.11l.49,0,.49,0H879a16.83,16.83,0,0,0,1.74,0h.39l.48,0,.51,0,.5-.06.23.48-.07-.5.44-.07.45-.07.58-.12c.35-.08.67-.17,1-.27l.31-.1.24-.09h0l.32-.12.25-.1.31-.16.13-.07.37-.22a1.75,1.75,0,0,0,.87-1.06V300c0-1.3-3.35-2.75-8.16-2.75a21.14,21.14,0,0,0-3,.21c-3.36.49-5.11,1.64-5.11,2.54a1.12,1.12,0,0,0,.39.77l-.71.71a2.11,2.11,0,0,1-.68-1.48c0-1.65,2.28-3,6-3.53a21.89,21.89,0,0,1,3.19-.22c4.44,0,9.16,1.31,9.16,3.75a1.62,1.62,0,0,1,0,.22,2.61,2.61,0,0,1-1.31,1.77,3.5,3.5,0,0,1-.43.26l-.19.11-.11.05-.16.08,0,0v.17h-.4l-.22.08-.31.11-.33.11c-.32.1-.67.19-1,.28l-.62.13-.48.08-.46.07-.17,0-.42,0-.16-.48.06.49-.54,0-.48,0h-.44Z"/><path class="cls-46" d="M873,302l-.15-.11-.17-.13a2.53,2.53,0,0,1-.31-.28l.74-.67.2.18.27.19Z"/><path class="cls-46" d="M891.35,314.21a15.58,15.58,0,0,1-2.19-.15l.13-1a15.49,15.49,0,0,0,2.06.14c3.44,0,5.64-1.07,5.64-1.8a.81.81,0,0,0-.33-.54l-.16.08-.46-.88.38-.22.27-.18.28.18a1.9,1.9,0,0,1,1,1.56C898,313.23,894.57,314.21,891.35,314.21Z"/><polygon class="cls-46" points="896.3 311.05 895.79 310.18 896.02 310.07 896.48 310.96 896.3 311.05"/><path class="cls-46" d="M896,311.19l-.42-.91.06,0,.18-.07.42.91Z"/><path class="cls-46" d="M894.94,311.52l-.25-1,.3-.08.3.95Z"/><polygon class="cls-46" points="893.53 311.79 893.39 311.31 893.35 310.81 893.53 311.79"/><polygon class="cls-46" points="892.93 311.86 892.83 310.87 893.12 310.83 893.23 311.83 892.93 311.86"/><path class="cls-46" d="M892.23,311.92l-.06-1,.2,0,.1,1Z"/><polygon class="cls-46" points="891.66 311.93 891.66 310.93 891.9 310.93 891.9 311.93 891.66 311.93"/><path class="cls-46" d="M891.35,311.94a15.44,15.44,0,0,1-3.07-.3l.2-1a14.25,14.25,0,0,0,2.87.28l1,0,.46,0,.48-.06a10.72,10.72,0,0,0,1.38-.26l.3-.08a5.22,5.22,0,0,0,.56-.19l.23-.1.12-.05.12-.06.11-.05a2.61,2.61,0,0,0,.28-.17c.38-.24.58-.5.58-.72s-.36-.57-.58-.72l.56-.83a1.69,1.69,0,0,1,0,3.11l-.41.24-.17.08-.18.09-.08,0-.22.08a4.08,4.08,0,0,1-.62.21,2.75,2.75,0,0,1-.34.1,12.21,12.21,0,0,1-1.41.27l-.28,0-.23,0-.53,0-.26,0h-.88Z"/><polygon class="cls-46" points="896.29 308.78 895.79 307.91 896.02 307.8 896.48 308.69 896.29 308.78"/><path class="cls-46" d="M895.91,308.94l-.35-.94.23-.09.42.91Z"/><path class="cls-46" d="M894.94,309.25l-.25-1,.31-.09.29,1Z"/><polygon class="cls-46" points="893.53 309.52 893.39 309.04 893.35 308.54 893.53 309.52"/><rect class="cls-46" x="892.88" y="308.58" width="0.3" height="1" transform="translate(-28.44 99.52) rotate(-6.28)"/><path class="cls-46" d="M891.78,309.66l0-1,.4,0h.21l.1,1h-.26Z"/><path class="cls-46" d="M891.35,309.67a16.55,16.55,0,0,1-2-.13l.12-1a16,16,0,0,0,2.3.11l.4,0h.21l.46,0,.27,0,.21,0a11.43,11.43,0,0,0,1.38-.26l.31-.09.55-.18.23-.1.12-.05.12-.06a2.36,2.36,0,0,0,.39-.22c.22-.14.58-.42.58-.72s-.2-.48-.58-.72l.56-.84a1.91,1.91,0,0,1,1,1.56,1.88,1.88,0,0,1-1,1.55,4,4,0,0,1-.51.29l-.23.11-.11.05-.21.08-.63.21-.34.1a12.83,12.83,0,0,1-1.42.27l-.3,0-.19,0h-.1l-.47,0h-.25l-.44,0Z"/><path class="cls-46" d="M896.28,306.51l-.49-.88.23-.1.46.88Z"/><path class="cls-46" d="M895.9,306.67l-.34-.94.23-.1.41.91Z"/><path class="cls-46" d="M894.94,307l-.25-1,.31-.08.29.95Z"/><polygon class="cls-46" points="893.54 307.24 893.39 306.76 893.36 306.26 893.54 307.24"/><polygon class="cls-46" points="892.93 307.31 892.83 306.32 893.12 306.29 893.23 307.28 892.93 307.31"/><path class="cls-46" d="M891.87,307.38l-.11-1h.61l.1,1-.26,0Z"/><path class="cls-46" d="M891.35,307.39a15.88,15.88,0,0,1-2-.12l.13-1a15.77,15.77,0,0,0,1.86.11h.33l.46,0h.23l.46,0,.27,0,.21,0a13,13,0,0,0,1.38-.27l.31-.08c.19-.06.38-.12.55-.19a1.33,1.33,0,0,0,.24-.1l.11,0,.12-.06.39-.22c.22-.15.58-.43.58-.72s-.35-.57-.56-.71l.56-.83a1.86,1.86,0,0,1,1,1.54,1.89,1.89,0,0,1-1,1.55,4.68,4.68,0,0,1-.5.28l-.26.12-.1,0-.21.08-.62.21-.34.09a12,12,0,0,1-1.42.27,2.27,2.27,0,0,1-.3,0l-.2,0c-.25,0-.41,0-.58,0l-.23,0h-.86Z"/><path class="cls-46" d="M896.67,304.07l-.46-.89.11-.06.55.83Z"/><path class="cls-46" d="M895.65,304.51l-.34-.94h0l.24-.09.23-.09.41.91-.29.12Z"/><path class="cls-46" d="M893.24,305l-.08-1,.22,0,.16,1Z"/><polygon class="cls-46" points="891.83 305.13 891.76 304.14 892.17 304.12 892.22 305.12 891.83 305.13"/><path class="cls-46" d="M891.35,305.14a16,16,0,0,1-2.65-.21l.17-1a13.92,13.92,0,0,0,2.48.2l.82,0c.33,0,.66,0,1-.08l.24,0a10.4,10.4,0,0,0,1.93-.44l.25-.09.24-.1a3.54,3.54,0,0,0,.39-.19l.14-.08.36.37-.26-.43c.36-.24.56-.5.56-.71,0-.74-2.2-1.81-5.64-1.81a15.26,15.26,0,0,0-1.8.11l-.12-1a15.35,15.35,0,0,1,1.92-.12c3.22,0,6.64,1,6.64,2.81a1.86,1.86,0,0,1-1,1.54l-.16.1-.16.09a3.08,3.08,0,0,1-.48.23l-.24.1-.3.11a11.2,11.2,0,0,1-2.12.49l-.29,0c-.31,0-.66.07-1,.09h-.87Z"/><path class="cls-46" d="M872.25,310.61c-2.63-.4-4.26-1.4-4.26-2.63a1.93,1.93,0,0,1,1-1.55l.57.83c-.22.15-.58.44-.58.72,0,.55,1.19,1.31,3.41,1.64Z"/><path class="cls-46" d="M869.2,307.38l.25-.43-.29.41-.16-.11.58-.81.13.08Z"/><polygon class="cls-46" points="870.29 307.87 870.07 307.79 870.43 306.85 870.63 306.93 870.29 307.87"/><path class="cls-46" d="M870.63,308l-.23-.07.34-1,.16.06Z"/><path class="cls-46" d="M873.3,308.46a12.88,12.88,0,0,1-2.68-.48l-.22-.07-.14-.05-.19-.07a7,7,0,0,1-.87-.41l-.05,0h0l-.13-.09a1.69,1.69,0,0,1,0-3.1l.56.83c-.38.25-.58.5-.58.72s.17.43.47.65l.23.14a3.77,3.77,0,0,0,.73.35l.32.11.16.06a12.57,12.57,0,0,0,2.43.44Z"/><path class="cls-46" d="M870.48,305.66l-.11,0-.4-.14a5.14,5.14,0,0,1-.58-.27l.47-.88a4.49,4.49,0,0,0,.49.22l.3.11Z"/><polygon class="cls-46" points="871.08 305.83 870.88 305.78 871.05 304.79 871.33 304.86 871.08 305.83"/><path class="cls-46" d="M872.43,306.09a11.62,11.62,0,0,1-1.35-.26l-.3-.08a2,2,0,0,1-.32-.1l0-.51-.16.47-.35-.13a4.58,4.58,0,0,1-.59-.27A2.77,2.77,0,0,1,869,305a1.88,1.88,0,0,1-1-1.55,1.91,1.91,0,0,1,1-1.56l.56.84c-.37.24-.58.5-.58.72s.2.47.58.72a2.48,2.48,0,0,0,.29.17,4.49,4.49,0,0,0,.49.22l.3.11.14,0,.25.08.29.07a9.33,9.33,0,0,0,1.17.23Z"/><path class="cls-46" d="M871.28,303.6l-.39-.09-.36-.11a6.81,6.81,0,0,1-.89-.34l.42-.9a5.2,5.2,0,0,0,.79.29l.3.09.34.09Z"/><path class="cls-46" d="M872.2,303.78h0c-.34,0-.58-.1-.82-.15l.22-1,.68.14Z"/><path class="cls-46" d="M872.2,303.78c-.34,0-.58-.1-.81-.15l-.12,0-.36-.09-.31-.09a7.27,7.27,0,0,1-1-.36,5.08,5.08,0,0,1-.62-.34,1.68,1.68,0,0,1,0-3.09l.29-.2.28.2.1.07-.28.5.17.25c-.21.15-.56.43-.56.71s.21.48.58.73a5.4,5.4,0,0,0,.49.27c.24.1.5.2.79.29l.31.09.25.07.1,0c.3.07.53.11.77.15Z"/><path class="cls-46" d="M870.14,301a2.39,2.39,0,0,1-.37-.15,2.22,2.22,0,0,1-.32-.15l-.16-.08-.11-.07.58-.81.14.07.26.12.31.13Z"/><path class="cls-46" d="M872.67,301.6l-.48-.07a4.14,4.14,0,0,1-.45-.07c-.29-.06-.58-.12-.85-.2s-.52-.15-.76-.24l.36-.94a5.13,5.13,0,0,0,.66.21,6.51,6.51,0,0,0,.79.19c.13,0,.26,0,.4.06l.45.07Z"/><path class="cls-46" d="M873.05,302l-.13-.09-.24-.18-.3-.27.71-.71.22.21.14.1.14.1L873,302l.31-.4Z"/><path class="cls-46" d="M872.73,301.61l-.53-.08-.45-.07c-.3-.06-.58-.13-.85-.2a6,6,0,0,1-.68-.21l-.1,0-.33-.14-.33-.15-.26-.14c-1-.61-1.21-1.24-1.21-1.67,0-1.82,3.42-2.81,6.64-2.81a21.45,21.45,0,0,1,3.28.37l.14.06.14.16-.41.28-.22.44a21.53,21.53,0,0,0-2.93-.31c-3.44,0-5.64,1.07-5.64,1.81,0,.24.25.52.68.78l-.16.49.25-.44-.13.5.23-.44.32.15.25.1.06,0c.2.08.43.15.67.22s.51.13.78.18l.41.07.44.06Z"/></g><path class="cls-47" d="M512,389.33a45.17,45.17,0,0,0-5.48.34A62.09,62.09,0,0,0,436.06,357a88.64,88.64,0,0,0-177.23,1.3,62.1,62.1,0,0,0-81.45,59c0,1.13,0,2.26.09,3.37h-.09a29.37,29.37,0,0,0,0,58.74H512a45,45,0,0,0,0-90Z"/><text class="cls-48" transform="translate(268.41 425.05)">Back-end</text><text class="cls-49" transform="translate(325.49 457.42)">(php)</text><path class="cls-40" d="M344.36,384.86h-3.73a.65.65,0,0,1-.64-.55l-1-6.72a17.72,17.72,0,0,1-3.12-.83l-4.23,5.31a.66.66,0,0,1-.84.16l-3.22-1.86a.64.64,0,0,1-.28-.8l2.48-6.33a20.45,20.45,0,0,1-2.28-2.28l-6.32,2.48a.64.64,0,0,1-.8-.28l-1.87-3.23a.65.65,0,0,1,.16-.83l5.31-4.22a19.37,19.37,0,0,1-.83-3.12l-6.72-1a.66.66,0,0,1-.56-.65v-3.73a.66.66,0,0,1,.56-.65l6.72-1a19.37,19.37,0,0,1,.83-3.12l-5.31-4.23a.65.65,0,0,1-.16-.84l1.87-3.22a.64.64,0,0,1,.8-.28l6.32,2.49a19,19,0,0,1,2.28-2.29l-2.48-6.32a.65.65,0,0,1,.27-.8l3.23-1.87a.66.66,0,0,1,.84.16l4.23,5.31a19.37,19.37,0,0,1,3.12-.83l1-6.72a.65.65,0,0,1,.64-.55h3.73a.65.65,0,0,1,.64.55l1,6.72a19.09,19.09,0,0,1,3.12.83l4.23-5.31a.65.65,0,0,1,.83-.16l3.23,1.87a.64.64,0,0,1,.28.8l-2.48,6.33a18.19,18.19,0,0,1,2.28,2.28l6.33-2.49a.65.65,0,0,1,.8.28l1.86,3.23a.65.65,0,0,1-.16.83L361,351.6a19.76,19.76,0,0,1,.84,3.12l6.71,1a.66.66,0,0,1,.55.65v3.72a.66.66,0,0,1-.55.65l-6.71,1a19.2,19.2,0,0,1-.84,3.12l5.31,4.23a.65.65,0,0,1,.16.83l-1.86,3.23a.65.65,0,0,1-.8.28L357.5,371a19.64,19.64,0,0,1-2.28,2.28l2.48,6.33a.64.64,0,0,1-.28.8l-3.23,1.86a.65.65,0,0,1-.83-.16l-4.23-5.31a17.72,17.72,0,0,1-3.12.83l-1,6.72A.65.65,0,0,1,344.36,384.86Zm-3.17-1.3h2.61l1-6.63a.64.64,0,0,1,.54-.54,18.09,18.09,0,0,0,3.77-1,.67.67,0,0,1,.75.2l4.17,5.24,2.25-1.3-2.44-6.24a.63.63,0,0,1,.19-.74,19,19,0,0,0,2.76-2.76.64.64,0,0,1,.75-.2l6.24,2.45,1.3-2.26-5.24-4.17a.66.66,0,0,1-.2-.74,19,19,0,0,0,1-3.78.66.66,0,0,1,.55-.54l6.62-1v-2.6l-6.62-1a.68.68,0,0,1-.55-.55,18.18,18.18,0,0,0-1-3.77.66.66,0,0,1,.2-.74l5.24-4.18-1.3-2.26-6.24,2.46a.65.65,0,0,1-.75-.2,18,18,0,0,0-2.76-2.76.63.63,0,0,1-.19-.74l2.44-6.25-2.25-1.3-4.17,5.24a.64.64,0,0,1-.75.2,19,19,0,0,0-3.77-1,.64.64,0,0,1-.54-.54l-1-6.63h-2.61l-1,6.63a.64.64,0,0,1-.54.54,19,19,0,0,0-3.77,1,.62.62,0,0,1-.74-.2L331,335.65,328.7,337l2.46,6.25a.67.67,0,0,1-.2.75,17.51,17.51,0,0,0-2.76,2.75.64.64,0,0,1-.74.2l-6.25-2.46-1.31,2.26,5.25,4.18a.64.64,0,0,1,.2.74,18.3,18.3,0,0,0-1,3.78.66.66,0,0,1-.55.54l-6.62,1v2.61l6.62,1a.65.65,0,0,1,.55.54,18.68,18.68,0,0,0,1,3.77.65.65,0,0,1-.2.75l-5.24,4.17,1.3,2.26,6.25-2.45a.63.63,0,0,1,.74.2,18.47,18.47,0,0,0,2.76,2.76.65.65,0,0,1,.2.74l-2.46,6.24,2.26,1.3,4.18-5.24a.65.65,0,0,1,.74-.2,18.09,18.09,0,0,0,3.77,1,.64.64,0,0,1,.54.54Zm1.3-15.13a10.19,10.19,0,1,1,10.19-10.2A10.21,10.21,0,0,1,342.49,368.43Zm0-19.08a8.89,8.89,0,1,0,8.89,8.88A8.9,8.9,0,0,0,342.49,349.35Z"/><path class="cls-40" d="M342.49,345.47a1.63,1.63,0,1,1,1.63-1.63A1.63,1.63,0,0,1,342.49,345.47Zm0-2a.33.33,0,1,0,.33.32A.33.33,0,0,0,342.49,343.52Z"/><path class="cls-40" d="M349.68,347.4a1.57,1.57,0,0,1-.81-.22,1.6,1.6,0,0,1-.75-1,1.64,1.64,0,0,1,.16-1.23,1.68,1.68,0,0,1,2.22-.59,1.63,1.63,0,0,1,.76,1,1.68,1.68,0,0,1-.16,1.24A1.65,1.65,0,0,1,349.68,347.4Zm0-1.95a.32.32,0,0,0-.27.16.28.28,0,0,0,0,.25.3.3,0,0,0,.14.2.34.34,0,0,0,.45-.12.29.29,0,0,0,0-.25.35.35,0,0,0-.14-.19A.41.41,0,0,0,349.68,345.45Z"/><path class="cls-40" d="M355,352.67a1.6,1.6,0,0,1-1.4-.83,1.61,1.61,0,0,1,.59-2.2,1.67,1.67,0,0,1,2.22.59,1.58,1.58,0,0,1,.17,1.22,1.63,1.63,0,0,1-1.58,1.22Zm0-1.95a.33.33,0,0,0-.17,0,.38.38,0,0,0-.15.19.35.35,0,0,0,0,.25.3.3,0,0,0,.43.13.34.34,0,0,0,.16-.21.36.36,0,0,0,0-.24A.33.33,0,0,0,355,350.72Z"/><path class="cls-40" d="M356.88,359.86a1.63,1.63,0,1,1,1.63-1.63A1.62,1.62,0,0,1,356.88,359.86Zm0-1.95a.32.32,0,0,0-.32.32.33.33,0,1,0,.32-.32Z"/><path class="cls-40" d="M355,367.06a1.67,1.67,0,0,1-.81-.22,1.63,1.63,0,0,1-.59-2.22,1.66,1.66,0,0,1,2.22-.59,1.62,1.62,0,0,1,.59,2.21A1.64,1.64,0,0,1,355,367.06Zm0-1.95a.28.28,0,0,0-.27.15.33.33,0,0,0,.11.45.34.34,0,0,0,.45-.12.31.31,0,0,0,0-.24.28.28,0,0,0-.15-.19A.28.28,0,0,0,355,365.11Z"/><path class="cls-40" d="M349.69,372.32a1.62,1.62,0,0,1-.82-3,1.68,1.68,0,0,1,2.23.59,1.64,1.64,0,0,1,.16,1.23,1.6,1.6,0,0,1-1.57,1.21Zm0-1.95a.37.37,0,0,0-.17.05.33.33,0,0,0,.33.56.3.3,0,0,0,.15-.2.27.27,0,0,0,0-.24A.31.31,0,0,0,349.69,370.37Z"/><path class="cls-40" d="M342.49,374.25a1.63,1.63,0,1,1,1.63-1.63A1.63,1.63,0,0,1,342.49,374.25Zm0-1.95a.33.33,0,1,0,.33.32A.33.33,0,0,0,342.49,372.3Z"/><path class="cls-40" d="M335.29,372.32a1.66,1.66,0,0,1-.81-.21,1.63,1.63,0,0,1-.58-2.23,1.65,1.65,0,0,1,2.21-.59,1.62,1.62,0,0,1-.82,3Zm0-1.95a.32.32,0,0,0-.28.16.34.34,0,0,0,0,.26.29.29,0,0,0,.15.19.33.33,0,0,0,.44-.12.32.32,0,0,0,0-.24.35.35,0,0,0-.16-.2A.33.33,0,0,0,335.3,370.37Z"/><path class="cls-40" d="M330,367.06a1.64,1.64,0,0,1-1.41-.82,1.59,1.59,0,0,1-.16-1.24,1.56,1.56,0,0,1,.76-1,1.68,1.68,0,0,1,2.21.6,1.63,1.63,0,0,1-.59,2.22A1.67,1.67,0,0,1,330,367.06Zm0-1.95a.33.33,0,0,0-.17,0,.3.3,0,0,0-.15.19.34.34,0,0,0,0,.25.33.33,0,0,0,.44.12.31.31,0,0,0,.12-.44A.3.3,0,0,0,330,365.11Z"/><path class="cls-40" d="M328.1,359.86a1.63,1.63,0,1,1,1.63-1.63A1.63,1.63,0,0,1,328.1,359.86Zm0-1.95a.33.33,0,0,0,0,.65.33.33,0,1,0,0-.65Z"/><path class="cls-40" d="M330,352.67a1.61,1.61,0,0,1-.81-.22,1.64,1.64,0,0,1-.76-1,1.6,1.6,0,0,1,.17-1.23,1.67,1.67,0,0,1,2.22-.59,1.62,1.62,0,0,1,.59,2.21A1.64,1.64,0,0,1,330,352.67Zm0-1.95a.33.33,0,0,0-.28.16.36.36,0,0,0,0,.25.28.28,0,0,0,.15.19.31.31,0,0,0,.44-.12.33.33,0,0,0,0-.24.32.32,0,0,0-.15-.19A.28.28,0,0,0,330,350.72Z"/><path class="cls-40" d="M335.3,347.4a1.63,1.63,0,0,1-1.4-.81,1.65,1.65,0,0,1-.17-1.25,1.61,1.61,0,0,1,.76-1,1.69,1.69,0,0,1,2.22.59,1.64,1.64,0,0,1,.16,1.23,1.58,1.58,0,0,1-.76,1A1.52,1.52,0,0,1,335.3,347.4Zm0-1.95a.3.3,0,0,0-.16.05.26.26,0,0,0-.15.18.29.29,0,0,0,0,.25.32.32,0,0,0,.44.13.33.33,0,0,0,.15-.2.29.29,0,0,0,0-.25A.32.32,0,0,0,335.3,345.45Z"/><path class="cls-40" d="M372.74,341H370.3a.66.66,0,0,1-.65-.55l-.63-4.23a14.69,14.69,0,0,1-1.76-.47l-2.66,3.34a.65.65,0,0,1-.83.16L361.65,338a.64.64,0,0,1-.28-.8l1.57-4a14.28,14.28,0,0,1-1.29-1.29l-4,1.57a.66.66,0,0,1-.8-.29l-1.21-2.11a.64.64,0,0,1,.16-.83l3.34-2.66a12.8,12.8,0,0,1-.48-1.77l-4.22-.64a.64.64,0,0,1-.55-.64v-2.43a.65.65,0,0,1,.55-.64l4.22-.64a13.75,13.75,0,0,1,.47-1.76l-3.33-2.67a.64.64,0,0,1-.16-.83l1.21-2.11a.67.67,0,0,1,.8-.28l4,1.57a12.18,12.18,0,0,1,1.29-1.3l-1.57-4a.64.64,0,0,1,.28-.8l2.12-1.22a.65.65,0,0,1,.83.16l2.66,3.35a11.7,11.7,0,0,1,1.76-.47l.63-4.23a.66.66,0,0,1,.65-.56h2.44a.65.65,0,0,1,.64.56l.63,4.23a12.15,12.15,0,0,1,1.77.47l2.67-3.35a.65.65,0,0,1,.83-.16l2.1,1.22a.64.64,0,0,1,.28.8l-1.56,4a14.4,14.4,0,0,1,1.29,1.3l4-1.57a.68.68,0,0,1,.8.28l1.21,2.11a.63.63,0,0,1-.15.83l-3.34,2.66a14.36,14.36,0,0,1,.47,1.77l4.22.64a.65.65,0,0,1,.56.64v2.43a.65.65,0,0,1-.56.64l-4.22.64a12.8,12.8,0,0,1-.48,1.77l3.35,2.66a.63.63,0,0,1,.15.83l-1.21,2.11a.67.67,0,0,1-.8.28l-4-1.56a13,13,0,0,1-1.28,1.29l1.56,4a.64.64,0,0,1-.28.8l-2.1,1.22a.65.65,0,0,1-.83-.16l-2.67-3.34a15.37,15.37,0,0,1-1.77.47l-.63,4.23A.65.65,0,0,1,372.74,341Zm-1.89-1.3h1.33l.62-4.14a.64.64,0,0,1,.54-.54,12.72,12.72,0,0,0,2.42-.65.65.65,0,0,1,.74.2l2.61,3.27,1.14-.66-1.53-3.89a.64.64,0,0,1,.19-.74,12.47,12.47,0,0,0,1.78-1.78.63.63,0,0,1,.74-.19l3.89,1.52L386,331l-3.27-2.61a.64.64,0,0,1-.2-.75,12.18,12.18,0,0,0,.65-2.41.66.66,0,0,1,.54-.55l4.13-.62v-1.31l-4.13-.62a.64.64,0,0,1-.54-.54,12.1,12.1,0,0,0-.65-2.42.64.64,0,0,1,.2-.75l3.27-2.6-.66-1.14-3.89,1.53a.67.67,0,0,1-.75-.2,12.41,12.41,0,0,0-1.77-1.78.63.63,0,0,1-.19-.74l1.53-3.89-1.14-.66-2.61,3.27a.65.65,0,0,1-.74.2,11.82,11.82,0,0,0-2.42-.64.66.66,0,0,1-.54-.55l-.62-4.14h-1.33l-.62,4.14a.66.66,0,0,1-.54.55,11.82,11.82,0,0,0-2.42.64.65.65,0,0,1-.74-.2l-2.6-3.27-1.15.66,1.54,3.89a.65.65,0,0,1-.2.74,12.41,12.41,0,0,0-1.77,1.78.66.66,0,0,1-.74.2l-3.9-1.53-.66,1.13,3.27,2.61a.64.64,0,0,1,.2.75,12.28,12.28,0,0,0-.65,2.42.64.64,0,0,1-.54.54l-4.13.62V324l4.13.62a.66.66,0,0,1,.54.55,12.67,12.67,0,0,0,.65,2.42.63.63,0,0,1-.2.74L357.05,331l.66,1.14,3.9-1.53a.65.65,0,0,1,.74.19,11.92,11.92,0,0,0,1.77,1.78.66.66,0,0,1,.2.74l-1.54,3.89,1.15.66,2.6-3.27a.66.66,0,0,1,.74-.2,12.72,12.72,0,0,0,2.42.65.64.64,0,0,1,.54.54Zm.67-9.45a6.88,6.88,0,1,1,6.88-6.87A6.88,6.88,0,0,1,371.52,330.25Zm0-12.45a5.58,5.58,0,1,0,5.58,5.58A5.58,5.58,0,0,0,371.52,317.8Z"/></g></svg>