<svg xmlns="http://www.w3.org/2000/svg" viewBox="0 0 1134 1080"><defs><style>.cls-1{fill:#394a66;}.cls-2{fill:#00d6a0;}.cls-3{fill:#e8e1d6;}.cls-4{fill:#236319;}.cls-5{fill:#64ac45;}.cls-6{fill:#9ebd4d;}.cls-7{fill:#e1c89b;}.cls-8{fill:#8b7d60;}.cls-9{fill:#308d1d;}.cls-10{fill:#c1aa7d;}.cls-11{fill:#0082ac;}.cls-12{fill:#faff6a;}.cls-13{fill:#ffd715;}.cls-14{fill:#ffcc01;}.cls-15{fill:#fcbd11;}.cls-16{fill:#ffdb53;}.cls-17{fill:#e69a24;}.cls-18{font-size:100px;font-family:MonotypeCorsiva, Monotype Corsiva;}.cls-18,.cls-23{fill:#ededed;}.cls-19{font-size:36px;}.cls-19,.cls-22,.cls-24,.cls-25{fill:#64b2cd;}.cls-19,.cls-22,.cls-24,.cls-25,.cls-27,.cls-28,.cls-29,.cls-31,.cls-32,.cls-33,.cls-35,.cls-36,.cls-38{font-family:MyriadPro-Regular, Myriad Pro;}.cls-20,.cls-21,.cls-26,.cls-30,.cls-34,.cls-37{fill:none;}.cls-20,.cls-21,.cls-23{stroke:#64b2cd;}.cls-20,.cls-21,.cls-23,.cls-26,.cls-30,.cls-34,.cls-37{stroke-miterlimit:10;}.cls-20,.cls-23,.cls-26,.cls-30,.cls-34,.cls-37{stroke-width:5px;}.cls-21{stroke-width:3px;}.cls-22{font-size:28px;}.cls-24{font-size:25px;}.cls-25{font-size:29px;}.cls-26{stroke:#8e96c1;}.cls-27,.cls-32,.cls-38{font-size:18px;}.cls-27,.cls-28,.cls-29{fill:#8e96c1;}.cls-28{font-size:17.83px;}.cls-29{font-size:12px;}.cls-30{stroke:#fdef96;}.cls-31{font-size:14px;}.cls-31,.cls-32,.cls-33{fill:#fdef96;}.cls-33{font-size:16px;}.cls-34{stroke:#52de97;}.cls-35{font-size:10px;}.cls-35,.cls-36{fill:#52de97;}.cls-36{font-size:15px;}.cls-37{stroke:#ff6361;}.cls-38{fill:#ff6361;}</style></defs><title>website structure</title><g id="backgrounds"><rect class="cls-1" width="1134" height="1080"/><circle class="cls-2" cx="1097" cy="1043" r="31"/><circle class="cls-3" cx="1097" cy="1043" r="25.53"/><path class="cls-4" d="M1093.45,1046.46l-6.55,3.81v1.86l13.17,7.6,6.55-3.81v-1.85"/><ellipse class="cls-5" cx="1096.76" cy="1052.17" rx="1.61" ry="2.77" transform="translate(41.48 2145.94) rotate(-89.84)"/><path class="cls-6" d="M1103.73,1053.2a.91.91,0,0,0,0,1.73l-2.18,1.27a3.3,3.3,0,0,0-3,0l-8.78-5.06a.92.92,0,0,0,0-1.74l2.19-1.27a3.3,3.3,0,0,0,3,0Zm-8.93.1a4.32,4.32,0,0,0,3.93,0,1.2,1.2,0,0,0,0-2.27,4.3,4.3,0,0,0-3.92,0,1.2,1.2,0,0,0,0,2.27"/><path class="cls-5" d="M1093.45,1046.46l13.17,7.61-6.55,3.8-13.17-7.6Zm8.11,9.74,2.18-1.27a.91.91,0,0,1,0-1.73l-8.77-5.07a3.31,3.31,0,0,1-3,0l-2.19,1.27a.92.92,0,0,1,0,1.74l8.78,5.06a3.3,3.3,0,0,1,3,0"/><polygon class="cls-7" points="1100.94 1050.78 1094.38 1054.59 1092.38 1053.43 1098.93 1049.62 1100.94 1050.78"/><polygon class="cls-8" points="1094.38 1054.59 1094.37 1056.45 1092.36 1055.29 1092.37 1053.43 1094.38 1054.59"/><polygon class="cls-9" points="1100.07 1057.88 1100.07 1059.73 1106.61 1055.92 1106.61 1054.07 1100.07 1057.88"/><path class="cls-4" d="M1093.61,1044.34l-6.55,3.81V1050l13.17,7.6,6.55-3.81v-1.86"/><ellipse class="cls-5" cx="1096.92" cy="1050.05" rx="1.61" ry="2.77" transform="translate(43.77 2143.99) rotate(-89.84)"/><path class="cls-6" d="M1103.89,1051.08a.91.91,0,0,0,0,1.73l-2.18,1.27a3.3,3.3,0,0,0-3,0L1090,1049a.92.92,0,0,0,0-1.74l2.18-1.27a3.3,3.3,0,0,0,3,0Zm-8.92.1a4.3,4.3,0,0,0,3.92,0,1.2,1.2,0,0,0,0-2.27,4.32,4.32,0,0,0-3.93,0,1.2,1.2,0,0,0,0,2.27"/><path class="cls-5" d="M1093.61,1044.34l13.17,7.6-6.55,3.81-13.17-7.6Zm8.11,9.74,2.18-1.27a.91.91,0,0,1,0-1.73l-8.77-5.07a3.3,3.3,0,0,1-3,0l-2.18,1.27a.92.92,0,0,1,0,1.74l8.77,5.06a3.31,3.31,0,0,1,3,0"/><polygon class="cls-7" points="1101.1 1048.66 1094.55 1052.47 1092.54 1051.31 1099.1 1047.5 1101.1 1048.66"/><polygon class="cls-8" points="1094.54 1052.47 1094.53 1054.33 1092.53 1053.17 1092.54 1051.31 1094.54 1052.47"/><polygon class="cls-9" points="1100.23 1055.75 1100.23 1057.61 1106.77 1053.8 1106.77 1051.94 1100.23 1055.75"/><path class="cls-4" d="M1093.29,1042.3l-6.56,3.81V1048l13.17,7.6,6.56-3.81v-1.85"/><ellipse class="cls-5" cx="1096.59" cy="1048.01" rx="1.61" ry="2.77" transform="matrix(0, -1, 1, 0, 45.48, 2141.63)"/><path class="cls-6" d="M1103.57,1049c-.83.48-.82,1.25,0,1.73l-2.19,1.27a3.3,3.3,0,0,0-3,0l-8.77-5.06a.92.92,0,0,0,0-1.74l2.19-1.27a3.31,3.31,0,0,0,3,0Zm-8.93.1a4.3,4.3,0,0,0,3.92,0,1.2,1.2,0,0,0,0-2.27,4.3,4.3,0,0,0-3.92,0,1.2,1.2,0,0,0,0,2.27"/><path class="cls-5" d="M1093.29,1042.3l13.17,7.61-6.56,3.8-13.17-7.6Zm8.1,9.74,2.19-1.27c-.83-.48-.84-1.25,0-1.73l-8.77-5.07a3.3,3.3,0,0,1-3,0l-2.19,1.27a.92.92,0,0,1,0,1.74l8.77,5.06a3.3,3.3,0,0,1,3,0"/><polygon class="cls-7" points="1100.78 1046.62 1094.22 1050.43 1092.21 1049.27 1098.77 1045.46 1100.78 1046.62"/><polygon class="cls-8" points="1094.21 1050.43 1094.2 1052.29 1092.2 1051.13 1092.21 1049.27 1094.21 1050.43"/><polygon class="cls-9" points="1099.9 1053.71 1099.9 1055.57 1106.45 1051.76 1106.45 1049.9 1099.9 1053.71"/><path class="cls-4" d="M1093.29,1040.34l-6.56,3.81V1046l13.17,7.6,6.56-3.81V1048"/><ellipse class="cls-5" cx="1096.59" cy="1046.05" rx="1.61" ry="2.77" transform="translate(47.44 2139.67) rotate(-89.84)"/><path class="cls-6" d="M1103.57,1047.08a.92.92,0,0,0,0,1.74l-2.19,1.27a3.3,3.3,0,0,0-3,0l-8.77-5.07a.92.92,0,0,0,0-1.74l2.19-1.27a3.31,3.31,0,0,0,3,0Zm-8.93.11a4.36,4.36,0,0,0,3.92,0,1.21,1.21,0,0,0,0-2.28,4.36,4.36,0,0,0-3.92,0,1.21,1.21,0,0,0,0,2.28"/><path class="cls-5" d="M1093.29,1040.34l13.17,7.61-6.56,3.81-13.17-7.61Zm8.1,9.75,2.19-1.27a.92.92,0,0,1,0-1.74l-8.77-5.07a3.3,3.3,0,0,1-3,0l-2.19,1.27a.92.92,0,0,1,0,1.74l8.77,5.07a3.3,3.3,0,0,1,3,0"/><polygon class="cls-7" points="1100.78 1044.66 1094.22 1048.47 1092.21 1047.31 1098.77 1043.51 1100.78 1044.66"/><polygon class="cls-8" points="1094.21 1048.47 1094.2 1050.33 1092.2 1049.17 1092.21 1047.32 1094.21 1048.47"/><polygon class="cls-9" points="1099.9 1051.76 1099.9 1053.61 1106.45 1049.8 1106.45 1047.95 1099.9 1051.76"/><path class="cls-4" d="M1093.61,1038.06l-6.55,3.81v1.85l13.17,7.61,6.55-3.81v-1.86"/><ellipse class="cls-5" cx="1096.92" cy="1043.77" rx="1.61" ry="2.77" transform="translate(50.05 2137.72) rotate(-89.84)"/><path class="cls-6" d="M1103.89,1044.79a.92.92,0,0,0,0,1.74l-2.18,1.27a3.31,3.31,0,0,0-3,0l-8.77-5.06a.92.92,0,0,0,0-1.74l2.18-1.27a3.3,3.3,0,0,0,3,0Zm-8.92.11a4.3,4.3,0,0,0,3.92,0,1.2,1.2,0,0,0,0-2.27,4.32,4.32,0,0,0-3.93,0c-1.08.63-1.07,1.64,0,2.27"/><path class="cls-5" d="M1093.61,1038.06l13.17,7.6-6.55,3.81-13.17-7.6Zm8.11,9.74,2.18-1.27a.92.92,0,0,1,0-1.74l-8.77-5.06a3.3,3.3,0,0,1-3,0l-2.18,1.27a.92.92,0,0,1,0,1.74l8.77,5.06a3.3,3.3,0,0,1,3,0"/><polygon class="cls-7" points="1101.1 1042.38 1094.55 1046.19 1092.54 1045.03 1099.1 1041.22 1101.1 1042.38"/><polygon class="cls-8" points="1094.54 1046.19 1094.53 1048.05 1092.53 1046.89 1092.54 1045.03 1094.54 1046.19"/><polygon class="cls-9" points="1100.23 1049.47 1100.23 1051.33 1106.77 1047.52 1106.77 1045.66 1100.23 1049.47"/><path class="cls-4" d="M1093.94,1036l-6.56,3.81v1.86l13.17,7.6,6.55-3.81v-1.85"/><ellipse class="cls-5" cx="1097.25" cy="1041.7" rx="1.61" ry="2.77" transform="translate(52.44 2135.99) rotate(-89.84)"/><path class="cls-6" d="M1104.22,1042.73a.92.92,0,0,0,0,1.74l-2.18,1.27a3.3,3.3,0,0,0-3,0l-8.78-5.07a.92.92,0,0,0,0-1.74l2.19-1.27a3.3,3.3,0,0,0,3,0Zm-8.93.11a4.36,4.36,0,0,0,3.92,0,1.21,1.21,0,0,0,0-2.28,4.36,4.36,0,0,0-3.92,0,1.21,1.21,0,0,0,0,2.28"/><path class="cls-5" d="M1093.94,1036l13.17,7.61-6.55,3.81-13.18-7.61Zm8.11,9.75,2.18-1.27a.92.92,0,0,1,0-1.74l-8.77-5.07a3.31,3.31,0,0,1-3,0l-2.19,1.27a.92.92,0,0,1,0,1.74l8.78,5.07a3.3,3.3,0,0,1,3,0"/><polygon class="cls-7" points="1101.43 1040.31 1094.87 1044.12 1092.87 1042.96 1099.42 1039.15 1101.43 1040.31"/><polygon class="cls-8" points="1094.87 1044.12 1094.86 1045.98 1092.85 1044.82 1092.86 1042.97 1094.87 1044.12"/><polygon class="cls-9" points="1100.56 1047.41 1100.56 1049.26 1107.1 1045.45 1107.1 1043.6 1100.56 1047.41"/><path class="cls-4" d="M1093.29,1033.93l-6.56,3.81v1.85l13.17,7.61,6.56-3.81v-1.86"/><ellipse class="cls-5" cx="1096.59" cy="1039.63" rx="1.61" ry="2.77" transform="translate(53.86 2133.28) rotate(-89.84)"/><path class="cls-6" d="M1103.57,1040.66a.92.92,0,0,0,0,1.74l-2.19,1.27a3.3,3.3,0,0,0-3,0l-8.77-5.07c.83-.48.82-1.25,0-1.73l2.19-1.27a3.31,3.31,0,0,0,3,0Zm-8.93.11a4.3,4.3,0,0,0,3.92,0,1.2,1.2,0,0,0,0-2.27,4.3,4.3,0,0,0-3.92,0,1.2,1.2,0,0,0,0,2.27"/><path class="cls-5" d="M1093.29,1033.93l13.17,7.6-6.56,3.81-13.17-7.6Zm8.1,9.74,2.19-1.27a.92.92,0,0,1,0-1.74l-8.77-5.06a3.3,3.3,0,0,1-3,0l-2.19,1.27c.83.48.84,1.25,0,1.73l8.77,5.07a3.3,3.3,0,0,1,3,0"/><polygon class="cls-7" points="1100.78 1038.25 1094.22 1042.06 1092.21 1040.9 1098.77 1037.09 1100.78 1038.25"/><polygon class="cls-8" points="1094.21 1042.06 1094.2 1043.91 1092.2 1042.76 1092.21 1040.9 1094.21 1042.06"/><polygon class="cls-9" points="1099.9 1045.34 1099.9 1047.2 1106.45 1043.39 1106.45 1041.53 1099.9 1045.34"/><path class="cls-4" d="M1084.83,1051.4l-6.55,3.81v1.85l13.17,7.61,6.56-3.81V1059"/><ellipse class="cls-5" cx="1088.14" cy="1057.1" rx="1.61" ry="2.77" transform="translate(27.96 2142.24) rotate(-89.84)"/><path class="cls-6" d="M1095.12,1058.13a.92.92,0,0,0,0,1.74l-2.19,1.27a3.31,3.31,0,0,0-3,0l-8.77-5.06a.92.92,0,0,0,0-1.74l2.18-1.27a3.3,3.3,0,0,0,3,0Zm-8.93.11a4.3,4.3,0,0,0,3.92,0,1.2,1.2,0,0,0,0-2.27,4.3,4.3,0,0,0-3.92,0,1.2,1.2,0,0,0,0,2.27"/><path class="cls-5" d="M1084.83,1051.4,1098,1059l-6.56,3.81-13.17-7.6Zm8.11,9.74,2.19-1.27a.92.92,0,0,1,0-1.74l-8.78-5.06a3.3,3.3,0,0,1-3,0l-2.18,1.27a.92.92,0,0,1,0,1.74l8.77,5.06a3.3,3.3,0,0,1,3,0"/><polygon class="cls-7" points="1092.32 1055.72 1085.77 1059.53 1083.76 1058.37 1090.32 1054.56 1092.32 1055.72"/><polygon class="cls-8" points="1085.76 1059.53 1085.75 1061.38 1083.75 1060.23 1083.76 1058.37 1085.76 1059.53"/><polygon class="cls-9" points="1091.45 1062.81 1091.45 1064.67 1098 1060.86 1098 1059 1091.45 1062.81"/><path class="cls-4" d="M1084.67,1049.36l-6.55,3.81V1055l13.17,7.61,6.55-3.81V1057"/><ellipse class="cls-5" cx="1087.98" cy="1055.06" rx="1.61" ry="2.77" transform="translate(29.83 2140.05) rotate(-89.84)"/><path class="cls-6" d="M1095,1056.09a.92.92,0,0,0,0,1.74l-2.18,1.27a3.3,3.3,0,0,0-3,0L1081,1054a.92.92,0,0,0,0-1.74l2.18-1.27a3.3,3.3,0,0,0,3,0Zm-8.93.11a4.32,4.32,0,0,0,3.93,0c1.08-.63,1.07-1.64,0-2.27a4.3,4.3,0,0,0-3.92,0,1.2,1.2,0,0,0,0,2.27"/><path class="cls-5" d="M1084.67,1049.36l13.17,7.6-6.55,3.81-13.17-7.6Zm8.11,9.74,2.18-1.27a.92.92,0,0,1,0-1.74l-8.77-5.06a3.3,3.3,0,0,1-3,0l-2.18,1.27a.92.92,0,0,1,0,1.74l8.77,5.06a3.3,3.3,0,0,1,3,0"/><polygon class="cls-7" points="1092.16 1053.68 1085.61 1057.49 1083.6 1056.33 1090.15 1052.52 1092.16 1053.68"/><polygon class="cls-8" points="1085.6 1057.49 1085.59 1059.35 1083.58 1058.19 1083.59 1056.33 1085.6 1057.49"/><polygon class="cls-9" points="1091.29 1060.77 1091.29 1062.63 1097.83 1058.82 1097.83 1056.96 1091.29 1060.77"/><path class="cls-4" d="M1084.67,1047.24l-6.55,3.81v1.85l13.17,7.61,6.55-3.81v-1.86"/><ellipse class="cls-5" cx="1087.98" cy="1052.94" rx="1.61" ry="2.77" transform="translate(31.96 2137.93) rotate(-89.84)"/><path class="cls-6" d="M1095,1054a.92.92,0,0,0,0,1.74l-2.18,1.27a3.3,3.3,0,0,0-3,0l-8.77-5.07a.91.91,0,0,0,0-1.73l2.18-1.27a3.3,3.3,0,0,0,3,0Zm-8.93.11a4.32,4.32,0,0,0,3.93,0,1.2,1.2,0,0,0,0-2.27,4.3,4.3,0,0,0-3.92,0,1.2,1.2,0,0,0,0,2.27"/><path class="cls-5" d="M1084.67,1047.24l13.17,7.6-6.55,3.81-13.17-7.6Zm8.11,9.74,2.18-1.27a.92.92,0,0,1,0-1.74l-8.77-5.06a3.3,3.3,0,0,1-3,0l-2.18,1.27a.91.91,0,0,1,0,1.73l8.77,5.07a3.3,3.3,0,0,1,3,0"/><polygon class="cls-7" points="1092.16 1051.56 1085.61 1055.37 1083.6 1054.21 1090.15 1050.4 1092.16 1051.56"/><polygon class="cls-8" points="1085.6 1055.37 1085.59 1057.22 1083.58 1056.07 1083.59 1054.21 1085.6 1055.37"/><polygon class="cls-9" points="1091.29 1058.65 1091.29 1060.51 1097.83 1056.7 1097.83 1054.84 1091.29 1058.65"/><path class="cls-4" d="M1085.24,1045l-6.55,3.81v1.86l13.17,7.6,6.55-3.81v-1.85"/><ellipse class="cls-5" cx="1088.55" cy="1050.74" rx="1.61" ry="2.77" transform="translate(34.73 2136.31) rotate(-89.84)"/><path class="cls-6" d="M1095.52,1051.77a.92.92,0,0,0,0,1.74l-2.18,1.27a3.3,3.3,0,0,0-3,0l-8.77-5.07a.92.92,0,0,0,0-1.74l2.18-1.27a3.3,3.3,0,0,0,3,0Zm-8.92.11a4.36,4.36,0,0,0,3.92,0,1.21,1.21,0,0,0,0-2.28,4.38,4.38,0,0,0-3.93,0,1.21,1.21,0,0,0,0,2.28"/><path class="cls-5" d="M1085.24,1045l13.17,7.61-6.55,3.81-13.17-7.61Zm8.11,9.75,2.18-1.27a.92.92,0,0,1,0-1.74l-8.77-5.07a3.3,3.3,0,0,1-3,0l-2.18,1.27a.92.92,0,0,1,0,1.74l8.77,5.07a3.31,3.31,0,0,1,3,0"/><polygon class="cls-7" points="1092.73 1049.35 1086.18 1053.16 1084.17 1052.01 1090.72 1048.2 1092.73 1049.35"/><polygon class="cls-8" points="1086.17 1053.16 1086.16 1055.02 1084.15 1053.86 1084.16 1052.01 1086.17 1053.16"/><polygon class="cls-9" points="1091.86 1056.45 1091.86 1058.3 1098.4 1054.49 1098.4 1052.64 1091.86 1056.45"/><path class="cls-4" d="M1085,1043l-6.56,3.81v1.86l13.17,7.6,6.56-3.8v-1.86"/><ellipse class="cls-5" cx="1088.31" cy="1048.7" rx="1.61" ry="2.77" transform="translate(36.52 2134.03) rotate(-89.84)"/><path class="cls-6" d="M1095.28,1049.73a.92.92,0,0,0,0,1.74l-2.19,1.27a3.28,3.28,0,0,0-3,0l-8.78-5.07a.92.92,0,0,0,0-1.74l2.19-1.26a3.34,3.34,0,0,0,3,0Zm-8.93.11a4.36,4.36,0,0,0,3.92,0,1.2,1.2,0,0,0,0-2.27,4.3,4.3,0,0,0-3.92,0,1.2,1.2,0,0,0,0,2.27"/><path class="cls-5" d="M1085,1043l13.17,7.61-6.56,3.81-13.17-7.61Zm8.1,9.75,2.19-1.27a.92.92,0,0,1,0-1.74l-8.77-5.06a3.34,3.34,0,0,1-3,0l-2.19,1.26a.92.92,0,0,1,0,1.74l8.78,5.07a3.28,3.28,0,0,1,3,0"/><polygon class="cls-7" points="1092.49 1047.32 1085.93 1051.12 1083.93 1049.97 1090.48 1046.16 1092.49 1047.32"/><polygon class="cls-8" points="1085.93 1051.13 1085.92 1052.98 1083.91 1051.82 1083.92 1049.97 1085.93 1051.13"/><polygon class="cls-9" points="1091.61 1054.41 1091.61 1056.26 1098.16 1052.45 1098.16 1050.6 1091.61 1054.41"/><path class="cls-9" d="M1095.87,1061.05v1.86l6.55,3.81,13.17-7.61v-1.85l-6.55-3.81"/><ellipse class="cls-5" cx="1105.73" cy="1059.15" rx="2.77" ry="1.61" transform="translate(-3 3.14) rotate(-0.16)"/><path class="cls-6" d="M1107.53,1055.12a3.31,3.31,0,0,0,3,0l2.19,1.27c-.84.48-.84,1.25,0,1.73l-8.78,5.07a3.3,3.3,0,0,0-3,0l-2.18-1.27a.92.92,0,0,0,0-1.74Zm.16,5.17a1.2,1.2,0,0,0,0-2.27,4.3,4.3,0,0,0-3.92,0,1.2,1.2,0,0,0,0,2.27,4.32,4.32,0,0,0,3.93,0"/><path class="cls-5" d="M1115.59,1057.26l-13.17,7.6-6.55-3.81,13.17-7.6Zm-14.66,5.93a3.3,3.3,0,0,1,3,0l8.78-5.07c-.83-.48-.83-1.25,0-1.73l-2.19-1.27a3.3,3.3,0,0,1-3,0l-8.77,5.06a.92.92,0,0,1,0,1.74l2.18,1.27"/><polygon class="cls-7" points="1101.55 1057.77 1108.11 1061.58 1110.11 1060.42 1103.56 1056.61 1101.55 1057.77"/><polygon class="cls-10" points="1108.11 1061.58 1108.12 1063.43 1110.13 1062.28 1110.12 1060.42 1108.11 1061.58"/><polygon class="cls-4" points="1102.42 1064.86 1102.42 1066.72 1095.88 1062.91 1095.88 1061.05 1102.42 1064.86"/><path class="cls-9" d="M1096.16,1058.87v1.86l6.55,3.81,13.17-7.61v-1.85l-6.55-3.81"/><ellipse class="cls-5" cx="1106.02" cy="1056.97" rx="2.77" ry="1.61" transform="translate(-2.99 3.14) rotate(-0.16)"/><path class="cls-6" d="M1107.82,1052.94a3.3,3.3,0,0,0,3,0l2.18,1.27a.92.92,0,0,0,0,1.74l-8.77,5.06a3.3,3.3,0,0,0-3,0l-2.18-1.27a.92.92,0,0,0,0-1.74Zm.16,5.17a1.2,1.2,0,0,0,0-2.27,4.3,4.3,0,0,0-3.92,0c-1.09.63-1.1,1.64,0,2.27a4.32,4.32,0,0,0,3.93,0"/><path class="cls-5" d="M1115.88,1055.08l-13.17,7.6-6.55-3.81,13.17-7.6Zm-14.66,5.93a3.3,3.3,0,0,1,3,0L1113,1056a.92.92,0,0,1,0-1.74l-2.18-1.27a3.3,3.3,0,0,1-3,0l-8.77,5.06a.92.92,0,0,1,0,1.74l2.18,1.27"/><polygon class="cls-7" points="1101.84 1055.59 1108.39 1059.4 1110.4 1058.24 1103.85 1054.43 1101.84 1055.59"/><polygon class="cls-10" points="1108.4 1059.4 1108.41 1061.26 1110.42 1060.1 1110.41 1058.24 1108.4 1059.4"/><polygon class="cls-4" points="1102.71 1062.68 1102.71 1064.54 1096.17 1060.73 1096.17 1058.87 1102.71 1062.68"/><path class="cls-9" d="M1095.87,1056.73v1.85l6.55,3.81,13.17-7.6v-1.86l-6.55-3.81"/><ellipse class="cls-5" cx="1105.73" cy="1054.83" rx="2.77" ry="1.61" transform="translate(-2.99 3.14) rotate(-0.16)"/><path class="cls-6" d="M1107.53,1050.79a3.31,3.31,0,0,0,3,0l2.19,1.27a.92.92,0,0,0,0,1.74l-8.78,5.07a3.3,3.3,0,0,0-3,0l-2.18-1.27a.92.92,0,0,0,0-1.74Zm.16,5.18a1.21,1.21,0,0,0,0-2.28,4.36,4.36,0,0,0-3.92,0,1.21,1.21,0,0,0,0,2.28,4.38,4.38,0,0,0,3.93,0"/><path class="cls-5" d="M1115.59,1052.93l-13.17,7.61-6.55-3.81,13.17-7.61Zm-14.66,5.94a3.3,3.3,0,0,1,3,0l8.78-5.07a.92.92,0,0,1,0-1.74l-2.19-1.27a3.3,3.3,0,0,1-3,0l-8.77,5.07a.92.92,0,0,1,0,1.74l2.18,1.27"/><polygon class="cls-7" points="1101.55 1053.44 1108.11 1057.25 1110.11 1056.09 1103.56 1052.29 1101.55 1053.44"/><polygon class="cls-10" points="1108.11 1057.25 1108.12 1059.11 1110.13 1057.95 1110.12 1056.1 1108.11 1057.25"/><polygon class="cls-4" points="1102.42 1060.54 1102.42 1062.39 1095.88 1058.58 1095.88 1056.73 1102.42 1060.54"/><path class="cls-11" d="M1088.13,1030.57l-3.45-4a13.77,13.77,0,0,1,1.11,2.25,6.28,6.28,0,0,1,.45,1.88,2.8,2.8,0,0,1-.18,1.23,1.94,1.94,0,0,1-.56.74.76.76,0,0,1-.4.16.32.32,0,0,1-.27-.13.29.29,0,0,1,0-.24.32.32,0,0,1,.15-.24,1.31,1.31,0,0,1,.3-.16,1.5,1.5,0,0,0,.29-.16.82.82,0,0,0,.28-.42,2.69,2.69,0,0,0,0-1.17,7.93,7.93,0,0,0-.57-1.85,13.5,13.5,0,0,0-1.09-2,2.85,2.85,0,0,0-1.1,1.51,1.28,1.28,0,0,0,.15,1.11,1,1,0,0,0,.55.3.51.51,0,0,1,.29.15.3.3,0,0,1,.06.22.27.27,0,0,1-.1.18.43.43,0,0,1-.39,0,1.18,1.18,0,0,1-.57-.43,1.73,1.73,0,0,1-.34-1.07,2.28,2.28,0,0,1,.35-1.23,4.07,4.07,0,0,1,1.07-1.14,2.64,2.64,0,0,0,.56-.53l.27.38a1.07,1.07,0,0,0,.13.15l2.45,2.79a23,23,0,0,1-.19-4.08,5.42,5.42,0,0,1,.34-1.84c.19.62.49,1.42.89,2.37l.92,2.22c0,.13.13.3.24.54l.22.48a3,3,0,0,0,.59-.33,3.32,3.32,0,0,0,.39-.37l.12.26a3.13,3.13,0,0,1-.28.27c-.11.08-.27.18-.49.31a5.39,5.39,0,0,0-.46.29,2.39,2.39,0,0,0-.39.43,17.22,17.22,0,0,0-.69-1.84l-.59-1.41a7.75,7.75,0,0,1-.47-1.3c0,.39,0,1.06,0,2,0,.76.13,1.7.28,2.8Z"/><path class="cls-11" d="M1090.82,1025.64l-.25-.09a4,4,0,0,1,.59-1,1.47,1.47,0,0,1,.57-.43.36.36,0,0,1,.25,0,.2.2,0,0,1,.13.14,9.29,9.29,0,0,1,.09,1.24,12.38,12.38,0,0,0,.2,2.13.13.13,0,0,0,.07.09.07.07,0,0,0,.08,0c.1,0,.28-.31.56-.82l.23.11a6.56,6.56,0,0,1-.65,1.07,1.1,1.1,0,0,1-.42.33.36.36,0,0,1-.29,0,.45.45,0,0,1-.19-.25,15.23,15.23,0,0,1-.28-3,.56.56,0,0,0,0-.2.09.09,0,0,0-.11-.07.59.59,0,0,0-.19.15A5.44,5.44,0,0,0,1090.82,1025.64Zm.76-3.66a.36.36,0,0,1,.27,0,.33.33,0,0,1,.17.21.55.55,0,0,1,0,.4.45.45,0,0,1-.27.27.33.33,0,0,1-.26,0,.4.4,0,0,1-.18-.22.55.55,0,0,1,0-.4A.4.4,0,0,1,1091.58,1022Z"/><path class="cls-11" d="M1095.47,1026.34l.2.14a5.29,5.29,0,0,1-.73.94,1.81,1.81,0,0,1-.77.51.37.37,0,0,1-.27-.07.53.53,0,0,1-.15-.29,8.9,8.9,0,0,1,0-1.64l.1-2.19a8.6,8.6,0,0,1,.18-1.61,2.27,2.27,0,0,1,.65-1.07,2.21,2.21,0,0,1,1.08-.54.47.47,0,0,1,.34,0,.28.28,0,0,1,.16.22.32.32,0,0,1-.06.27.51.51,0,0,1-.31.16,2.26,2.26,0,0,1-.42,0,2.82,2.82,0,0,0-.43,0,.39.39,0,0,0-.27.14,1,1,0,0,0-.16.52c0,.26,0,.77-.08,1.52l-.09,2.09c0,1,0,1.59,0,1.63s.07.15.14.13a.58.58,0,0,0,.28-.18A4.42,4.42,0,0,0,1095.47,1026.34Z"/><path class="cls-11" d="M1095.88,1024.65l-.2-.2a3.6,3.6,0,0,1,.85-.77,1.68,1.68,0,0,1,.72-.31.28.28,0,0,1,.18.06.23.23,0,0,1,.08.16,4,4,0,0,1-.12.7l-.65,3.1a5.47,5.47,0,0,1-.81,2.17,1.63,1.63,0,0,1-1.16.62.9.9,0,0,1-.53-.1.38.38,0,0,1-.2-.28.31.31,0,0,1,.07-.21.27.27,0,0,1,.2-.09,1,1,0,0,1,.4.1,1,1,0,0,0,.45.12.49.49,0,0,0,.41-.27,6.61,6.61,0,0,0,.39-1.56c.17-.89.31-1.62.43-2.18l.27-1.24a1.71,1.71,0,0,0,.08-.37.08.08,0,0,0,0-.07l-.06,0C1096.51,1024,1096.26,1024.23,1095.88,1024.65Zm1.74-3.37a.36.36,0,0,1,.37.34.58.58,0,0,1-.13.38.4.4,0,0,1-.32.18.32.32,0,0,1-.25-.08.37.37,0,0,1-.11-.27.49.49,0,0,1,.12-.37A.44.44,0,0,1,1097.62,1021.28Z"/><path class="cls-11" d="M1100.66,1023.75a1,1,0,0,1,.74.47,1.63,1.63,0,0,1,.18,1.09,2.84,2.84,0,0,1-1,1.82,2.14,2.14,0,0,1-1.7.65,1.07,1.07,0,0,1-.78-.44,1.31,1.31,0,0,1-.21-1,3.31,3.31,0,0,1,.82-1.79A2.15,2.15,0,0,1,1100.66,1023.75Zm-.46.31c-.27,0-.56.13-.86.49a3,3,0,0,0-.59,1.56,1.8,1.8,0,0,0,.12,1,.51.51,0,0,0,.43.32.91.91,0,0,0,.8-.41,2.94,2.94,0,0,0,.62-1.56,2,2,0,0,0-.07-1A.56.56,0,0,0,1100.2,1024.06Z"/><path class="cls-11" d="M1102.52,1025.38l-.1-.21a5,5,0,0,1,1.21-.38,1.47,1.47,0,0,1,.66,0,.32.32,0,0,1,.14.1.13.13,0,0,1,0,.12.55.55,0,0,1-.08.13l-.56.83a5.85,5.85,0,0,1,1.53-.5,1.33,1.33,0,0,1,.7,0,.36.36,0,0,1,.23.22.51.51,0,0,1,0,.36,1.94,1.94,0,0,1-.17.31c-.12.17-.42.55-.88,1.13a5.72,5.72,0,0,0-.77,1.11.49.49,0,0,0,0,.15.11.11,0,0,0,.06.07.78.78,0,0,0,.51-.09l.53-.18,0,.21a4.39,4.39,0,0,1-1.15.4,1,1,0,0,1-.54,0,.32.32,0,0,1-.22-.22.78.78,0,0,1,.06-.45,11.4,11.4,0,0,1,1.29-1.8,5.71,5.71,0,0,0,.42-.61c0-.09,0-.16-.12-.2a.9.9,0,0,0-.54,0,2.8,2.8,0,0,0-1,.38,2.09,2.09,0,0,0-.61.66l-1,1.43-.67-.26q.45-.6.84-1.17l1.07-1.56a1,1,0,0,0,.09-.14c0-.08,0-.14,0-.16a.5.5,0,0,0-.24,0A3.66,3.66,0,0,0,1102.52,1025.38Z"/><path class="cls-11" d="M1110.24,1028.35l.3.13-1,.78c-.4.31-.84.69-1.32,1.13a3.49,3.49,0,0,0-.48.47c-.06.09-.06.15,0,.2a.54.54,0,0,0,.26.06,3.62,3.62,0,0,0,.73,0v.24c-.5.06-.81.08-.93.08a3.2,3.2,0,0,1-.67-.09,1.26,1.26,0,0,1-.33-.16.25.25,0,0,1-.12-.16.24.24,0,0,1,0-.17.69.69,0,0,1,.15-.14l.55-.42a4.11,4.11,0,0,1-1.31.11,1.32,1.32,0,0,1-.66-.2.51.51,0,0,1-.23-.42,1.07,1.07,0,0,1,.24-.68,3.05,3.05,0,0,1,.9-.77,4.35,4.35,0,0,1,1.27-.49,3,3,0,0,1,1.23,0,2.32,2.32,0,0,1,.92.44,1.64,1.64,0,0,1,.25.21Zm-.92.25a2.26,2.26,0,0,0-.33-.31,1.23,1.23,0,0,0-.75-.25,2.19,2.19,0,0,0-1,.34,3,3,0,0,0-1,.84.82.82,0,0,0-.19.45.33.33,0,0,0,.15.29,1,1,0,0,0,.79.13,2.06,2.06,0,0,0,1.07-.51Zm.72-2.14a.46.46,0,0,1,.17.29.39.39,0,0,1-.08.34.43.43,0,0,1-.29.18.45.45,0,0,1-.34-.08.39.39,0,0,1-.17-.3.43.43,0,0,1,.07-.33.47.47,0,0,1,.3-.18A.46.46,0,0,1,1110,1026.46Zm1.12.83a.43.43,0,0,1,.19.3.43.43,0,0,1-.08.33.45.45,0,0,1-.3.18.4.4,0,0,1-.33-.09.43.43,0,0,1-.18-.29.43.43,0,0,1,.08-.33.43.43,0,0,1,.29-.18A.43.43,0,0,1,1111.16,1027.29Z"/><path class="cls-11" d="M1108.69,1032.86l-.48-.54,1.2-.62c.58-.3,1.13-.6,1.64-.9l.23-.14a.11.11,0,0,0,0-.16.45.45,0,0,0-.23-.1,4.38,4.38,0,0,0-.73-.08l0-.22a3.69,3.69,0,0,1,1.18.19,1.74,1.74,0,0,1,.66.36.22.22,0,0,1,.06.13.14.14,0,0,1,0,.11,1.78,1.78,0,0,1-.3.18l-.79.42a6.35,6.35,0,0,1,1.73-.06.85.85,0,0,1,.53.2.36.36,0,0,1,.09.24.29.29,0,0,1-.1.22.27.27,0,0,1-.23.08,1.37,1.37,0,0,1-.48-.21,2.34,2.34,0,0,0-.6-.24,3.25,3.25,0,0,0-.72,0,2.82,2.82,0,0,0-.71.13,11,11,0,0,0-1.11.56Z"/><path class="cls-12" d="M1086.9,1018.43l-.61-1.22c-.13-.25-.21-.42-.24-.5a2.31,2.31,0,0,1-.17-.7,2.6,2.6,0,0,1,.1-.78,1.65,1.65,0,0,0-.57.4,1.27,1.27,0,0,0-.32.53.69.69,0,0,0,0,.45.38.38,0,0,0,.13.16.53.53,0,0,1,.15.17.14.14,0,0,1,0,.11.11.11,0,0,1-.08.07.17.17,0,0,1-.18,0,.52.52,0,0,1-.19-.26,1.07,1.07,0,0,1,0-.71,1.55,1.55,0,0,1,.48-.71,3.66,3.66,0,0,1,.74-.44l.27-.15a3.74,3.74,0,0,0-.11,1.06,3.84,3.84,0,0,0,.28,1,7.74,7.74,0,0,0,.39.81l.28-.74.25-.61a6.57,6.57,0,0,0,.44-1.42,1.11,1.11,0,0,0,0-.59,1.06,1.06,0,0,0-.18-.27.45.45,0,0,1-.1-.13.2.2,0,0,1,0-.15.18.18,0,0,1,.11-.1.21.21,0,0,1,.21,0,.61.61,0,0,1,.19.29,1.47,1.47,0,0,1,.1.49,2.54,2.54,0,0,1-.13.75,13,13,0,0,1-.48,1.34C1087.37,1017.16,1087.13,1017.78,1086.9,1018.43Z"/><path class="cls-12" d="M1090.23,1016.44l.12.09c-.32.55-.63.88-.95,1a.37.37,0,0,1-.33,0,.72.72,0,0,1-.23-.39,2.35,2.35,0,0,1,0-1.26,1.19,1.19,0,0,1,.76-.93.39.39,0,0,1,.32,0,.33.33,0,0,1,.18.23.56.56,0,0,1,0,.38,1.61,1.61,0,0,1-.33.49l-.58.52a1.36,1.36,0,0,0,.06.29.48.48,0,0,0,.14.25.23.23,0,0,0,.2,0,.78.78,0,0,0,.23-.13A4.78,4.78,0,0,0,1090.23,1016.44Zm-1.07-.11a2.25,2.25,0,0,0,.54-.62.5.5,0,0,0,0-.35.27.27,0,0,0-.11-.17.19.19,0,0,0-.18,0,.32.32,0,0,0-.18.13.85.85,0,0,0-.12.37A3.64,3.64,0,0,0,1089.16,1016.33Z"/><path class="cls-12" d="M1090.57,1015.3l-.11-.1a2.5,2.5,0,0,1,.45-.5.8.8,0,0,1,.37-.2s.07,0,.09,0a.07.07,0,0,1,0,.06.76.76,0,0,1,0,.22,3,3,0,0,0,0,.39c.36-.54.65-.83.89-.87a.24.24,0,0,1,.15,0,.26.26,0,0,1,.07.15,1.52,1.52,0,0,1,0,.42,2.83,2.83,0,0,1,.47-.58.71.71,0,0,1,.33-.2.22.22,0,0,1,.2,0,.31.31,0,0,1,.1.19,1.34,1.34,0,0,1,0,.21c0,.08,0,.32-.07.73a4.59,4.59,0,0,0-.06.9c0,.06,0,.09.09.08a.19.19,0,0,0,.1,0,2.53,2.53,0,0,0,.28-.35l.11.08-.18.23a2.18,2.18,0,0,1-.26.31.69.69,0,0,1-.25.15.2.2,0,0,1-.17-.06.38.38,0,0,1-.1-.21,1.08,1.08,0,0,1,0-.32c0-.13,0-.41.08-.85a4,4,0,0,0,0-.6c0-.06,0-.09-.1-.07a.28.28,0,0,0-.17.1,1.38,1.38,0,0,0-.34.43,1.55,1.55,0,0,0-.11.49c0,.48-.06.87-.06,1.18l-.4.07.1-1.78v-.22a.09.09,0,0,0,0-.06.08.08,0,0,0-.07,0,.47.47,0,0,0-.21.16,1.64,1.64,0,0,0-.33.45,2.07,2.07,0,0,0-.1.61l0,1-.4.07.07-1.38a6.34,6.34,0,0,0,0-.66s0-.06-.06-.05S1090.75,1015.05,1090.57,1015.3Z"/><path class="cls-12" d="M1096.64,1013.93a.63.63,0,0,1,.39.08.32.32,0,0,1,.15.22.2.2,0,0,1-.06.14.16.16,0,0,1-.13.06l-.1,0a1.29,1.29,0,0,1-.12-.12.36.36,0,0,0-.28-.17.3.3,0,0,0-.2.1.29.29,0,0,0-.08.22.44.44,0,0,0,.07.22,1.5,1.5,0,0,0,.3.34,1,1,0,0,1,.33.62.7.7,0,0,1-.23.54,1,1,0,0,1-.65.25.73.73,0,0,1-.5-.12.46.46,0,0,1-.18-.33.25.25,0,0,1,.06-.17.21.21,0,0,1,.15-.07.19.19,0,0,1,.13,0,.19.19,0,0,1,.07.12v.07a.16.16,0,0,0,0,.07.19.19,0,0,0,.08.15.33.33,0,0,0,.21.06.77.77,0,0,0,.27-.07.37.37,0,0,0,.17-.16.42.42,0,0,0,.06-.21.48.48,0,0,0-.07-.2,2.05,2.05,0,0,0-.29-.33,1,1,0,0,1-.32-.62.64.64,0,0,1,.21-.49A.82.82,0,0,1,1096.64,1013.93Z"/><path class="cls-12" d="M1097.71,1016.33l-.42,0,.43-1.53c.21-.75.35-1.22.41-1.39a1.56,1.56,0,0,1,.22-.43,1.07,1.07,0,0,1,.3-.3,1.4,1.4,0,0,1,.39-.19.87.87,0,0,1,.37-.06.29.29,0,0,1,.21.06.19.19,0,0,1,.07.16.19.19,0,0,1-.07.13.23.23,0,0,1-.17,0,1.8,1.8,0,0,1-.37-.06l-.14,0a.27.27,0,0,0-.17.06.54.54,0,0,0-.15.21c0,.11-.11.33-.2.66l-.23.89a2.17,2.17,0,0,1,.58-.45.88.88,0,0,1,.42-.11.35.35,0,0,1,.32.39.65.65,0,0,1-.33.53,1.65,1.65,0,0,1-1,.21,1.34,1.34,0,0,1,.34.23,1.57,1.57,0,0,1,.24.33,4.22,4.22,0,0,1,.3.69,2.49,2.49,0,0,0,.4.77.64.64,0,0,0,.43.2.41.41,0,0,0,.23-.05c.07,0,.1-.08.1-.12a.3.3,0,0,0,0-.11.74.74,0,0,1,0-.12.17.17,0,0,1,0-.12.15.15,0,0,1,.12,0,.16.16,0,0,1,.14.07.29.29,0,0,1,0,.17.48.48,0,0,1-.2.35.74.74,0,0,1-.5.14,1,1,0,0,1-.54-.18,1.56,1.56,0,0,1-.44-.52,9.56,9.56,0,0,1-.38-.92,4.26,4.26,0,0,0-.24-.51,1.07,1.07,0,0,0-.23-.26Zm.36-1.33a2.17,2.17,0,0,0,.61,0,.68.68,0,0,0,.35-.19.46.46,0,0,0,.11-.27.35.35,0,0,0-.05-.18.21.21,0,0,0-.14-.07c-.18,0-.46.18-.84.56Z"/><path class="cls-12" d="M1102,1014.3l.19,0-.3.68c-.12.27-.25.59-.37.95a2.26,2.26,0,0,0-.11.38c0,.05,0,.09.06.09s.08,0,.15,0a1.74,1.74,0,0,0,.37-.21l.07.12a5.28,5.28,0,0,1-.45.3,1.72,1.72,0,0,1-.37.14.76.76,0,0,1-.21,0,.16.16,0,0,1-.11-.05.12.12,0,0,1,0-.1.19.19,0,0,1,0-.11l.16-.37a2.53,2.53,0,0,1-.64.42.76.76,0,0,1-.39.08.29.29,0,0,1-.24-.15.63.63,0,0,1-.06-.42,1.54,1.54,0,0,1,.24-.64,2.46,2.46,0,0,1,.51-.6,1.85,1.85,0,0,1,.62-.37,1.44,1.44,0,0,1,.6,0l.18,0Zm-.4.38a1,1,0,0,0-.25-.06.66.66,0,0,0-.46.08,1.15,1.15,0,0,0-.42.45,1.74,1.74,0,0,0-.25.7.41.41,0,0,0,0,.28.19.19,0,0,0,.15.11.71.71,0,0,0,.45-.16,1.23,1.23,0,0,0,.4-.56Z"/><path class="cls-12" d="M1104.58,1015.47a1.47,1.47,0,0,1,.54-.24.82.82,0,0,1,.41,0,.37.37,0,0,1,.26.23.75.75,0,0,1,0,.49,2,2,0,0,1-.45.82,1.76,1.76,0,0,1-.69.51,1.07,1.07,0,0,1-.67.07.59.59,0,0,1-.36-.26.56.56,0,0,1,0-.42,3.1,3.1,0,0,1,.22-.51l.71-1.35a2.6,2.6,0,0,1,.51-.73,1.48,1.48,0,0,1,.59-.32,1.08,1.08,0,0,1,.59,0,.35.35,0,0,1,.22.11.16.16,0,0,1,0,.16.15.15,0,0,1-.1.12.27.27,0,0,1-.2,0l-.3-.13-.17-.07a.28.28,0,0,0-.26.09,2.67,2.67,0,0,0-.33.54Zm.59,0a.61.61,0,0,0-.36.08,1.52,1.52,0,0,0-.51.47,2.36,2.36,0,0,0-.38.76.41.41,0,0,0,0,.27.29.29,0,0,0,.19.16c.21.06.43,0,.67-.33a2.21,2.21,0,0,0,.5-.89.61.61,0,0,0,0-.38A.2.2,0,0,0,1105.17,1015.44Z"/><path class="cls-12" d="M1106.87,1017.47l.06.12a2.6,2.6,0,0,1-.64.26.86.86,0,0,1-.54,0,.17.17,0,0,1-.11-.11.25.25,0,0,1,0-.19,5.68,5.68,0,0,1,.47-.83l.7-1.07a5.07,5.07,0,0,1,.56-.76,1.3,1.3,0,0,1,1.34-.31.37.37,0,0,1,.17.12.22.22,0,0,1,0,.16.19.19,0,0,1-.12.11.24.24,0,0,1-.2,0,.8.8,0,0,1-.22-.1,1.46,1.46,0,0,0-.23-.1.3.3,0,0,0-.18,0,.65.65,0,0,0-.23.22l-.49.74-.65,1c-.33.52-.49.79-.5.81s0,.09,0,.11a.43.43,0,0,0,.19,0A3,3,0,0,0,1106.87,1017.47Z"/><path class="cls-12" d="M1107.52,1016.62l-.07-.13a2.11,2.11,0,0,1,.64-.22.91.91,0,0,1,.42,0,.24.24,0,0,1,.11.08.13.13,0,0,1,0,.12,4.34,4.34,0,0,1-.43.58,8.55,8.55,0,0,0-.73,1,.09.09,0,0,0,0,.07s0,0,0,0a1.48,1.48,0,0,0,.56-.15l.06.14a3.57,3.57,0,0,1-.7.22.76.76,0,0,1-.31,0,.23.23,0,0,1-.12-.12.23.23,0,0,1,0-.18,9.14,9.14,0,0,1,1-1.45.27.27,0,0,0,.06-.1,0,0,0,0,0,0-.07h-.14A2.37,2.37,0,0,0,1107.52,1016.62Zm1.74-1.32a.2.2,0,0,1,.11.11.18.18,0,0,1,0,.16.3.3,0,0,1-.16.17.26.26,0,0,1-.21,0,.23.23,0,0,1-.11-.11.25.25,0,0,1,0-.17.38.38,0,0,1,.16-.17A.28.28,0,0,1,1109.26,1015.3Z"/><circle class="cls-13" cx="1068.71" cy="1043" r="2.1"/><circle class="cls-14" cx="1068.71" cy="1043" r="1.78"/><path class="cls-15" d="M1069.65,1041.48a1.86,1.86,0,0,1,.28,1,1.79,1.79,0,0,1-1.79,1.78,1.74,1.74,0,0,1-.93-.26,1.78,1.78,0,1,0,2.44-2.48Z"/><path class="cls-16" d="M1067.24,1043.16a1.58,1.58,0,0,1,2.82-1,1.57,1.57,0,0,0-2.94.79,1.61,1.61,0,0,0,.33,1A1.6,1.6,0,0,1,1067.24,1043.16Z"/><path class="cls-17" d="M1068.86,1041.85v.23a.37.37,0,0,1,.22.09.54.54,0,0,1,.17.21l-.23.12a.29.29,0,0,0-.26-.18.24.24,0,0,0-.17.06.18.18,0,0,0-.07.15.24.24,0,0,0,0,.14l.22.12.23.12a.57.57,0,0,1,.14.11.47.47,0,0,1,.13.34.55.55,0,0,1-.12.35.54.54,0,0,1-.31.2v.24h-.2v-.23a.67.67,0,0,1-.35-.16.75.75,0,0,1-.18-.37l.26-.05a.53.53,0,0,0,.13.25.28.28,0,0,0,.21.07.28.28,0,0,0,.21-.08.25.25,0,0,0,.08-.21.21.21,0,0,0-.07-.18.44.44,0,0,0-.1-.08l-.18-.09a.91.91,0,0,1-.3-.19.44.44,0,0,1-.11-.3.37.37,0,0,1,0-.15.27.27,0,0,1,.07-.13.69.69,0,0,1,.13-.11.67.67,0,0,1,.17-.06v-.23Z"/><circle class="cls-13" cx="1125.33" cy="1043" r="2.1"/><circle class="cls-14" cx="1125.33" cy="1043" r="1.78"/><path class="cls-15" d="M1126.26,1041.48a1.78,1.78,0,0,1-1.5,2.74,1.74,1.74,0,0,1-.93-.26,1.78,1.78,0,1,0,2.43-2.48Z"/><path class="cls-16" d="M1123.86,1043.16a1.57,1.57,0,0,1,1.57-1.57,1.58,1.58,0,0,1,1.25.61,1.57,1.57,0,0,0-2.94.79,1.55,1.55,0,0,0,.33,1A1.51,1.51,0,0,1,1123.86,1043.16Z"/><path class="cls-17" d="M1125.48,1041.85v.23a.4.4,0,0,1,.22.09.53.53,0,0,1,.16.21l-.22.12a.31.31,0,0,0-.27-.18.25.25,0,0,0-.17.06.2.2,0,0,0-.06.15.19.19,0,0,0,0,.14l.22.12.23.12.14.11a.51.51,0,0,1,.13.34.55.55,0,0,1-.12.35.54.54,0,0,1-.31.2v.24h-.21v-.23a.64.64,0,0,1-.34-.16.75.75,0,0,1-.18-.37l.25-.05a.64.64,0,0,0,.13.25.28.28,0,0,0,.21.07.28.28,0,0,0,.3-.29.21.21,0,0,0-.07-.18.35.35,0,0,0-.11-.08l-.18-.09a.84.84,0,0,1-.29-.19.4.4,0,0,1-.11-.3.68.68,0,0,1,0-.15.41.41,0,0,1,.08-.13.63.63,0,0,1,.12-.11.85.85,0,0,1,.17-.06v-.23Z"/><path class="cls-12" d="M1084.93,1070.22l.44-1.26.19-.51a2.22,2.22,0,0,1,.38-.59,2.7,2.7,0,0,1,.62-.46,1.6,1.6,0,0,0-.67-.13,1.39,1.39,0,0,0-.59.13.71.71,0,0,0-.31.31.36.36,0,0,0,0,.21.44.44,0,0,1,0,.21.15.15,0,0,1-.08.08.14.14,0,0,1-.11,0,.21.21,0,0,1-.1-.15.51.51,0,0,1,0-.31,1,1,0,0,1,.49-.49,1.51,1.51,0,0,1,.83-.14,3.72,3.72,0,0,1,.81.21l.28.1a3.5,3.5,0,0,0-.81.64,3.41,3.41,0,0,0-.51.86,8,8,0,0,0-.31.83l.72-.31.6-.24a6.75,6.75,0,0,0,1.3-.64,1.2,1.2,0,0,0,.39-.44.75.75,0,0,0,.06-.31,1.16,1.16,0,0,1,0-.16.18.18,0,0,1,.11-.1.14.14,0,0,1,.14,0c.07,0,.1.08.12.17a.67.67,0,0,1-.07.33,1.27,1.27,0,0,1-.28.4,2.58,2.58,0,0,1-.62.43c-.29.15-.71.34-1.27.56S1085.54,1069.94,1084.93,1070.22Z"/><path class="cls-12" d="M1089,1070.85l0,.15a1.87,1.87,0,0,1-1.31.24.35.35,0,0,1-.25-.22.79.79,0,0,1,0-.44,2.21,2.21,0,0,1,.72-1,1.13,1.13,0,0,1,1.12-.33.45.45,0,0,1,.26.19.36.36,0,0,1,0,.29.64.64,0,0,1-.23.3,1.49,1.49,0,0,1-.54.2l-.75.09a1.59,1.59,0,0,0-.12.27.4.4,0,0,0,0,.28.23.23,0,0,0,.14.13.71.71,0,0,0,.26,0A3.55,3.55,0,0,0,1089,1070.85Zm-.8-.68a2.32,2.32,0,0,0,.78-.2.44.44,0,0,0,.24-.25.23.23,0,0,0,0-.2.2.2,0,0,0-.13-.12.31.31,0,0,0-.21,0,.77.77,0,0,0-.31.22A3.23,3.23,0,0,0,1088.15,1070.17Z"/><path class="cls-12" d="M1089.84,1070.07l-.06-.13a2.26,2.26,0,0,1,.6-.28.87.87,0,0,1,.4,0s.07,0,.08,0a.1.1,0,0,1,0,.07,1,1,0,0,1-.09.2l-.17.34a1.87,1.87,0,0,1,1.14-.44.15.15,0,0,1,.12.08.17.17,0,0,1,0,.16,1.38,1.38,0,0,1-.16.37,2.41,2.41,0,0,1,.63-.33.78.78,0,0,1,.39-.06.26.26,0,0,1,.16.1.32.32,0,0,1,0,.22,1.08,1.08,0,0,1-.07.18l-.35.64a4.93,4.93,0,0,0-.4.79c0,.06,0,.09.06.1a.14.14,0,0,0,.11,0,2.54,2.54,0,0,0,.39-.21l.06.12-.25.14a2.32,2.32,0,0,1-.35.18.52.52,0,0,1-.29,0,.16.16,0,0,1-.12-.11.35.35,0,0,1,0-.23,1.6,1.6,0,0,1,.11-.3c0-.11.18-.35.39-.73a3.16,3.16,0,0,0,.26-.52c0-.07,0-.1-.06-.11a.34.34,0,0,0-.19,0,1.43,1.43,0,0,0-.47.26,1.35,1.35,0,0,0-.29.41c-.22.41-.39.76-.51,1l-.38-.09.76-1.56a1,1,0,0,0,.09-.2.08.08,0,0,0,0-.07.09.09,0,0,0-.06,0,.44.44,0,0,0-.25.07,1.66,1.66,0,0,0-.47.28,2,2,0,0,0-.32.51l-.41.87-.39-.09.59-1.22.27-.58s0-.07,0-.07S1090.1,1069.91,1089.84,1070.07Z"/><path class="cls-12" d="M1095.79,1070.33a.66.66,0,0,1,.38.12.31.31,0,0,1,.12.23.24.24,0,0,1-.07.13.18.18,0,0,1-.14,0,.12.12,0,0,1-.09,0s-.06-.06-.1-.12a.37.37,0,0,0-.26-.2.26.26,0,0,0-.2.07.27.27,0,0,0-.11.21.54.54,0,0,0,0,.22,1.7,1.7,0,0,0,.26.37,1,1,0,0,1,.26.64.67.67,0,0,1-.29.49.92.92,0,0,1-.66.17.71.71,0,0,1-.48-.17.4.4,0,0,1-.13-.34.21.21,0,0,1,.07-.15.22.22,0,0,1,.15-.06.23.23,0,0,1,.13.06.17.17,0,0,1,0,.13.2.2,0,0,1,0,.07.13.13,0,0,1,0,.06.2.2,0,0,0,.07.16.31.31,0,0,0,.2.08.53.53,0,0,0,.26,0,.45.45,0,0,0,.19-.14.37.37,0,0,0,.08-.2.39.39,0,0,0,0-.21,2.94,2.94,0,0,0-.25-.34,1,1,0,0,1-.24-.64.65.65,0,0,1,.25-.46A.8.8,0,0,1,1095.79,1070.33Z"/><path class="cls-12" d="M1096.83,1072.68h-.41l.35-1.51c.18-.75.29-1.21.34-1.39a1.72,1.72,0,0,1,.2-.43,1.32,1.32,0,0,1,.28-.3,1.41,1.41,0,0,1,.38-.21,1,1,0,0,1,.35-.07.38.38,0,0,1,.21,0,.18.18,0,0,1,.07.15.16.16,0,0,1-.06.13.21.21,0,0,1-.16.06,2.21,2.21,0,0,1-.37,0l-.14,0a.21.21,0,0,0-.16.07.51.51,0,0,0-.13.21,5.65,5.65,0,0,0-.17.66l-.19.88a2.15,2.15,0,0,1,.55-.47.83.83,0,0,1,.41-.12.29.29,0,0,1,.23.1.35.35,0,0,1,.1.26.66.66,0,0,1-.3.53,1.67,1.67,0,0,1-.94.26,1.33,1.33,0,0,1,.34.2,1.35,1.35,0,0,1,.25.31,4.08,4.08,0,0,1,.32.66,2.17,2.17,0,0,0,.44.74.59.59,0,0,0,.42.18.41.41,0,0,0,.23-.06.14.14,0,0,0,.08-.12.65.65,0,0,0,0-.11.3.3,0,0,1,0-.12.12.12,0,0,1,0-.11.16.16,0,0,1,.12,0,.16.16,0,0,1,.13.06.21.21,0,0,1,.06.16.47.47,0,0,1-.18.36.73.73,0,0,1-.48.16,1,1,0,0,1-.54-.15,1.55,1.55,0,0,1-.45-.49,8.7,8.7,0,0,1-.42-.88,2.42,2.42,0,0,0-.25-.49,1.07,1.07,0,0,0-.23-.25Zm.29-1.32a2,2,0,0,0,.6-.07.64.64,0,0,0,.33-.2.44.44,0,0,0,.1-.28.25.25,0,0,0-.06-.17.18.18,0,0,0-.14-.06c-.17,0-.44.2-.79.59Z"/><path class="cls-12" d="M1100.76,1070.06l.17,0-.14.72c0,.28-.1.61-.14,1a2,2,0,0,0,0,.38c0,.06,0,.09.07.08a.25.25,0,0,0,.14-.07,1.58,1.58,0,0,0,.3-.28l.1.09a3.88,3.88,0,0,1-.37.39,1.46,1.46,0,0,1-.32.21.76.76,0,0,1-.2.06.18.18,0,0,1-.11,0,.13.13,0,0,1,0-.1.23.23,0,0,1,0-.11l.07-.39a2.26,2.26,0,0,1-.52.55.73.73,0,0,1-.35.16.29.29,0,0,1-.26-.09.6.6,0,0,1-.15-.39,1.63,1.63,0,0,1,.09-.66,2.27,2.27,0,0,1,.36-.69,1.57,1.57,0,0,1,.51-.49,1.55,1.55,0,0,1,.56-.16h.18Zm-.31.46h-.25a.73.73,0,0,0-.42.18,1.37,1.37,0,0,0-.3.52,1.86,1.86,0,0,0-.09.73.42.42,0,0,0,.09.26.24.24,0,0,0,.18.07.68.68,0,0,0,.38-.25,1.22,1.22,0,0,0,.27-.62Z"/><path class="cls-12" d="M1103.39,1070.08a1.9,1.9,0,0,1,.35-.45.91.91,0,0,1,.35-.2.38.38,0,0,1,.34.08.83.83,0,0,1,.22.43,2,2,0,0,1,0,.92,1.68,1.68,0,0,1-.36.76,1,1,0,0,1-.55.36.52.52,0,0,1-.67-.4,2.42,2.42,0,0,1,0-.53l0-1.5a2.56,2.56,0,0,1,.11-.87,1.23,1.23,0,0,1,.36-.54,1.13,1.13,0,0,1,.5-.29.47.47,0,0,1,.24,0,.18.18,0,0,1,.11.13.17.17,0,0,1,0,.15.3.3,0,0,1-.17.09,1.12,1.12,0,0,1-.32,0l-.17,0a.28.28,0,0,0-.19.2,3.67,3.67,0,0,0,0,.61Zm.5-.29a.59.59,0,0,0-.28.24,1.4,1.4,0,0,0-.21.64,2.1,2.1,0,0,0,0,.83.32.32,0,0,0,.15.22.3.3,0,0,0,.24,0q.3-.07.42-.6a2.12,2.12,0,0,0,0-1,.58.58,0,0,0-.17-.32A.23.23,0,0,0,1103.89,1069.79Z"/><path class="cls-12" d="M1106.36,1070.47l.12.06a2.77,2.77,0,0,1-.36.58.93.93,0,0,1-.41.33.16.16,0,0,1-.15,0,.25.25,0,0,1-.11-.15,4.82,4.82,0,0,1-.1-.93l-.07-1.25a5.48,5.48,0,0,1,0-.93,1.33,1.33,0,0,1,.31-.64,1.36,1.36,0,0,1,.58-.38.34.34,0,0,1,.2,0,.17.17,0,0,1,.1.12.18.18,0,0,1,0,.16.32.32,0,0,1-.17.11l-.23,0-.24,0a.27.27,0,0,0-.15.09.58.58,0,0,0-.06.31c0,.15,0,.44.05.87l.07,1.19c0,.59.06.9.07.93s0,.08.09.06a.35.35,0,0,0,.15-.12A4,4,0,0,0,1106.36,1070.47Z"/><path class="cls-12" d="M1106.36,1069.37l-.14,0a2.35,2.35,0,0,1,.32-.58.87.87,0,0,1,.33-.25.23.23,0,0,1,.14,0,.15.15,0,0,1,.08.08s0,.29.06.71a8.06,8.06,0,0,0,.12,1.21l0,.06h0c.06,0,.16-.18.31-.48l.14.06a3.48,3.48,0,0,1-.37.62.62.62,0,0,1-.23.19.2.2,0,0,1-.17,0,.27.27,0,0,1-.11-.14,8.66,8.66,0,0,1-.18-1.73.36.36,0,0,0,0-.11s0,0-.06,0a.29.29,0,0,0-.11.09A3.68,3.68,0,0,0,1106.36,1069.37Zm.4-2.09a.22.22,0,0,1,.16,0,.2.2,0,0,1,.1.12.31.31,0,0,1,0,.23.22.22,0,0,1-.15.15.16.16,0,0,1-.15,0,.2.2,0,0,1-.1-.12.31.31,0,0,1,0-.23A.23.23,0,0,1,1106.76,1067.28Z"/><text class="cls-18" transform="translate(255.14 96.8)">Website structure</text></g><g id="folder"><text class="cls-19" transform="translate(626.63 407.9)">js</text><path class="cls-20" d="M286.94,421V367.28a16.37,16.37,0,0,1,2.57-8.81l1.77-2.78a9,9,0,0,1,7.63-4.19h29a10.41,10.41,0,0,1,7,2.68l3.55,3.19a12.14,12.14,0,0,0,8.15,3.13h26.82a4.49,4.49,0,0,1,4.5,4.5v10"/><path class="cls-20" d="M291.23,424.5h75.66a4.34,4.34,0,0,0,4.08-2.87l14.88-41.33a4.33,4.33,0,0,0-4.08-5.8H306.93a4.33,4.33,0,0,0-4.05,2.8l-15.71,41.32A4.34,4.34,0,0,0,291.23,424.5Z"/><text class="cls-19" transform="translate(314.81 407.9)">css</text><line class="cls-21" x1="305" y1="363.5" x2="318" y2="363.5"/><polyline class="cls-21" points="125.46 160 171.5 160 171.5 283.19 171.5 939 125.46 938.74"/><line class="cls-21" x1="125.46" y1="681.5" x2="171.5" y2="681.5"/><line class="cls-21" x1="125.46" y1="552.28" x2="171.5" y2="552.28"/><line class="cls-21" x1="125.46" y1="421" x2="171.5" y2="421"/><line class="cls-21" x1="951.46" y1="421" x2="997.5" y2="421"/><line class="cls-21" x1="125.46" y1="294" x2="171.5" y2="294"/><line class="cls-21" x1="286.89" y1="390.04" x2="171.5" y2="390.04"/><line class="cls-21" x1="951.89" y1="390.04" x2="836.5" y2="390.04"/><line class="cls-21" x1="125.46" y1="810.5" x2="171.5" y2="810.28"/><path class="cls-20" d="M592.94,421V367.28a16.37,16.37,0,0,1,2.57-8.81l1.77-2.78a9,9,0,0,1,7.63-4.19h29a10.41,10.41,0,0,1,7,2.68l3.55,3.19a12.14,12.14,0,0,0,8.15,3.13h26.82a4.49,4.49,0,0,1,4.5,4.5v10"/><path class="cls-20" d="M597.23,424.5h75.66a4.34,4.34,0,0,0,4.08-2.87l14.88-41.33a4.33,4.33,0,0,0-4.08-5.8H612.93a4.33,4.33,0,0,0-4,2.8l-15.71,41.32A4.34,4.34,0,0,0,597.23,424.5Z"/><line class="cls-21" x1="610" y1="363.5" x2="623" y2="363.5"/><path class="cls-20" d="M437.94,421V367.28a16.37,16.37,0,0,1,2.57-8.81l1.77-2.78a9,9,0,0,1,7.63-4.19h29a10.41,10.41,0,0,1,7,2.68l3.55,3.19a12.14,12.14,0,0,0,8.15,3.13h26.82a4.49,4.49,0,0,1,4.5,4.5v10"/><path class="cls-20" d="M442.23,424.5h75.66a4.34,4.34,0,0,0,4.08-2.87l14.88-41.33a4.33,4.33,0,0,0-4.08-5.8H457.93a4.33,4.33,0,0,0-4.05,2.8l-15.71,41.32A4.34,4.34,0,0,0,442.23,424.5Z"/><text class="cls-22" transform="translate(463.49 407.9)">IMG</text><line class="cls-21" x1="456.5" y1="363.5" x2="469.5" y2="363.5"/><line class="cls-21" x1="463" y1="370" x2="463" y2="357"/><rect class="cls-23" x="284.5" y="487.5" width="250" height="92" rx="14.43" ry="14.43"/><text class="cls-24" transform="translate(292.69 511.41)">This folder contains all <tspan x="16.69" y="30">used images inside </tspan><tspan x="52.69" y="60">the website.</tspan></text><polyline class="cls-20" points="483.44 424.5 483.44 450.5 408.5 450.5 408.5 487.5"/><polyline class="cls-21" points="540.73 642.48 540.73 606 741 606 741 642.48"/><line class="cls-21" x1="638.13" y1="424.5" x2="638.13" y2="807"/><path class="cls-20" d="M741.94,421V367.28a16.37,16.37,0,0,1,2.57-8.81l1.77-2.78a9,9,0,0,1,7.63-4.19h29a10.41,10.41,0,0,1,7,2.68l3.55,3.19a12.14,12.14,0,0,0,8.15,3.13h26.82a4.49,4.49,0,0,1,4.5,4.5v10"/><path class="cls-20" d="M746.23,424.5h75.66a4.34,4.34,0,0,0,4.08-2.87l14.88-41.33a4.33,4.33,0,0,0-4.08-5.8H761.93a4.33,4.33,0,0,0-4,2.8l-15.71,41.32A4.34,4.34,0,0,0,746.23,424.5Z"/><text class="cls-25" transform="translate(760.63 407.9)">parts</text><line class="cls-21" x1="759" y1="363.5" x2="772" y2="363.5"/><polyline class="cls-21" points="996.5 289 951.5 289 951.5 546.5 996.48 546.5"/></g><g id="php"><path class="cls-26" d="M283,168.5h68.29A23.71,23.71,0,0,1,375,192.21V273.5a0,0,0,0,1,0,0H283a0,0,0,0,1,0,0v-105A0,0,0,0,1,283,168.5Z"/><text class="cls-27" transform="translate(291.07 226.28)">index.php</text><path class="cls-26" d="M406,169h68.29A23.71,23.71,0,0,1,498,192.71V273a0,0,0,0,1,0,0H406a0,0,0,0,1,0,0V169A0,0,0,0,1,406,169Z"/><text class="cls-28" transform="translate(416.9 226.23) scale(1.01 1)">rules.php</text><path class="cls-26" d="M640,168.5h68.29A23.71,23.71,0,0,1,732,192.21V273.5a0,0,0,0,1,0,0H640a0,0,0,0,1,0,0v-105A0,0,0,0,1,640,168.5Z"/><text class="cls-28" transform="translate(654.56 226.23) scale(1.01 1)">info.php</text><path class="cls-26" d="M759,168.5h68.29A23.71,23.71,0,0,1,851,192.21V273.5a0,0,0,0,1,0,0H759a0,0,0,0,1,0,0v-105A0,0,0,0,1,759,168.5Z"/><text class="cls-28" transform="translate(765.59 226.23) scale(1.01 1)">about.php</text><path class="cls-26" d="M524,168.5h68.29A23.71,23.71,0,0,1,616,192.21V273.5a0,0,0,0,1,0,0H524a0,0,0,0,1,0,0v-105A0,0,0,0,1,524,168.5Z"/><text class="cls-29" transform="translate(531.02 226.28)">high_score.php</text></g><g id="css"><path class="cls-30" d="M33.5,236.5h68.29a23.71,23.71,0,0,1,23.71,23.71V341.5a0,0,0,0,1,0,0h-92a0,0,0,0,1,0,0v-105A0,0,0,0,1,33.5,236.5Z" transform="translate(2.06 -0.56) rotate(0.41)"/><text class="cls-31" transform="translate(38.42 293.94) rotate(0.41)">aboutstyle.css</text><path class="cls-30" d="M33.5,107.5h68.29a23.71,23.71,0,0,1,23.71,23.71V212.5a0,0,0,0,1,0,0h-92a0,0,0,0,1,0,0v-105A0,0,0,0,1,33.5,107.5Z" transform="translate(1.14 -0.56) rotate(0.41)"/><text class="cls-32" transform="translate(49.03 165.01) rotate(0.41)">style.css</text><path class="cls-30" d="M33.5,365.5h68.29a23.71,23.71,0,0,1,23.71,23.71V470.5a0,0,0,0,1,0,0h-92a0,0,0,0,1,0,0v-105A0,0,0,0,1,33.5,365.5Z" transform="translate(2.98 -0.56) rotate(0.41)"/><text class="cls-32" transform="translate(53.18 423.04) rotate(0.41)">nav.css</text><path class="cls-30" d="M33.5,494.5h68.29a23.71,23.71,0,0,1,23.71,23.71V599.5a0,0,0,0,1,0,0h-92a0,0,0,0,1,0,0v-105A0,0,0,0,1,33.5,494.5Z" transform="translate(3.9 -0.55) rotate(0.41)"/><text class="cls-32" transform="translate(44.13 551.98) rotate(0.41)">footer.css</text><path class="cls-30" d="M33.5,623.5h68.29a23.71,23.71,0,0,1,23.71,23.71V728.5a0,0,0,0,1,0,0h-92a0,0,0,0,1,0,0v-105A0,0,0,0,1,33.5,623.5Z" transform="translate(4.82 -0.55) rotate(0.41)"/><text class="cls-33" transform="translate(42.58 680.97) rotate(0.41)">high_score<tspan x="5.83" y="19.2">_style.css</tspan></text><path class="cls-30" d="M33.5,752.5h68.29a23.71,23.71,0,0,1,23.71,23.71V857.5a0,0,0,0,1,0,0h-92a0,0,0,0,1,0,0v-105A0,0,0,0,1,33.5,752.5Z" transform="translate(5.74 -0.55) rotate(0.41)"/><text class="cls-32" transform="translate(52.08 810.04) rotate(0.41)">info.css</text><path class="cls-30" d="M33.5,881.5h68.29a23.71,23.71,0,0,1,23.71,23.71V986.5a0,0,0,0,1,0,0h-92a0,0,0,0,1,0,0v-105A0,0,0,0,1,33.5,881.5Z" transform="translate(6.66 -0.54) rotate(0.41)"/><text class="cls-32" transform="translate(45.59 938.99) rotate(0.41)">index.css</text></g><g id="js"><path class="cls-34" d="M498.08,642.5h68.29a23.71,23.71,0,0,1,23.71,23.71V747.5a0,0,0,0,1,0,0h-92a0,0,0,0,1,0,0v-105A0,0,0,0,1,498.08,642.5Z" transform="translate(4.97 -3.86) rotate(0.41)"/><text class="cls-35" transform="translate(501.07 699.92) rotate(0.41)">nav-bar-animation.js</text><path class="cls-34" d="M695.08,642.5h68.29a23.71,23.71,0,0,1,23.71,23.71V747.5a0,0,0,0,1,0,0h-92a0,0,0,0,1,0,0v-105A0,0,0,0,1,695.08,642.5Z" transform="translate(4.98 -5.27) rotate(0.41)"/><text class="cls-36" transform="translate(701.66 699.95) rotate(0.41)">high-score.js</text><path class="cls-34" d="M597.08,806.5h68.29a23.71,23.71,0,0,1,23.71,23.71V911.5a0,0,0,0,1,0,0h-92a0,0,0,0,1,0,0v-105A0,0,0,0,1,597.08,806.5Z" transform="translate(6.14 -4.56) rotate(0.41)"/><text class="cls-36" transform="translate(605.78 863.97) rotate(0.41)">slideshow.js</text></g><g id="parts"><path class="cls-37" d="M996.5,365.5h68.29a23.71,23.71,0,0,1,23.71,23.71V470.5a0,0,0,0,1,0,0h-92a0,0,0,0,1,0,0v-105A0,0,0,0,1,996.5,365.5Z" transform="translate(3.01 -7.42) rotate(0.41)"/><text class="cls-38" transform="translate(1009.77 423) rotate(0.41)">nav.html</text><path class="cls-37" d="M996.5,494.5h68.29a23.71,23.71,0,0,1,23.71,23.71V599.5a0,0,0,0,1,0,0h-92a0,0,0,0,1,0,0v-105A0,0,0,0,1,996.5,494.5Z" transform="translate(3.93 -7.42) rotate(0.41)"/><text class="cls-38" transform="translate(1000.72 551.93) rotate(0.41)">footer.html</text><path class="cls-37" d="M996.5,236.5h68.29a23.71,23.71,0,0,1,23.71,23.71V341.5a0,0,0,0,1,0,0h-92a0,0,0,0,1,0,0v-105A0,0,0,0,1,996.5,236.5Z" transform="translate(2.09 -7.43) rotate(0.41)"/><text class="cls-38" transform="translate(1004.18 293.96) rotate(0.41)">head.html</text></g></svg>